<?xml version="1.0" standalone="no"?><!DOCTYPE svg PUBLIC "-//W3C//DTD SVG 1.1//EN"
	"http://www.w3.org/Graphics/SVG/1.1/DTD/svg11.dtd">
<svg t="1723083153329" class="icon" viewBox="0 0 1024 1024" version="1.1" xmlns="http://www.w3.org/2000/svg" p-id="5093"
		 width="128" height="128">
	<path
		d="M96 213.333333A117.333333 117.333333 0 0 1 213.333333 96h597.333334A117.333333 117.333333 0 0 1 928 213.333333v597.333334A117.333333 117.333333 0 0 1 810.666667 928H213.333333A117.333333 117.333333 0 0 1 96 810.666667V213.333333zM213.333333 160c-29.44 0-53.333333 23.893333-53.333333 53.333333v597.333334c0 29.44 23.893333 53.333333 53.333333 53.333333h597.333334c29.44 0 53.333333-23.893333 53.333333-53.333333V213.333333c0-29.44-23.893333-53.333333-53.333333-53.333333H213.333333z"
		fill="#70B6FF" opacity=".3" p-id="5094"></path>
	<path d="M309.333333 512a32 32 0 0 1 32-32h341.333334a32 32 0 0 1 0 64H341.333333a32 32 0 0 1-32-32z" fill="#70B6FF"
				p-id="5095"></path>
	<path d="M512 714.666667a32 32 0 0 1-32-32V341.333333a32 32 0 0 1 64 0v341.333334a32 32 0 0 1-32 32z" fill="#70B6FF"
				p-id="5096"></path>
</svg>
