<?xml version="1.0" standalone="no"?><!DOCTYPE svg PUBLIC "-//W3C//DTD SVG 1.1//EN"
	"http://www.w3.org/Graphics/SVG/1.1/DTD/svg11.dtd">
<svg t="1722844312939" class="icon" viewBox="0 0 1024 1024" version="1.1" xmlns="http://www.w3.org/2000/svg" p-id="9615"
		 width="128" height="128">
	<path
		d="M779.2 438.4C782.4 148.8 544 17.6 526.4 6.4c-14.4 8-256 139.2-251.2 430.4-48 33.6-99.2 88-91.2 182.4s102.4 160 139.2 156.8 25.6-28.8 25.6-28.8l11.2-51.2s54.4 80 68.8 80h196.8c17.6 0 68.8-80 68.8-80l11.2 51.2s-11.2 25.6 25.6 28.8c36.8 3.2 131.2-62.4 139.2-156.8 6.4-92.8-44.8-148.8-91.2-180.8z m-252.8-4.8c-8 0-94.4-3.2-105.6-105.6 3.2-99.2 99.2-105.6 105.6-108.8 8 0 102.4 11.2 105.6 108.8-11.2 102.4-97.6 105.6-105.6 105.6zM472 934.4c0 11.2-11.2 22.4-22.4 22.4s-22.4-11.2-22.4-22.4v-105.6c0-11.2 11.2-22.4 22.4-22.4s22.4 11.2 22.4 22.4v105.6z m80 54.4c0 11.2-11.2 22.4-22.4 22.4s-22.4-11.2-22.4-22.4V832c0-11.2 11.2-22.4 22.4-22.4s22.4 11.2 22.4 22.4v156.8z m73.6-80c0 11.2-11.2 22.4-22.4 22.4s-22.4-11.2-22.4-22.4V832c0-11.2 11.2-22.4 22.4-22.4s22.4 11.2 22.4 22.4v76.8z"
		fill="#70B6FF" p-id="9616"></path>
</svg>
