<?xml version="1.0" standalone="no"?><!DOCTYPE svg PUBLIC "-//W3C//DTD SVG 1.1//EN" "http://www.w3.org/Graphics/SVG/1.1/DTD/svg11.dtd">
<svg t="1727069279810" class="icon" viewBox="0 0 1024 1024" version="1.1" xmlns="http://www.w3.org/2000/svg"
		 p-id="68872"
		 width="48" height="48"><path d="M140.8 586.24V178.176c0-20.48 16.384-36.864 36.864-36.864h408.064c20.48 0 37.376 16.384 37.376 36.864 0 9.728-4.096 19.456-10.752 26.624L215.04 601.6v244.224c0 20.48-16.384 36.864-36.864 36.864s-36.864-16.384-36.864-36.864v-259.584zM215.04 496.64l281.6-281.6H215.04v281.6z m599.04 56.32c79.872 64.512 92.672 181.248 28.16 261.12-35.328 43.52-88.576 69.12-144.384 69.12H326.656c-20.48 0-36.864-16.384-36.864-36.864s16.384-36.864 36.864-36.864h255.488c20.48 0 36.864-16.384 36.864-36.864s-16.384-36.864-36.864-36.864H326.656c-20.48 0-36.864-16.384-36.864-36.864s16.384-36.864 36.864-36.864h255.488c61.44 0 111.616 49.664 111.616 111.104 0 12.8-2.048 25.088-6.144 37.376h10.752c61.44 0 111.104-49.664 111.104-111.104s-49.664-111.104-111.104-111.104H474.624c-20.48 0-36.864-16.384-36.864-36.864s16.384-36.864 36.864-36.864h259.584c20.48 0 36.864-16.384 36.864-36.864s-16.384-36.864-36.864-36.864h-111.104c-20.48 0-36.864-16.384-36.864-36.864s16.384-36.864 36.864-36.864h111.104c61.44 0 111.616 49.664 111.616 111.104 0.512 26.112-11.264 53.76-31.744 74.752z" fill="#5095FD" p-id="68873"></path></svg>
