<?xml version="1.0" standalone="no"?><!DOCTYPE svg PUBLIC "-//W3C//DTD SVG 1.1//EN" "http://www.w3.org/Graphics/SVG/1.1/DTD/svg11.dtd">
<svg t="1727068845514" class="icon" viewBox="0 0 1024 1024" version="1.1" xmlns="http://www.w3.org/2000/svg"
		 p-id="45544"
		 width="48" height="48"><path d="M374.1184 535.9104l2.56-379.648C376.6272 86.8864 321.1776 30.72 252.8256 30.72c-68.4032 0-123.904 56.1664-123.904 125.4912v373.2992C52.0704 572.2112 0 654.848 0 749.9264c0 138.6496 110.8992 251.0336 247.6544 251.0336 136.7552 0 247.6032-112.384 247.6032-251.0336 0.0512-90.7264-50.0736-169.9328-121.1392-214.016z m-126.464 398.1824c-102.6048 0-185.7536-84.2752-185.7536-188.2112 0-78.9504 48.0768-146.3808 116.0704-174.3872V172.8512c0-41.5744 33.28-75.264 74.2912-75.264s70.8608 33.7408 70.8608 75.264v403.2c62.9248 30.1568 110.2336 94.5664 110.2336 169.8304 0 103.9872-83.1488 188.2112-185.7024 188.2112z m42.9056-334.5408V213.1456H211.8656v383.4368c-68.2496 15.4624-116.9408 77.0048-116.9408 150.8864 0 85.504 68.4032 157.2352 152.7296 157.2352s152.6784-71.7312 152.6784-157.2352c0.0512-70.2976-46.4384-128.9728-109.7728-147.9168z m464.3328-446.8736c-79.3088 0-143.6672 63.8976-143.6672 142.7456 0 78.848 64.3072 142.7456 143.6672 142.7456 79.36 0 143.6672-63.8976 143.6672-142.7456 0-78.848-64.3072-142.7456-143.6672-142.7456z m184.576 122.3168v40.704h81.9712v-40.704h-81.9712z m-368.9472 0H488.4992v40.704h81.9712v-40.704z m163.9424 284.928h41.0112v-81.408h-41.0112v81.408zM775.4752 30.72h-41.0112v81.408h41.0112V30.72z m95.4368 408.5248l57.9584 57.5488 28.9792-28.7744-57.9584-57.5488-28.9792 28.7744z m-231.8848-287.8464l-57.9584-57.5488-28.9792 28.7744 57.9584 57.5488 28.9792-28.7744z m-86.9376 316.672l28.9792 28.7744 57.9584-57.5488-28.9792-28.7744-57.9584 57.5488z m405.8112-345.4464l-28.9792-28.7744-58.0096 57.5488 28.9792 28.7744 58.0096-57.5488z" fill="#e0620d" p-id="45545"></path></svg>
