<svg width="283.98335999999995" viewBox="0.4000000059604645 -29.600000381469727 155.23001098632812 48.650001525878906"
		 height="88.99059880193236" data-palette-color="#ffffff">
	<path
		d="M9.8-20.4L9.8-20.4Q9.8-19.6 10.23-19 10.65-18.4 11-18.15L11-18.15Q11.7-17.7 12.8-17.15L12.8-17.15Q13.4-16.7 13.05-16.6L13.05-16.6Q12.9-16.6 12.7-16.65L12.7-16.65Q11.5-16.9 10.15-18.1 8.8-19.3 8.75-20.85L8.75-20.85Q8.6-21.4 8.6-21.8L8.6-21.8Q8.6-23.95 10.4-25.55L10.4-25.55Q13.75-28.4 21.05-28.4L21.05-28.4Q21.05-28.6 21.2-28.9L21.2-28.9Q21.3-29.5 22.75-29.5L22.75-29.5Q24-29.5 23.95-28.9L23.95-28.9Q23.75-28.5 23.7-28.25L23.7-28.25Q26.9-28.05 29.05-26.95L29.05-26.95Q29.75-26.6 30.08-26.1 30.4-25.6 30.4-25.4L30.4-25.4Q30.4-24.95 28.58-25.58 26.75-26.2 23-26.2L23-26.2Q22.75-25.15 21.28-20.9 19.8-16.65 19.4-15.63 19-14.6 18.3-12.78 17.6-10.95 17.05-9.8 16.5-8.65 15.8-7.2L15.8-7.2Q14.6-4.75 12.95-2.6L12.95-2.6Q11.7-1.15 11.05-0.65L11.05-0.65Q11.9-0.65 14.35-0.65 16.8-0.65 18.65-0.78 20.5-0.9 20.68-0.75 20.85-0.6 20.7-0.4L20.7-0.4Q20.4 0.1 19.9 0.38 19.4 0.65 12.55 0.85 5.7 1.05 4 1.05 2.3 1.05 1.55 1.05L1.55 1.05Q0.4 1 0.4 0.15L0.4 0.15Q0.4-0.3 0.7-1.1L0.7-1.1Q1.05-1.9 2.08-2.13 3.1-2.35 3.9-1.7L3.9-1.7Q5.25-0.6 6.55-0.6 7.85-0.6 9.22-1.1 10.6-1.6 12-3.4L12-3.4Q16.05-8.8 20.5-26.15L20.5-26.15Q15.9-25.75 12.85-24.28 9.8-22.8 9.8-20.4ZM30.1 1.25L30.1 1.25Q27.55 1.25 27.55-1.83 27.55-4.9 31.95-9.4L31.95-9.4Q32.3-9.75 32.45-9.95L32.45-9.95 32.8-10.45Q33.5-11.4 33.45-11.65L33.45-11.65 33.3-12.1Q33.1-12.7 31.65-12.98 30.2-13.25 29.3-13.25L29.3-13.25Q24.8-6.9 24.1-6 23.4-5.1 23.15-5.25 22.9-5.4 22.9-5.6 22.9-5.8 23.2-6.2L23.2-6.2Q25.9-9.5 27.85-13.25L27.85-13.25Q27.25-13.35 26.95-13.68 26.65-14 26.9-14.78 27.15-15.55 28.42-16.85 29.7-18.15 30.65-18.6 31.6-19.05 31.85-19.15 32.1-19.25 32.4-19.25L32.4-19.25Q33-19.25 32-17.45L32-17.45 30.05-14.35Q32.3-14.2 33.9-14.2L33.9-14.2 35.65-14.25Q36.5-14.25 36.9-14.03 37.3-13.8 37.1-13.25L37.1-13.25Q36.75-12.3 35.35-10.7L35.35-10.7Q32.35-7.2 30.85-3.25L30.85-3.25Q30.5-2.3 30.5-1.6L30.5-1.6Q30.5-0.15 31.55-0.15L31.55-0.15Q31.9-0.15 32.87-0.7 33.85-1.25 36.15-3.33 38.45-5.4 39.85-7.4L39.85-7.4Q40.05-7.65 40.32-7.53 40.6-7.4 40.6-7.28 40.6-7.15 40.5-7L40.5-7Q39.75-5.65 37.8-3.55 35.85-1.45 34-0.15L34-0.15Q32.2 1.25 30.1 1.25ZM44.05-13.85L44.05-13.85Q45.3-13.85 45.55-13.05L45.55-13.05Q45.65-12.6 45.42-12.18 45.2-11.75 45.1-11.5 45-11.25 44.95-11.1L44.95-11.1Q44.7-10.6 44.45-10.15L44.45-10.15Q41.6-4.45 41.45-2.9L41.45-2.9Q41.4-2.45 41.4-1.75 41.4-1.05 41.8-0.6L41.8-0.6Q42.5 0.2 43.8-0.5 45.1-1.2 47.42-3.3 49.75-5.4 51.2-7.4L51.2-7.4Q51.4-7.65 51.65-7.53 51.9-7.4 51.9-7.28 51.9-7.15 51.8-7L51.8-7Q51.05-5.65 49.1-3.55L49.1-3.55Q45.9-0.1 43.75 0.7L43.75 0.7Q42.5 1.15 41.65 1.15L41.65 1.15Q39.65 1.15 39-0.75L39-0.75Q38.9-1.1 38.9-1.6L38.9-1.6Q38.9-3.35 40.5-6.9L40.5-6.9Q40.25-6.35 38.55-4.4L38.55-4.4Q38.1-3.9 37.85-4.4L37.85-4.4Q37.8-4.5 37.8-4.67 37.8-4.85 38-5.1L38-5.1Q40.45-8.15 41.85-10.25L41.85-10.25Q41.75-10.5 41.95-10.9L41.95-10.9Q42.95-13.7 43.7-13.85L43.7-13.85Q43.85-13.85 44.05-13.85ZM48-20.5L48-20.5 47.6-18.9Q47.6-18.45 46.95-17.45 46.3-16.45 45.95-16.45L45.95-16.45Q43.8-16.45 43.8-17.5L43.8-17.5Q43.8-17.7 45.95-19.35L45.95-19.35 46.8-20Q47.6-20.7 47.8-20.7 48-20.7 48-20.5ZM51.04 0.5L51.04 0.5Q50.39 1.25 50.77 1.7 51.14 2.15 51.62 2.15 52.09 2.15 52.59 2L52.59 2Q54.74 1.35 56.77-0.58 58.79-2.5 58.79-4.5L58.79-4.5Q58.79-5.6 56.34-6.9L56.34-6.9Q55.19-7.5 55.04-7.6L55.04-7.6Q53.69-8.5 53.34-9.4L53.34-9.4Q52.64-8.2 51.09-5.95L51.09-5.95Q50.74-5.55 50.44-5.78 50.14-6 50.39-6.4L50.39-6.4Q52.44-9.2 53.09-11.1L53.09-11.1Q53.44-13.85 57.09-16.05 60.74-18.25 63.74-18.25L63.74-18.25Q65.64-18.25 66.42-17.57 67.19-16.9 67.19-16.25 67.19-15.6 66.82-14.75 66.44-13.9 65.29-13.15L65.29-13.15Q64.99-12.95 64.79-13.25L64.79-13.25Q64.69-13.55 65.22-14.08 65.74-14.6 65.89-15.5 66.04-16.4 65.09-16.6L65.09-16.6Q64.94-16.6 64.79-16.6L64.79-16.6Q62.84-16.6 59.92-15.15 56.99-13.7 55.34-11.4L55.34-11.4Q54.69-10.55 54.69-9.68 54.69-8.8 55.89-8.1L55.89-8.1Q56.39-7.8 57.59-7.15 58.79-6.5 59.29-6.2 59.79-5.9 60.49-5.25 61.19-4.6 61.24-4.05L61.24-4.05Q61.49-2.55 59.84-0.75L59.84-0.75Q57.49 1.85 52.84 2.9L52.84 2.9Q51.79 3.15 50.72 3.15 49.64 3.15 49.24 2.35L49.24 2.35Q49.09 2.15 49.09 1.73 49.09 1.3 49.89 0.35L49.89 0.35Q50.64-0.4 52.29-1.1L52.29-1.1Q52.44-1.15 52.54-1.05 52.64-0.95 52.59-0.8 52.54-0.65 52.07-0.45 51.59-0.25 51.04 0.5ZM72.14-9.7L72.14-9.7 79.54-9.75Q82.29-9.75 82.29-9.15L82.29-9.15Q82.29-8.15 71.64-7.9L71.64-7.9Q71.49-7.9 71.39-7.9L71.39-7.9Q70.49-7.9 70.49-8.35L70.49-8.35Q70.49-9.05 71.59-9.55L71.59-9.55Q71.89-9.7 72.14-9.7ZM98.19-13.5L98.19-13.5Q99.09-13.5 100.34-12.58 101.59-11.65 101.74-10.75L101.74-10.75Q101.79-10.4 101.79-10.1L101.79-10.1Q101.79-7.85 99.59-5.28 97.39-2.7 94.64-0.9L94.64-0.9Q90.39 2 86.19 2L86.19 2Q84.49 2 83.49 1.55L83.49 1.55Q82.69 1.15 85.49 1.15L85.49 1.15Q88.54 1.15 93.39-2.45L93.39-2.45Q98.09-5.75 99.09-10.35L99.09-10.35Q99.24-11.05 99.06-11.78 98.89-12.5 98.19-12.5L98.19-12.5Q95.94-12.5 92.29-9.35L92.29-9.35Q90.74-8.05 89.11-5.85 87.49-3.65 87.49-2.25L87.49-2.25Q87.49-2.05 87.56-1.83 87.64-1.6 87.39-1.1L87.39-1.1Q86.74 0.2 85.54-1.25L85.54-1.25Q85.24-2 85.24-2.8L85.24-2.8Q85.24-5.1 85.94-7.65L85.94-7.65Q85.74-7.45 85.06-6.43 84.39-5.4 83.49-4.4L83.49-4.4Q83.04-3.9 82.79-4.4L82.79-4.4Q82.74-4.5 82.74-4.67 82.74-4.85 82.94-5.1L82.94-5.1Q86.84-9.95 87.49-11.4L87.49-11.4Q88.39-13.9 90.24-17.93 92.09-21.95 93.64-24.35L93.64-24.35Q96.84-29.4 100.24-29.4L100.24-29.4Q100.84-29.4 101.49-29.25L101.49-29.25 102.49-28.9Q103.94-28.05 103.94-26.73 103.94-25.4 103.14-23.85L103.14-23.85Q101.84-21.2 97.54-17.18 93.24-13.15 89.19-10.35L89.19-10.35Q88.19-8.55 87.64-5.65L87.64-5.65Q89.49-8.4 92.46-10.95 95.44-13.5 98.19-13.5ZM96.59-18L96.59-18Q102.54-24 102.54-26.9L102.54-26.9Q102.54-28.1 101.64-28.1L101.64-28.1Q100.94-28.1 99.74-27.2L99.74-27.2Q94.59-23.25 89.74-12.35L89.74-12.35Q93.14-14.6 96.59-18ZM121.03-25.5L121.03-25.5Q121.64-26.6 121.64-27.2L121.64-27.2Q121.64-28.25 120.78-28.25L120.78-28.25Q120.09-28.25 119.03-27.45L119.03-27.45Q115.03-24.35 111.28-17.65L111.28-17.65Q108.28-12.25 106.89-8.4L106.89-8.4Q110.34-10.75 114.61-16.05 118.89-21.35 121.03-25.5ZM106.14-6.4L106.14-6.4Q105.53-4.7 105.48-4.13 105.44-3.55 105.44-2.58 105.44-1.6 105.94-0.8L105.94-0.8Q106.78 0.55 108.78-0.6L108.78-0.6Q110.28-1.4 112.59-3.53 114.89-5.65 116.14-7.4L116.14-7.4Q116.23-7.55 116.44-7.55L116.44-7.55Q116.89-7.55 116.69-6.9L116.69-6.9Q115.94-5.55 113.91-3.45 111.89-1.35 110.23-0.13 108.59 1.1 106.94 1.1L106.94 1.1Q103.14 1.1 103.14-2.6L103.14-2.6Q103.14-2.75 103.14-2.9L103.14-2.9Q103.34-6.4 106.69-13.48 110.03-20.55 112.73-24.15L112.73-24.15 114.28-26.1Q114.84-26.75 115.89-27.7L115.89-27.7Q117.89-29.6 120.01-29.6 122.14-29.6 122.89-28.3L122.89-28.3Q123.14-27.85 123.14-27 123.14-26.15 122.39-24.6L122.39-24.6Q117.23-15.65 106.14-6.4ZM125.78-5.5L125.78-5.5Q126.68-7.35 126.68-8.35 126.68-9.35 126.46-9.93 126.23-10.5 126.66-10.9 127.08-11.3 127.73-11.2L127.73-11.2Q128.73-10.95 128.73-8.95 128.73-6.95 126.38-3.7L126.38-3.7Q126.43-2.35 127.78-2.35 129.13-2.35 131.88-5.25L131.88-5.25Q133.18-6.75 133.51-7.2 133.83-7.65 134.08-7.53 134.33-7.4 134.33-7.3L134.33-7.3Q134.33-6.8 132.53-4.7L132.53-4.7Q129.68-1.2 127.48-1.2L127.48-1.2Q126.03-1.2 125.43-2.45L125.43-2.45Q124.43-1.4 123.48-0.5L123.48-0.5Q121.53 1.15 119.13 1.15L119.13 1.15Q117.78 1.15 116.88 0.5L116.88 0.5Q115.13-0.55 115.13-3.25L115.13-3.25Q115.13-6.2 117.13-9.25L117.13-9.25Q118.28-11.05 119.83-12.4L119.83-12.4Q122.28-14.55 124.48-14.55L124.48-14.55Q125.03-14.55 125.53-14.4L125.53-14.4Q127.03-13.9 127.03-12.5L127.03-12.5Q127.03-11.35 126.43-11.35L126.43-11.35Q126.18-11.45 126.18-12.1L126.18-12.1Q126.18-13 125.18-13L125.18-13Q123.43-13 120.68-9.8 117.93-6.6 117.38-3.35L117.38-3.35Q117.28-2.8 117.28-2.13 117.28-1.45 117.73-0.58 118.18 0.3 119.41 0.3 120.63 0.3 122.08-0.8 123.53-1.9 124.68-3.6L124.68-3.6 124.53-3.9Q124.33-4.7 124.73-5.2 125.13-5.7 125.78-5.5ZM131.63 19.05L131.63 19.05Q131.23 19.05 130.63 18.9L130.63 18.9Q128.08 18.25 128.08 16.23 128.08 14.2 130.71 11.15 133.33 8.1 141.78 2.5L141.78 2.5Q145.38-4.85 146.78-9.15L146.78-9.15Q143.98-5.75 142.78-4.45L142.78-4.45Q138.28 0.55 135.53 0.55L135.53 0.55Q134.73 0.55 133.81 0.08 132.88-0.4 132.23-1.28 131.58-2.15 131.58-3.15L131.58-3.15Q131.58-5.8 135.28-9.1L135.28-9.1Q137.48-11.1 139.88-12.5 142.28-13.9 143.68-14.25 145.08-14.6 146.38-14.6 147.68-14.6 148.68-13.9 149.68-13.2 149.68-12.5L149.68-12.5Q149.68-12.1 149.28-12.25L149.28-12.25Q148.73-13.2 146.86-13.2 144.98-13.2 142.61-11.98 140.23-10.75 138.33-9.08 136.43-7.4 135.11-5.28 133.78-3.15 133.78-2.15L133.78-2.15Q133.78-0.4 134.78-0.4L134.78-0.4Q136.18-0.4 139.08-2.7L139.08-2.7Q143.38-6.05 147.33-10.85L147.33-10.85Q147.98-11.8 150.03-10.8L150.03-10.8Q150.83-10.4 150.68-10.1L150.68-10.1Q150.03-8.65 148.31-5.08 146.58-1.5 145.73 0.3L145.73 0.3Q146.88-0.3 149.66-2.73 152.43-5.15 154.53-7.6L154.53-7.6Q155.63-8.9 155.63-8L155.63-8Q155.63-6.75 149.63-1.4L149.63-1.4Q146.18 1.7 144.73 2.5L144.73 2.5Q140.48 11.25 139.03 13.5L139.03 13.5Q135.28 19.05 131.63 19.05ZM140.83 4.4L140.83 4.4Q134.83 8.9 132.23 11.53 129.63 14.15 129.63 16.45L129.63 16.45Q129.63 17.15 130.08 17.45 130.53 17.75 131.03 17.75 131.53 17.75 132.48 17 133.43 16.25 134.11 15.53 134.78 14.8 135.28 14.18 135.78 13.55 136.41 12.58 137.03 11.6 137.38 11.05 137.73 10.5 138.36 9.33 138.98 8.15 139.21 7.73 139.43 7.3 140.06 6 140.68 4.7 140.83 4.4Z"
		opacity="1" transform="matrix(1,0,0,1,0,0)" fill="#ffffff" class="wordmark-text-0"
		data-fill-palette-color="quaternary" id="text-0"></path>
</svg>
