<svg width="283.98335999999995" viewBox="0.4000000059604645 -29.5 66.79000091552734 32.650001525878906"
		 height="138.80324407185623" data-palette-color="#ffffff">
	<path
		d="M9.8-20.4L9.8-20.4Q9.8-19.6 10.23-19 10.65-18.4 11-18.15L11-18.15Q11.7-17.7 12.8-17.15L12.8-17.15Q13.4-16.7 13.05-16.6L13.05-16.6Q12.9-16.6 12.7-16.65L12.7-16.65Q11.5-16.9 10.15-18.1 8.8-19.3 8.75-20.85L8.75-20.85Q8.6-21.4 8.6-21.8L8.6-21.8Q8.6-23.95 10.4-25.55L10.4-25.55Q13.75-28.4 21.05-28.4L21.05-28.4Q21.05-28.6 21.2-28.9L21.2-28.9Q21.3-29.5 22.75-29.5L22.75-29.5Q24-29.5 23.95-28.9L23.95-28.9Q23.75-28.5 23.7-28.25L23.7-28.25Q26.9-28.05 29.05-26.95L29.05-26.95Q29.75-26.6 30.08-26.1 30.4-25.6 30.4-25.4L30.4-25.4Q30.4-24.95 28.58-25.58 26.75-26.2 23-26.2L23-26.2Q22.75-25.15 21.28-20.9 19.8-16.65 19.4-15.63 19-14.6 18.3-12.78 17.6-10.95 17.05-9.8 16.5-8.65 15.8-7.2L15.8-7.2Q14.6-4.75 12.95-2.6L12.95-2.6Q11.7-1.15 11.05-0.65L11.05-0.65Q11.9-0.65 14.35-0.65 16.8-0.65 18.65-0.78 20.5-0.9 20.68-0.75 20.85-0.6 20.7-0.4L20.7-0.4Q20.4 0.1 19.9 0.38 19.4 0.65 12.55 0.85 5.7 1.05 4 1.05 2.3 1.05 1.55 1.05L1.55 1.05Q0.4 1 0.4 0.15L0.4 0.15Q0.4-0.3 0.7-1.1L0.7-1.1Q1.05-1.9 2.08-2.13 3.1-2.35 3.9-1.7L3.9-1.7Q5.25-0.6 6.55-0.6 7.85-0.6 9.22-1.1 10.6-1.6 12-3.4L12-3.4Q16.05-8.8 20.5-26.15L20.5-26.15Q15.9-25.75 12.85-24.28 9.8-22.8 9.8-20.4ZM30.1 1.25L30.1 1.25Q27.55 1.25 27.55-1.83 27.55-4.9 31.95-9.4L31.95-9.4Q32.3-9.75 32.45-9.95L32.45-9.95 32.8-10.45Q33.5-11.4 33.45-11.65L33.45-11.65 33.3-12.1Q33.1-12.7 31.65-12.98 30.2-13.25 29.3-13.25L29.3-13.25Q24.8-6.9 24.1-6 23.4-5.1 23.15-5.25 22.9-5.4 22.9-5.6 22.9-5.8 23.2-6.2L23.2-6.2Q25.9-9.5 27.85-13.25L27.85-13.25Q27.25-13.35 26.95-13.68 26.65-14 26.9-14.78 27.15-15.55 28.42-16.85 29.7-18.15 30.65-18.6 31.6-19.05 31.85-19.15 32.1-19.25 32.4-19.25L32.4-19.25Q33-19.25 32-17.45L32-17.45 30.05-14.35Q32.3-14.2 33.9-14.2L33.9-14.2 35.65-14.25Q36.5-14.25 36.9-14.03 37.3-13.8 37.1-13.25L37.1-13.25Q36.75-12.3 35.35-10.7L35.35-10.7Q32.35-7.2 30.85-3.25L30.85-3.25Q30.5-2.3 30.5-1.6L30.5-1.6Q30.5-0.15 31.55-0.15L31.55-0.15Q31.9-0.15 32.87-0.7 33.85-1.25 36.15-3.33 38.45-5.4 39.85-7.4L39.85-7.4Q40.05-7.65 40.32-7.53 40.6-7.4 40.6-7.28 40.6-7.15 40.5-7L40.5-7Q39.75-5.65 37.8-3.55 35.85-1.45 34-0.15L34-0.15Q32.2 1.25 30.1 1.25ZM44.05-13.85L44.05-13.85Q45.3-13.85 45.55-13.05L45.55-13.05Q45.65-12.6 45.42-12.18 45.2-11.75 45.1-11.5 45-11.25 44.95-11.1L44.95-11.1Q44.7-10.6 44.45-10.15L44.45-10.15Q41.6-4.45 41.45-2.9L41.45-2.9Q41.4-2.45 41.4-1.75 41.4-1.05 41.8-0.6L41.8-0.6Q42.5 0.2 43.8-0.5 45.1-1.2 47.42-3.3 49.75-5.4 51.2-7.4L51.2-7.4Q51.4-7.65 51.65-7.53 51.9-7.4 51.9-7.28 51.9-7.15 51.8-7L51.8-7Q51.05-5.65 49.1-3.55L49.1-3.55Q45.9-0.1 43.75 0.7L43.75 0.7Q42.5 1.15 41.65 1.15L41.65 1.15Q39.65 1.15 39-0.75L39-0.75Q38.9-1.1 38.9-1.6L38.9-1.6Q38.9-3.35 40.5-6.9L40.5-6.9Q40.25-6.35 38.55-4.4L38.55-4.4Q38.1-3.9 37.85-4.4L37.85-4.4Q37.8-4.5 37.8-4.67 37.8-4.85 38-5.1L38-5.1Q40.45-8.15 41.85-10.25L41.85-10.25Q41.75-10.5 41.95-10.9L41.95-10.9Q42.95-13.7 43.7-13.85L43.7-13.85Q43.85-13.85 44.05-13.85ZM48-20.5L48-20.5 47.6-18.9Q47.6-18.45 46.95-17.45 46.3-16.45 45.95-16.45L45.95-16.45Q43.8-16.45 43.8-17.5L43.8-17.5Q43.8-17.7 45.95-19.35L45.95-19.35 46.8-20Q47.6-20.7 47.8-20.7 48-20.7 48-20.5ZM51.04 0.5L51.04 0.5Q50.39 1.25 50.77 1.7 51.14 2.15 51.62 2.15 52.09 2.15 52.59 2L52.59 2Q54.74 1.35 56.77-0.58 58.79-2.5 58.79-4.5L58.79-4.5Q58.79-5.6 56.34-6.9L56.34-6.9Q55.19-7.5 55.04-7.6L55.04-7.6Q53.69-8.5 53.34-9.4L53.34-9.4Q52.64-8.2 51.09-5.95L51.09-5.95Q50.74-5.55 50.44-5.78 50.14-6 50.39-6.4L50.39-6.4Q52.44-9.2 53.09-11.1L53.09-11.1Q53.44-13.85 57.09-16.05 60.74-18.25 63.74-18.25L63.74-18.25Q65.64-18.25 66.42-17.57 67.19-16.9 67.19-16.25 67.19-15.6 66.82-14.75 66.44-13.9 65.29-13.15L65.29-13.15Q64.99-12.95 64.79-13.25L64.79-13.25Q64.69-13.55 65.22-14.08 65.74-14.6 65.89-15.5 66.04-16.4 65.09-16.6L65.09-16.6Q64.94-16.6 64.79-16.6L64.79-16.6Q62.84-16.6 59.92-15.15 56.99-13.7 55.34-11.4L55.34-11.4Q54.69-10.55 54.69-9.68 54.69-8.8 55.89-8.1L55.89-8.1Q56.39-7.8 57.59-7.15 58.79-6.5 59.29-6.2 59.79-5.9 60.49-5.25 61.19-4.6 61.24-4.05L61.24-4.05Q61.49-2.55 59.84-0.75L59.84-0.75Q57.49 1.85 52.84 2.9L52.84 2.9Q51.79 3.15 50.72 3.15 49.64 3.15 49.24 2.35L49.24 2.35Q49.09 2.15 49.09 1.73 49.09 1.3 49.89 0.35L49.89 0.35Q50.64-0.4 52.29-1.1L52.29-1.1Q52.44-1.15 52.54-1.05 52.64-0.95 52.59-0.8 52.54-0.65 52.07-0.45 51.59-0.25 51.04 0.5Z"
		opacity="1" transform="matrix(1,0,0,1,0,0)" fill="#ffffff" class="wordmark-text-0"
		data-fill-palette-color="quaternary" id="text-0"></path>
</svg>
