<?xml version="1.0" standalone="no"?><!DOCTYPE svg PUBLIC "-//W3C//DTD SVG 1.1//EN"
	"http://www.w3.org/Graphics/SVG/1.1/DTD/svg11.dtd">
<svg t="1723180356574" class="icon" viewBox="0 0 1024 1024" version="1.1" xmlns="http://www.w3.org/2000/svg"
		 p-id="13486" width="128" height="128">
	<path
		d="M620.778667 234.666667l-102.122667-81.706667q-6.656-5.312-13.312 0L403.2 234.666667H620.8z m-320 0l164.586666-131.669334q20.437333-16.362667 46.634667-16.362666t46.634667 16.362666L723.221333 234.666667H810.666667a128 128 0 0 1 128 128v12.8a8.533333 8.533333 0 0 1-8.533334 8.533333h-46.933333a8.533333 8.533333 0 0 1-8.533333-8.533333V362.666667q0-26.517333-18.752-45.248Q837.184 298.666667 810.666667 298.666667H213.333333q-26.517333 0-45.248 18.752Q149.333333 336.149333 149.333333 362.666667v448q0 26.517333 18.752 45.248Q186.816 874.666667 213.333333 874.666667h204.8c4.693333 0 8.533333 3.84 8.533334 8.533333v46.933333a8.533333 8.533333 0 0 1-8.533334 8.533334H213.333333a128 128 0 0 1-128-128V362.666667a128 128 0 0 1 128-128h87.445334z m662.549333 274.026666a134.442667 134.442667 0 0 1-0.021333 190.08L708.650667 953.472a22.4 22.4 0 0 1-15.850667 6.528H556.8a44.8 44.8 0 0 1-44.8-44.8v-135.978667c0-5.952 2.346667-11.648 6.549333-15.872l254.72-254.656a134.4 134.4 0 0 1 190.058667 0zM277.333333 499.2v46.933333c0 4.693333 3.84 8.533333 8.533334 8.533334h260.266666a8.533333 8.533333 0 0 0 8.533334-8.533334v-46.933333a8.533333 8.533333 0 0 0-8.533334-8.533333H285.866667a8.533333 8.533333 0 0 0-8.533334 8.533333z m546.304 54.293333l-2.901333 2.688-23.466667 23.488 95.04 95.061334 23.466667-23.466667a67.2 67.2 0 0 0 2.730667-92.16l-2.688-2.88v-0.042667a67.2 67.2 0 0 0-92.181334-2.688zM277.333333 627.2v46.933333c0 4.693333 3.84 8.533333 8.533334 8.533334h132.266666a8.533333 8.533333 0 0 0 8.533334-8.533334v-46.933333a8.533333 8.533333 0 0 0-8.533334-8.533333h-132.266666a8.533333 8.533333 0 0 0-8.533334 8.533333z m473.002667-0.618667l-168.512 168.554667a8.96 8.96 0 0 0-2.624 6.357333v82.389334c0 4.949333 4.010667 8.96 8.96 8.96h82.346667a8.96 8.96 0 0 0 6.336-2.645334l168.533333-168.554666-95.04-95.061334z"
		fill="#000000" p-id="13487"></path>
</svg>
