<?xml version="1.0" standalone="no"?><!DOCTYPE svg PUBLIC "-//W3C//DTD SVG 1.1//EN" "http://www.w3.org/Graphics/SVG/1.1/DTD/svg11.dtd"><svg t="1727343644009" class="icon" viewBox="0 0 1024 1024" version="1.1" xmlns="http://www.w3.org/2000/svg" p-id="10945" xmlns:xlink="http://www.w3.org/1999/xlink" width="64" height="64"><path d="M159.9488 415.9488h704c17.7152 0 31.9488 14.336 31.9488 31.9488v512c0 17.7152-14.336 31.9488-31.9488 31.9488H159.9488c-17.7152 0-31.9488-14.336-31.9488-31.9488v-512c0-17.6128 14.336-31.9488 31.9488-31.9488z" fill="#F0EEE2" p-id="10946"></path><path d="M143.9744 911.9744v64h736.0512v-64H143.9744z m336.0768-207.9744v31.9488c0.4096 26.5216 22.2208 47.7184 48.7424 47.3088 26.0096-0.4096 46.8992-21.2992 47.3088-47.3088v-31.9488c35.328-26.5216 42.496-76.6976 15.9744-112.0256s-76.6976-42.496-112.0256-15.9744-42.496 76.6976-15.9744 112.0256c4.5056 6.0416 9.8304 11.4688 15.9744 15.9744z" fill="#BBAA9C" p-id="10947"></path><path d="M880.0256 799.9488h-96.0512c-8.8064 0-15.9744 7.168-15.9744 15.9744s7.168 15.9744 15.9744 15.9744h96.0512c8.8064 0 15.9744-7.168 15.9744-15.9744s-7.168-15.9744-15.9744-15.9744zM608.0512 944.0256h-64c-8.8064 0-15.9744 7.168-15.9744 15.9744s7.168 15.9744 15.9744 15.9744h64c8.8064 0 15.9744-7.168 15.9744-15.9744s-7.168-15.9744-15.9744-15.9744zM640 480.0512h-48.0256c-8.8064 0.2048-15.7696 7.5776-15.5648 16.384 0.2048 8.4992 7.0656 15.36 15.5648 15.5648H640c8.8064 0.2048 16.1792-6.7584 16.384-15.5648s-6.7584-16.1792-15.5648-16.384c-0.3072-0.1024-0.512-0.1024-0.8192 0zM224.0512 704c0-8.8064-7.168-15.9744-15.9744-15.9744h-64c-8.8064 0.2048-15.7696 7.5776-15.5648 16.384 0.2048 8.4992 7.0656 15.36 15.5648 15.5648h64c8.8064 0 15.9744-7.168 15.9744-15.9744z m591.9744-79.9744c0-8.8064-7.168-15.9744-15.9744-15.9744h-64c-8.8064 0-15.9744 7.168-15.9744 15.9744s7.168 15.9744 15.9744 15.9744h64c8.8064 0 15.9744-7.168 15.9744-15.9744zM352.0512 512h-15.9744c-8.8064 0-15.9744 7.168-15.9744 15.9744s7.168 15.9744 15.9744 15.9744h15.9744c8.8064 0 15.9744-7.168 15.9744-15.9744s-7.168-15.9744-15.9744-15.9744z m0 287.9488h-15.9744c-8.8064 0-15.9744 7.168-15.9744 15.9744s7.168 15.9744 15.9744 15.9744h15.9744c8.8064 0 15.9744-7.168 15.9744-15.9744s-7.168-15.9744-15.9744-15.9744zM256 911.9744h-31.9488c-8.8064 0.2048-15.7696 7.5776-15.5648 16.384 0.2048 8.4992 7.0656 15.36 15.5648 15.5648H256c8.8064 0.2048 16.1792-6.7584 16.384-15.5648s-6.7584-16.1792-15.5648-16.384h-0.8192z" fill="#D8D5BA" p-id="10948"></path><path d="M463.9744 711.5776v24.4736c0 35.328 28.672 64 64 64s64-28.672 64-64v-24.4736c39.5264-35.328 42.9056-96.0512 7.5776-135.5776-35.328-39.5264-96.0512-42.9056-135.5776-7.5776-39.5264 35.328-42.9056 96.0512-7.5776 135.5776 2.4576 2.6624 4.9152 5.12 7.5776 7.5776z m64-135.5776c35.328 0 64 28.672 64 64 0 22.8352-12.1856 44.032-32.0512 55.5008v40.5504c0 17.7152-14.336 31.9488-31.9488 31.9488s-31.9488-14.336-31.9488-31.9488v-40.5504c-30.6176-17.6128-41.1648-56.832-23.4496-87.4496 11.3664-19.8656 32.5632-32.0512 55.3984-32.0512zM864.0512 384H768V256C768 114.5856 653.4144 0 512 0S256 114.5856 256 256v128h-96.0512c-35.328 0-64 28.672-64 64v512c0 35.328 28.672 64 64 64h704c35.328 0 64-28.672 64-64v-512c0-35.328-28.5696-64-63.8976-64zM320 256c0-106.0864 86.016-192 192-192S704 149.9136 704 256v128h-384V256z m544.0512 704H159.9488v-31.9488h704v31.9488z m0-64H159.9488V448h704V896z" fill="#5F4E56" p-id="10949"></path></svg>