<?xml version="1.0" standalone="no"?><!DOCTYPE svg PUBLIC "-//W3C//DTD SVG 1.1//EN" "http://www.w3.org/Graphics/SVG/1.1/DTD/svg11.dtd">
<svg t="1727068935941" class="icon" viewBox="0 0 1024 1024" version="1.1" xmlns="http://www.w3.org/2000/svg"
		 p-id="48120"
		 width="48" height="48"><path d="M337.408 729.6a13.824 13.824 0 0 0-14.336 15.36 119.808 119.808 0 0 0 122.88 107.52 122.88 122.88 0 0 0 125.44-102.4 15.872 15.872 0 0 0-15.36-18.944z m262.656-536.576a147.968 147.968 0 0 0-153.6-141.824 147.968 147.968 0 0 0-153.6 141.824v339.456a238.08 238.08 0 0 0-109.056 197.12A256 256 0 0 0 446.464 972.8a256 256 0 0 0 262.656-243.2 237.568 237.568 0 0 0-109.056-197.12zM245.248 729.6A185.344 185.344 0 0 1 354.304 563.2V193.024a89.088 89.088 0 0 1 92.16-84.992 89.088 89.088 0 0 1 92.16 84.992V563.2a184.832 184.832 0 0 1 109.056 165.376 194.048 194.048 0 0 1-201.216 186.368 194.048 194.048 0 0 1-201.216-186.368z m0 0" p-id="48121" fill="#1296db"></path><path d="M873.984 399.872l-48.128-27.648 48.128-27.648a35.328 35.328 0 0 0 18.432-46.08 35.328 35.328 0 0 0-51.2-7.168l-48.128 27.648V263.68a35.328 35.328 0 0 0-30.208-38.912 35.328 35.328 0 0 0-30.208 38.912v55.808l-46.592-27.648a35.328 35.328 0 0 0-51.2 6.656 35.328 35.328 0 0 0 18.432 46.08l48.128 27.648-48.128 27.648a35.328 35.328 0 0 0-18.432 46.08 35.328 35.328 0 0 0 51.2 7.168l48.128-27.648v55.296a35.328 35.328 0 0 0 30.208 38.912 35.328 35.328 0 0 0 30.208-38.912V424.96l48.128 27.648a35.328 35.328 0 0 0 51.2-7.168 35.328 35.328 0 0 0-18.432-46.08z m0 0" p-id="48122" fill="#1296db"></path></svg>
