<?xml version="1.0" standalone="no"?><!DOCTYPE svg PUBLIC "-//W3C//DTD SVG 1.1//EN" "http://www.w3.org/Graphics/SVG/1.1/DTD/svg11.dtd"><svg t="1727586433150" class="icon" viewBox="0 0 1024 1024" version="1.1" xmlns="http://www.w3.org/2000/svg" p-id="2262" xmlns:xlink="http://www.w3.org/1999/xlink" width="64" height="64"><path d="M512 64c16.554667 0 29.994667 13.44 29.994667 29.994667v36.010666a265.216 265.216 0 0 1 250.026666 264.789334v201.941333a29.994667 29.994667 0 0 0 14.08 25.429333l48.896 30.592a138.24 138.24 0 0 1 64.981334 117.248 90.026667 90.026667 0 0 1-89.984 90.026667h-191.488a130.048 130.048 0 0 1-253.013334 0H194.005333a90.026667 90.026667 0 0 1-90.026666-90.026667 138.24 138.24 0 0 1 64.981333-117.248l48.938667-30.549333a29.994667 29.994667 0 0 0 14.08-25.472V394.794667a265.216 265.216 0 0 1 250.026666-264.789334v-36.010666c0-16.554667 13.44-29.994667 29.994667-29.994667z m63.274667 795.989333h-126.549334a70.016 70.016 0 0 0 126.549334 0zM526.805333 189.568h-29.610666a205.226667 205.226667 0 0 0-205.226667 205.226667v201.941333a90.026667 90.026667 0 0 1-42.24 76.330667l-48.938667 30.592a78.208 78.208 0 0 0-36.778666 66.346666c0 16.554667 13.44 29.994667 29.994666 29.994667h635.989334a29.994667 29.994667 0 0 0 29.994666-29.994667c0-27.008-13.866667-52.053333-36.778666-66.346666l-48.896-30.592a90.026667 90.026667 0 0 1-42.325334-76.330667V394.794667a205.226667 205.226667 0 0 0-205.226666-205.226667z" fill="#000000" p-id="2263" data-spm-anchor-id="a313x.search_index.0.i10.2c303a81EDe3XP" class="selected"></path><path d="M896 128m-128 0a128 128 0 1 0 256 0 128 128 0 1 0-256 0Z" fill="#FF5151" p-id="2264"></path></svg>