<?xml version="1.0" standalone="no"?><!DOCTYPE svg PUBLIC "-//W3C//DTD SVG 1.1//EN"
	"http://www.w3.org/Graphics/SVG/1.1/DTD/svg11.dtd">
<svg t="1725962238161" class="icon" viewBox="0 0 1024 1024" version="1.1" xmlns="http://www.w3.org/2000/svg" p-id="6168"
		 width="128" height="128">
	<path
		d="M512.5681755 3.6315227c-280.7266725 0-508.30211299 227.57427541-508.30211299 508.302113s227.57427541 508.30211299 508.30211299 508.30211299 508.30094791-227.57427541 508.30094791-508.30211299S793.29484914 3.6315227 512.5681755 3.6315227zM444.32651491 712.69303069l-0.07451534 0.06287246c-8.02315719 6.83208363-13.30090667 13.75614635-16.70996309 20.28318378-5.73881003-0.01047893-11.3623552-0.31785301-16.97076451-0.79404942-49.61876195 27.72186567-135.01747541 18.49715598-156.10285967-0.3620955-16.31177387-14.56067357-15.46300302-33.57361266 3.77115193-49.95291478 5.09728427-4.29857678 14.07283427-8.03247104 24.43855303-11.18538296-16.90090723-18.43544747-29.73958827-40.17982237-37.41578581-63.94890582-4.47904313 7.10802091-8.51216157 13.63505949-11.18421788 18.3399754-10.38201856 18.31086877-23.00414179 20.08176071-30.20064882 0.26778738-8.00336441-21.96442567-5.26959957-55.56947399 9.46804736-93.55343645 9.11410176-23.46869533 24.36287374-43.37697678 35.48654933-56.24360163-4.10996167-7.20000114-6.45834411-14.73066098-6.45834411-22.52910934 0-16.28383005 9.57749134-31.47089579 25.99987314-44.52380672 8.35731001-84.35783339 76.52911331-150.14050475 159.45253547-150.14050474 44.08719701 0 84.01436672 18.61358478 112.99250631 48.72807651-12.68965149 7.16972942-24.60970439 15.95200626-35.47374137 26.25834667-30.86429753 29.27736377-50.92044459 68.49082027-57.02833607 111.17038478-22.21824227 20.36119211-27.11992434 40.86326386-27.11992434 54.98616263 0 6.43040142 1.03855104 12.84101006 3.09818937 19.17244644-13.73751751 17.44346795-24.05084274 34.92768768-30.72458183 52.11151815-16.30129493 42.01475072-19.71733618 80.41553123-9.62522681 108.11178098 8.10815033 22.32186425 22.21125632 26.76481479 29.89676885 27.42497052 11.33091954 0.96985771 20.26455495-4.55937934 26.79857949-11.2703761 2.68370034 4.74683051 5.57697365 9.38771115 8.67167004 13.91216184C447.48873955 710.20027563 445.83311246 711.42278485 444.32651491 712.69303069zM821.80610617 656.69509575c-6.31862955 17.34217501-17.36080384 15.79016989-26.45394774-0.23518777-2.34023253-4.12160455-5.87037582-9.83945785-9.79637816-16.06494321-6.68538197 20.71164473-17.82186439 39.63493262-32.5152677 55.72781852 9.48434717 2.84553671 17.69728455 6.18357077 22.31371434 10.0862885 16.8322139 14.34760761 17.5901696 31.00284814 3.31591226 43.75653717-18.48434802 16.51901781-93.41139171 24.61319737-136.84774799 0.27477333-5.31850013 0.46571747-10.7045285 0.74049195-16.15808625 0.74049195-5.11358407 0-10.12005205-0.27477333-15.11371435-0.69857735-43.46429895 24.28253753-118.26909184 16.20232989-136.73946795-0.31668793-14.28822926-12.75368789-13.54424434-29.40892843 3.30310542-43.75653717 4.46507122-3.76532992 12.32755598-7.03699968 21.4067291-9.79754326-14.80401123-16.14877241-26.04993763-35.19547506-32.77490517-56.01656376-3.92367445 6.22548537-7.45614563 11.94333867-9.79637817 16.06494321-9.09430898 16.03932843-20.15045405 17.59133355-26.45394773 0.23518777-7.01022094-19.23997582-4.61526585-48.67684807 8.2932736-81.94890752 7.98357163-20.55679317 21.34036366-37.99676928 31.08434944-49.26714538-3.60000057-6.30698667-5.65730987-12.90388253-5.65730987-19.73480107 0-14.26377842 8.38990962-27.56701411 22.77477604-39.00039168 7.31992291-73.89431353 67.03661625-131.51644103 139.67349191-131.51644103 72.61126087 0 132.34192611 57.63609827 139.66184903 131.51644103 14.37089337 11.43337757 22.77477603 24.73661213 22.77477604 39.00039168 0 6.83091854-2.04333739 13.4278144-5.65730987 19.73480107 9.74398578 11.28434802 23.11474973 28.70918713 31.08434944 49.26714538l-0.01397191 0C826.42137202 608.01824882 828.81632711 637.45511993 821.80610617 656.69509575z"
		fill="#1296db" p-id="6169"></path>
</svg>
