<?xml version="1.0" standalone="no"?><!DOCTYPE svg PUBLIC "-//W3C//DTD SVG 1.1//EN" "http://www.w3.org/Graphics/SVG/1.1/DTD/svg11.dtd">
<svg t="1727084824164" class="icon" viewBox="0 0 1024 1024" version="1.1" xmlns="http://www.w3.org/2000/svg"
     p-id="32834"
     width="64" height="64"><path d="M788.48 925.9008c-16.7936 10.6496-39.3216 5.7344-49.9712-11.0592l-509.952-803.4304c-10.6496-16.7936-5.7344-39.3216 11.0592-49.9712 16.7936-10.6496 39.3216-5.7344 49.9712 11.0592l510.1568 803.4304c10.4448 16.7936 5.5296 39.3216-11.264 49.9712z" fill="#A1E4FF" p-id="32835"></path><path d="M785.8176 54.6816c16.9984 10.24 22.528 32.5632 12.288 49.5616L308.224 920.1664c-10.24 16.9984-32.5632 22.528-49.5616 12.288-16.9984-10.24-22.528-32.5632-12.288-49.5616L736.256 67.1744c10.24-16.9984 32.5632-22.528 49.5616-12.4928z" fill="#A1E4FF" p-id="32836"></path><path d="M1024 501.9648c0 19.8656-16.1792 36.0448-36.0448 36.0448H36.2496C16.384 538.0096 0.2048 521.8304 0.2048 501.9648c0-19.8656 16.1792-36.0448 36.0448-36.0448h951.7056c19.8656-0.2048 36.0448 16.1792 36.0448 36.0448z" fill="#A1E4FF" p-id="32837"></path><path d="M395.4688 504.6272a133.5296 127.1808 90 1 0 254.3616 0 133.5296 127.1808 90 1 0-254.3616 0Z" fill="#A1E4FF" p-id="32838"></path><path d="M523.4688 583.4752c-20.6848 0-37.6832-16.9984-37.6832-37.6832v-82.7392c0-20.6848 16.9984-37.6832 37.6832-37.6832 20.6848 0 37.6832 16.9984 37.6832 37.6832v82.7392c0 20.8896-16.9984 37.6832-37.6832 37.6832z" fill="#FFFFFF" p-id="32839"></path><path d="M598.6304 504.6272c0 21.7088-17.8176 39.5264-39.5264 39.5264h-71.4752c-21.7088 0-39.5264-17.8176-39.5264-39.5264 0-21.7088 17.8176-39.5264 39.5264-39.5264H559.104c21.9136 0 39.5264 17.8176 39.5264 39.5264z" fill="#FFFFFF" p-id="32840"></path><path d="M559.3088 287.1296c0 45.8752-34.4064 82.944-34.4064 82.944s-34.4064-37.0688-34.4064-82.944 15.36-46.6944 34.4064-46.6944c18.8416 0 34.4064 0.8192 34.4064 46.6944z" fill="#A6F2FF" p-id="32841"></path><path d="M414.72 142.5408c-20.2752 31.744-54.4768 44.8512-54.4768 44.8512s-1.4336-38.2976 18.6368-70.0416 28.672-26.8288 38.5024-19.8656c9.8304 7.168 17.408 13.312-2.6624 45.056zM235.52 219.7504c35.6352-7.3728 68.8128 8.8064 68.8128 8.8064s-24.7808 28.2624-60.416 35.6352c-35.6352 7.3728-38.2976-2.4576-40.5504-14.7456-2.2528-12.288-3.4816-22.3232 32.1536-29.696zM786.2272 256.6144c-34.816-10.8544-56.9344-41.1648-56.9344-41.1648s34.4064-12.9024 69.2224-2.048 32.768 20.6848 29.4912 32.768-6.9632 21.2992-41.7792 10.4448zM650.0352 109.3632c20.8896 31.1296 20.48 69.4272 20.48 69.4272s-34.6112-12.288-55.5008-43.4176-13.5168-37.6832-3.8912-44.8512c9.6256-6.9632 17.8176-12.288 38.912 18.8416zM843.9808 610.304c-4.9152-37.888 12.4928-71.4752 12.4928-71.4752s25.1904 27.648 30.1056 65.536c4.9152 37.888-4.5056 39.936-16.384 41.5744-11.6736 1.4336-21.2992 2.048-26.2144-35.6352zM916.2752 419.4304c-18.432 32.768-52.0192 47.9232-52.0192 47.9232s-3.4816-38.0928 14.9504-71.0656c18.432-32.768 27.2384-28.2624 37.4784-21.9136 10.24 6.3488 18.2272 12.288-0.4096 45.056zM609.8944 835.9936c26.624-26.0096 62.8736-30.3104 62.8736-30.3104s-6.9632 37.6832-33.5872 63.488c-26.624 26.0096-33.792 19.0464-41.7792 9.8304-8.192-9.216-14.336-16.9984 12.4928-43.008zM803.0208 782.336c-35.4304 9.0112-69.0176-5.9392-69.0176-5.9392s23.552-29.2864 58.9824-38.0928c35.4304-9.0112 38.2976 0.8192 41.1648 12.9024 2.6624 12.288 4.096 22.3232-31.1296 31.1296zM245.1456 750.592c36.0448 4.7104 62.6688 30.9248 62.6688 30.9248s-31.9488 18.6368-67.9936 14.1312-35.6352-14.7456-34.2016-27.2384c1.4336-12.4928 3.4816-22.528 39.5264-17.8176zM408.7808 870.8096c-29.2864-22.528-40.3456-59.1872-40.3456-59.1872s36.4544 0 65.7408 22.7328c29.2864 22.528 24.1664 31.1296 17.2032 41.3696-6.9632 10.0352-13.312 17.8176-42.5984-4.9152zM189.44 394.6496c10.4448 36.4544-1.6384 72.704-1.6384 72.704S158.72 444.416 148.2752 407.7568c-10.4448-36.4544-1.4336-40.1408 9.8304-43.8272 11.4688-3.4816 20.8896-5.7344 31.3344 30.72zM150.528 600.4736c7.9872-37.2736 35.2256-62.464 35.2256-62.464s14.5408 35.0208 6.7584 72.2944c-7.9872 37.2736-17.408 35.84-29.0816 33.1776-11.6736-2.8672-20.8896-5.7344-12.9024-43.008z" fill="#A6EAFF" p-id="32842"></path><path d="M490.2912 721.3056c0-45.8752 34.4064-82.944 34.4064-82.944s34.4064 37.0688 34.4064 82.944-15.36 46.6944-34.4064 46.6944-34.4064-0.8192-34.4064-46.6944zM349.3888 380.928c39.1168 20.48 55.296 69.4272 55.296 69.4272s-47.104 15.7696-86.016-4.5056-32.9728-35.4304-24.3712-53.248 15.9744-31.9488 55.0912-11.6736zM697.344 635.0848c-41.1648-15.9744-62.6688-62.6688-62.6688-62.6688s44.8512-21.0944 86.016-5.12c41.1648 15.9744 36.6592 31.3344 30.3104 50.176-6.5536 18.6368-12.6976 33.5872-53.6576 17.6128zM319.6928 566.8864c40.96-16.9984 86.2208 2.8672 86.2208 2.8672S385.024 617.0624 344.064 634.0608c-40.96 16.9984-47.104 2.2528-53.8624-16.1792-6.7584-18.6368-11.264-33.9968 29.4912-50.9952zM719.0528 437.6576c-41.1648 16.1792-86.2208-4.3008-86.2208-4.3008s21.7088-46.8992 62.8736-63.0784c41.1648-16.1792 47.3088-1.4336 53.6576 17.2032 6.5536 18.432 10.8544 33.9968-30.3104 50.176z" fill="#BDF3FF" p-id="32843"></path></svg>
