<?xml version="1.0" standalone="no"?><!DOCTYPE svg PUBLIC "-//W3C//DTD SVG 1.1//EN" "http://www.w3.org/Graphics/SVG/1.1/DTD/svg11.dtd"><svg t="1727682658146" class="icon" viewBox="0 0 1024 1024" version="1.1" xmlns="http://www.w3.org/2000/svg" p-id="13443" xmlns:xlink="http://www.w3.org/1999/xlink" width="64" height="64"><path d="M510.677333 0C228.650667 0 0 228.650667 0 510.677333c0 281.984 228.650667 510.677333 510.677333 510.677334 281.984 0 510.677333-228.650667 510.677334-510.677334C1021.354667 228.650667 792.661333 0 510.677333 0z m245.034667 390.144l-266.325333 297.472a41.685333 41.685333 0 0 1-18.474667 11.477333c-2.517333 0.896-5.077333 1.066667-7.637333 1.578667-1.92 0.256-3.669333 1.152-5.546667 1.152l-0.341333-0.085333c-0.768 0.085333-1.493333 0.426667-2.346667 0.426666a42.538667 42.538667 0 0 1-30.933333-13.312L266.410667 522.24a42.581333 42.581333 0 0 1 61.866666-58.538667l127.146667 134.314667 236.885333-264.661333a42.581333 42.581333 0 0 1 63.402667 56.789333z m0 0" fill="#70B603" p-id="13444"></path></svg>