<?xml version="1.0" standalone="no"?><!DOCTYPE svg PUBLIC "-//W3C//DTD SVG 1.1//EN" "http://www.w3.org/Graphics/SVG/1.1/DTD/svg11.dtd">
<svg t="1727082546036" class="icon" viewBox="0 0 1986 1024" version="1.1" xmlns="http://www.w3.org/2000/svg" p-id="6362"
     width="124.125" height="64"><path d="M611.343284 1014.829851h1059.916417c167.355224 0 303.379104-136.023881 303.379105-303.379105 0-167.355224-136.023881-303.379104-303.379105-303.379104H611.343284c-167.355224 0-303.379104 136.023881-303.379105 303.379104 0 167.355224 136.023881 303.379104 303.379105 303.379105z" fill="#5436FF" p-id="6363"></path><path d="M88.644776 285.038806c7.641791-40.501493 48.907463-192.573134 229.253731-200.214925h3.820896c16.81194 1.528358 123.797015 16.81194 174.997015 93.994029 6.113433 9.170149 17.576119 13.755224 29.038806 10.698508 2.292537-0.764179 4.585075-1.528358 6.877612-1.528358 149.014925-38.208955 287.331343 100.107463 242.244776 247.59403-13.755224 45.086567-44.322388 87.116418-105.456716 107.749253-1.528358 0.764179-3.056716 0.764179-4.585075 0.764179-10.698507 1.528358-54.256716 8.40597-93.99403 2.292538-9.170149-1.528358-18.340299 1.528358-23.689552 8.40597-19.868657 22.925373-69.540299 70.304478-138.316418 63.426866-45.850746-4.585075-70.304478-11.462687-83.295522-17.57612-9.170149-4.585075-20.632836-3.056716-28.274627 3.820896-22.161194 19.104478-74.125373 47.379104-158.949254 7.641791C58.077612 573.898507 30.567164 502.065672 20.632836 460.8c-4.585075-20.632836-5.349254-42.029851 0-63.426866 6.877612-27.510448 22.161194-68.01194 58.841791-97.050746 4.585075-3.820896 7.641791-9.170149 9.170149-15.283582z" fill="#FFFFFF" p-id="6364"></path><path d="M220.083582 636.561194c-22.925373 0-50.435821-5.349254-82.531343-20.632836C54.256716 576.191045 26.746269 502.065672 16.81194 461.564179c-5.349254-22.161194-5.349254-44.322388 0-64.955224 6.877612-29.038806 22.925373-70.304478 60.37015-99.343283 3.820896-3.056716 6.877612-7.641791 7.641791-12.991045 8.40597-45.850746 51.2-195.629851 233.074626-203.271642h4.585075c20.632836 2.292537 126.089552 17.576119 178.053731 95.522388 5.349254 7.641791 15.283582 11.462687 24.453732 9.170149 2.292537-0.764179 4.585075-1.528358 6.877612-1.528358 72.597015-19.104478 147.486567 2.292537 199.450746 57.313433 50.435821 52.728358 68.776119 126.089552 47.379104 195.629851-16.81194 55.020896-53.492537 91.701493-107.749253 110.041791-1.528358 0.764179-3.056716 0.764179-5.349254 1.528358-12.226866 2.292537-55.785075 8.40597-94.758209 2.292537-7.641791-1.528358-15.283582 1.528358-20.632836 7.641791-19.104478 22.161194-70.304478 71.832836-142.137313 64.955224-38.208955-3.820896-66.483582-9.934328-84.059702-17.576119-8.40597-3.820896-17.576119-2.292537-24.453731 3.056716-14.519403 11.462687-40.501493 27.510448-79.474627 27.510448z m99.343284-547.916418h-0.764179c-175.761194 7.641791-217.026866 152.835821-226.197015 197.158209-1.528358 6.877612-5.349254 12.991045-10.698508 17.576119C45.850746 331.653731 30.567164 370.626866 23.689552 398.901493c-4.585075 19.868657-4.585075 40.501493 0 61.134328C33.623881 499.008955 61.134328 570.841791 140.608955 608.286567c82.531343 38.973134 132.202985 12.226866 154.364179-6.877612 8.40597-7.641791 21.397015-9.170149 32.095523-3.820895 11.462687 5.349254 35.916418 12.226866 81.767164 16.81194 68.01194 6.877612 117.683582-41.265672 135.259701-61.898507 6.877612-7.641791 16.81194-11.462687 27.510448-9.934329 38.973134 5.349254 84.059701-0.764179 92.465672-2.292537 1.528358 0 2.292537-0.764179 3.820895-0.764179 52.728358-17.576119 87.116418-52.728358 103.164179-104.692538 20.632836-66.483582 3.056716-136.78806-45.850746-187.988059-50.435821-52.728358-122.268657-73.361194-192.573134-55.020896-2.292537 0.764179-4.585075 1.528358-6.877612 1.528358-12.226866 3.820896-25.98209-1.528358-32.859702-12.226865-51.2-76.41791-160.477612-90.937313-172.704477-92.465672h-0.764179z" p-id="6365"></path><path d="M90.173134 265.934328c7.641791-40.501493 48.907463-192.573134 229.253732-200.214925h3.820895c16.81194 1.528358 123.797015 16.81194 174.997015 93.99403 6.113433 9.170149 17.576119 13.755224 29.038806 10.698507 2.292537-0.764179 4.585075-1.528358 6.877612-1.528358 149.014925-38.208955 287.331343 100.107463 242.244776 247.59403-13.755224 45.086567-44.322388 87.116418-105.456716 107.749254-1.528358 0.764179-3.056716 0.764179-4.585075 0.764179-10.698507 1.528358-54.256716 8.40597-93.99403 2.292537-9.170149-1.528358-18.340299 1.528358-23.689552 8.40597-19.868657 22.925373-69.540299 70.304478-138.316418 63.426866-45.850746-4.585075-70.304478-11.462687-83.295522-17.576119-9.170149-4.585075-20.632836-3.056716-28.274627 3.820895-22.161194 19.104478-74.125373 47.379104-158.949254 7.641791C60.370149 554.79403 32.095522 482.961194 22.925373 441.695522c-4.585075-20.632836-5.349254-42.029851 0-63.426865 6.877612-27.510448 22.161194-68.01194 58.841791-97.050747 4.585075-3.820896 7.641791-9.170149 8.40597-15.283582z" fill="#FFFFFF" p-id="6366"></path><path d="M221.61194 617.456716c-22.925373 0-50.435821-5.349254-82.531343-20.632835C56.549254 557.086567 28.274627 482.961194 19.104478 442.459701c-5.349254-22.161194-5.349254-44.322388 0-64.955223 6.877612-29.038806 22.925373-70.304478 60.370149-99.343284 3.820896-3.056716 6.877612-7.641791 7.641791-12.991045 8.40597-45.850746 51.2-195.629851 233.074627-203.271642h4.585074c20.632836 2.292537 126.089552 17.576119 178.053732 95.522389 5.349254 7.641791 15.283582 11.462687 24.453731 9.170149 2.292537-0.764179 4.585075-1.528358 6.877612-1.528358 72.597015-19.104478 147.486567 2.292537 199.450746 57.313432 50.435821 52.728358 68.776119 126.089552 47.379105 195.629851-16.81194 55.020896-53.492537 91.701493-107.749254 110.041791-1.528358 0.764179-3.056716 0.764179-5.349254 1.528358-12.226866 2.292537-55.785075 8.40597-94.758209 2.292538-7.641791-1.528358-15.283582 1.528358-20.632835 7.641791-19.104478 22.161194-70.304478 71.832836-142.137314 64.955224-38.208955-3.820896-66.483582-9.934328-84.059701-17.57612-8.40597-3.820896-17.576119-2.292537-24.453732 3.056717-14.519403 11.462687-41.265672 27.510448-80.238806 27.510447zM320.955224 69.540299h-0.764179c-175.761194 7.641791-217.026866 152.835821-226.197015 197.158208-1.528358 6.877612-5.349254 12.991045-10.698508 17.57612-35.152239 28.274627-50.435821 67.247761-57.313432 95.522388-4.585075 19.868657-4.585075 40.501493 0 61.134328 9.170149 38.973134 36.680597 110.80597 116.155223 148.250747 82.531343 38.973134 132.202985 12.226866 154.36418-6.877612 8.40597-7.641791 21.397015-9.170149 32.095522-3.820896 11.462687 5.349254 35.916418 12.226866 81.767164 16.81194 68.01194 6.877612 117.683582-41.265672 135.259702-61.898507 6.877612-7.641791 16.81194-11.462687 27.510447-9.934328 38.973134 5.349254 84.059701-0.764179 92.465672-2.292538 1.528358 0 2.292537-0.764179 3.820896-0.764179 52.728358-17.576119 87.116418-52.728358 103.164179-104.692537 20.632836-66.483582 3.056716-136.78806-45.850747-187.98806-50.435821-52.728358-122.268657-73.361194-192.573134-55.020895-2.292537 0.764179-4.585075 1.528358-6.877612 1.528358-12.226866 3.820896-25.98209-1.528358-32.859701-12.226866-51.2-76.41791-160.477612-90.937313-172.704478-92.465671H320.955224z" p-id="6367"></path><path d="M537.21791 16.047761l-76.41791 38.208955 64.955224 80.238806z" fill="#FFFE2E" p-id="6368"></path><path d="M528.81194 144.429851l-74.125373-91.701493 87.116418-43.558209-12.991045 135.259702zM466.913433 55.785075l55.785074 69.540298L532.632836 22.925373l-65.719403 32.859702z" p-id="6369"></path><path d="M602.173134 73.361194l-42.02985 55.020896 61.134328-3.820896z" fill="#FFFE2E" p-id="6370"></path><path d="M551.737313 132.967164l51.2-67.247761 23.689553 62.662687-74.889553 4.585074z m48.907463-51.964179l-32.859701 43.558209 47.379104-3.056716-14.519403-40.501493z" p-id="6371"></path><path d="M588.41791 665.6s22.161194-42.79403 61.898508-6.877612c0 0 45.086567-3.820896 42.79403 36.680597s-44.322388 35.152239-55.020896 22.925373c0 0-18.340299 0-36.680597 4.585075-16.047761 3.820896-33.623881-2.292537-42.79403-16.81194-6.877612-12.991045-5.349254-28.274627 29.802985-40.501493z" fill="#FFFFFF" p-id="6372"></path><path d="M662.543284 730.555224c-9.934328 0-20.632836-3.820896-25.98209-9.170149-4.585075 0-19.104478 0.764179-34.38806 4.585074-18.340299 4.585075-37.444776-3.056716-46.614925-18.340298-4.585075-7.641791-5.349254-14.519403-3.056716-21.397015 3.820896-9.934328 14.519403-17.576119 32.859701-24.453732 3.056716-4.585075 12.226866-18.340299 28.274627-21.397014 12.226866-2.292537 25.21791 2.292537 38.208955 13.755223 5.349254 0 23.689552 0 35.152239 11.462687 6.877612 6.877612 10.698507 16.81194 9.934328 29.038806-0.764179 16.81194-8.40597 28.274627-21.397015 32.859701-3.820896 2.292537-8.40597 3.056716-12.991044 3.056717z m-24.453732-16.047761h1.528358l0.76418 1.528358c6.113433 6.113433 20.632836 9.934328 32.095522 6.113433 9.934328-3.820896 16.047761-12.991045 16.81194-26.746269 0.764179-9.934328-2.292537-17.576119-7.641791-22.925373-11.462687-10.698507-30.567164-9.170149-31.331343-9.170149h-1.528358l-1.528359-0.764179c-11.462687-10.698507-22.925373-15.283582-32.859701-12.991045-15.283582 3.056716-22.925373 18.340299-23.689552 19.104477l-0.764179 1.528359-1.528359 0.764179c-16.81194 5.349254-26.746269 12.226866-29.802985 19.868656-1.528358 4.585075-0.764179 9.170149 2.292538 14.519403 7.641791 12.226866 22.925373 18.340299 38.208955 14.519403 20.632836-5.349254 38.208955-5.349254 38.973134-5.349253z" p-id="6373"></path><path d="M605.99403 826.077612m-30.567164 0a30.567164 30.567164 0 1 0 61.134328 0 30.567164 30.567164 0 1 0-61.134328 0Z" fill="#FFFFFF" p-id="6374"></path><path d="M605.99403 860.465672c-19.104478 0-34.38806-15.283582-34.38806-34.38806s15.283582-34.38806 34.38806-34.38806 34.38806 15.283582 34.38806 34.38806-15.283582 34.38806-34.38806 34.38806z m0-61.134329c-14.519403 0-26.746269 12.226866-26.746269 26.746269s12.226866 26.746269 26.746269 26.746269 26.746269-12.226866 26.746269-26.746269-12.226866-26.746269-26.746269-26.746269z" p-id="6375"></path><path d="M862.758209 649.552239c1.528358-0.764179 3.820896-1.528358 8.40597-3.820896 22.161194-9.934328 42.79403-23.689552 61.898508-40.501492 1.528358-0.764179 2.292537-1.528358 3.820895-3.056717 12.226866-11.462687 21.397015-15.283582 29.038806-10.698507 1.528358 1.528358 6.877612 5.349254 16.047761 11.462686 25.98209 20.632836 48.907463 35.152239 71.068657 45.850747 8.40597 5.349254 10.698507 11.462687 6.877612 19.104477-3.820896 9.170149-13.755224 9.934328-29.802985 0.764179-20.632836-9.934328-42.79403-25.21791-65.719403-45.850746-3.820896-3.820896-9.170149-3.056716-14.519403 3.056717-22.925373 20.632836-47.379104 35.152239-72.597015 45.850746-9.934328 3.820896-17.576119 3.056716-21.397015-3.056717-4.585075-6.877612-2.292537-13.755224 6.877612-19.104477z m12.991045 73.361194c-7.641791 0-12.226866-3.820896-12.226866-11.462687 0.764179-7.641791 4.585075-12.226866 12.226866-12.226865h149.014925c16.81194 0 24.453731 6.113433 22.925373 19.104477-17.576119 51.2-68.01194 78.710448-150.543283 82.531343-10.698507-0.764179-16.047761-5.349254-16.047762-13.755223 1.528358-6.877612 7.641791-10.698507 19.104478-11.462687 54.256716-2.292537 91.701493-16.81194 111.570149-43.558209 3.056716-4.585075 3.056716-7.641791-0.764179-8.40597h-135.259701z m85.588059-33.623881c-3.056716-3.056716-7.641791-8.40597-13.755223-16.047761-3.820896-6.113433-6.877612-9.934328-8.405971-11.462687-5.349254-6.113433-4.585075-11.462687 3.056717-16.81194 6.877612-3.820896 13.755224-3.820896 20.632836 1.528358 9.170149 11.462687 16.81194 22.161194 22.161194 31.331344 1.528358 7.641791-0.764179 13.755224-6.877612 16.81194-6.877612 2.292537-12.991045 0.764179-16.811941-5.349254zM1099.653731 625.098507c-1.528358-17.576119 6.113433-25.98209 22.161194-25.21791h129.910448c15.283582-0.764179 22.925373 7.641791 22.161194 24.453731v144.429851c0.764179 16.047761-6.877612 23.689552-21.397015 22.161194h-132.202985c-15.283582 1.528358-22.161194-5.349254-20.632836-19.868657V625.098507z m148.250747 81.767165h-120.740299v53.492537c-0.764179 3.820896 1.528358 5.349254 5.349254 4.585075h110.80597c3.056716 0.764179 4.585075-0.764179 4.585075-4.585075v-53.492537z m0-27.510448v-46.614925c-0.764179-3.820896-2.292537-5.349254-4.585075-5.349254H1130.985075c-3.056716 0.764179-4.585075 2.292537-4.585075 4.585074v47.379105h121.504478zM1338.841791 630.447761c-9.170149 0-13.755224-4.585075-14.519403-14.519403 0.764179-9.170149 5.349254-14.519403 14.519403-15.283582h155.128358c7.641791 0.764179 12.226866 5.349254 13.755224 15.283582-1.528358 9.934328-5.349254 14.519403-13.755224 14.519403h-64.191045v32.859702h73.361195c7.641791 0.764179 12.226866 5.349254 12.226865 14.519403-0.764179 9.170149-4.585075 14.519403-12.226865 14.519403h-68.77612c19.868657 36.680597 44.322388 61.134328 73.361194 74.125373 14.519403 6.877612 19.104478 14.519403 13.755224 22.925373-3.820896 8.40597-12.226866 9.934328-25.98209 4.585075-34.38806-16.047761-59.60597-39.737313-77.182089-71.068657-14.519403 25.98209-38.208955 48.907463-71.832836 68.776119-13.755224 8.40597-22.925373 8.40597-27.510448 0.764179-6.877612-9.934328-5.349254-16.81194 4.585075-20.632835 39.737313-21.397015 64.191045-48.143284 74.889552-80.238806h-64.191045c-9.170149 0-13.755224-4.585075-14.519403-13.755224 0-9.170149 4.585075-14.519403 13.755224-15.283582h68.77612v-32.859702h-63.426866zM1545.934328 643.438806c12.991045-14.519403 23.689552-29.802985 32.095523-47.379105 3.820896-6.877612 9.170149-8.40597 16.81194-4.585074 6.877612 3.820896 9.170149 9.934328 6.113433 16.81194h132.202985c6.877612 0.764179 9.934328 4.585075 10.698507 12.226866-0.764179 8.40597-3.820896 12.226866-10.698507 12.226866H1589.492537c-5.349254 7.641791-12.991045 16.81194-22.925373 27.510447-7.641791 6.877612-14.519403 8.40597-20.632836 4.585075-6.113433-6.113433-6.113433-12.991045 0-21.397015z m11.462687 51.2c-7.641791 0-12.226866-3.820896-13.755224-11.462687 0.764179-8.40597 4.585075-12.991045 12.226866-13.755223H1696.477612c12.991045 0.764179 19.868657 6.877612 20.632836 19.868656V725.970149c0 28.274627 2.292537 42.029851 6.877612 42.029851 2.292537-1.528358 3.820896-9.934328 4.585074-26.746269 0-7.641791 3.820896-12.226866 10.698508-12.226865 6.877612 1.528358 9.934328 5.349254 10.698507 13.755224-0.764179 39.737313-9.934328 60.370149-26.746268 62.662686-22.161194-1.528358-32.859701-27.510448-32.859702-77.946269v-25.21791c0-3.820896-2.292537-6.877612-6.113433-6.877612h-126.853731z m38.973134-32.859702c-6.877612 0-10.698507-3.056716-10.698507-9.934328s3.820896-9.934328 10.698507-10.698507H1719.402985c6.877612 0.764179 10.698507 3.820896 10.698508 10.698507-0.764179 6.877612-4.585075 9.934328-11.462687 9.934328h-122.268657z" fill="#FFFFFF" p-id="6376"></path><path d="M420.298507 146.722388l-43.558208 19.868657 3.056716 7.641791c6.113433 12.991045 0 29.038806-12.991045 35.152239s-29.038806 0-35.152239-12.991045l-3.056716-7.641791L239.18806 229.253731l3.056716 7.641791c6.113433 12.991045 0 29.038806-12.991045 35.152239s-29.038806 0-35.152238-12.991045L191.044776 252.179104l-43.558209 19.868657L183.402985 349.99403l272.81194-125.325373L420.298507 146.722388z" p-id="6377"></path><path d="M447.808955 244.537313l84.823881 184.931344-244.537314 112.334328-84.82388-184.931343 244.537313-112.334329m7.641791-19.868656L182.638806 349.229851l97.814925 212.441791 272.811941-125.325373-97.814926-211.677612zM228.489552 265.170149l-4.585074 2.292538c-9.170149 3.820896-19.868657 0-23.689553-9.17015l-7.641791-16.047761c-3.820896-9.170149 0-19.868657 9.17015-23.689552l4.585074-2.292537c9.170149-3.820896 19.868657 0 23.689552 9.170149l7.641791 16.047761c3.820896 9.170149 0 19.868657-9.170149 23.689552zM366.80597 202.507463l-4.585074 2.292537c-9.170149 3.820896-19.868657 0-23.689553-9.170149l-7.641791-16.047761c-3.820896-9.170149 0-19.868657 9.170149-23.689553l4.585075-2.292537c9.170149-3.820896 19.868657 0 23.689552 9.170149l7.641791 16.047761c3.820896 8.40597-0.764179 19.104478-9.170149 23.689553z" p-id="6378"></path><path d="M313.313433 325.540299l42.029851-19.104478c12.226866-5.349254 25.21791-4.585075 39.737313 3.056716 21.397015 8.40597 32.095522 12.991045 32.095522 13.755224-0.764179 0-2.292537 3.820896-4.585074 10.698508h-0.764179c-32.095522-12.991045-48.907463-19.104478-51.2-18.340299-4.585075 0.764179-10.698507 2.292537-17.57612 6.113433l-28.274627 12.991045c-12.991045 6.113433-19.868657 12.991045-21.397015 21.397015l-12.991044 38.208955h-0.764179c-1.528358 0-5.349254-1.528358-11.462687-4.585075 10.698507-35.916418 18.340299-55.020896 22.925373-57.313433 3.056716-1.528358 6.877612-4.585075 12.226866-6.877611z m35.916418 29.038805c0.764179 0 6.877612 7.641791 19.868656 22.925374l64.191045-29.038806c0.764179-0.764179 1.528358 0 1.528358 0 3.820896 21.397015 3.056716 42.79403-3.820895 64.955224-3.820896 9.170149-22.161194 43.558209-30.567164 54.256716-2.292537 3.056716-3.056716-1.528358-3.056717-2.292537 0-3.820896 14.519403-40.501493 17.57612-48.143284 2.292537-9.170149 4.585075-16.81194 6.113433-22.925373 2.292537-13.755224 2.292537-22.925373 0.764179-25.98209l-126.089553 58.077612h-0.764179l-4.585074-11.462686v-0.764179l66.483582-30.567165c-0.764179-0.764179-6.877612-8.40597-19.104478-23.689552l11.462687-5.349254z" p-id="6379"></path></svg>
