<?xml version="1.0" standalone="no"?><!DOCTYPE svg PUBLIC "-//W3C//DTD SVG 1.1//EN" "http://www.w3.org/Graphics/SVG/1.1/DTD/svg11.dtd">
<svg t="1727061686264" class="icon" viewBox="0 0 1308 1024" version="1.1" xmlns="http://www.w3.org/2000/svg"
		 p-id="10557" id="mx_n_1727061686266"
		 width="61.3125" height="48"><path d="M620.373333 489.585778c0 120.32 96.768 217.884444 216.177778 217.884444 119.466667 0 216.177778-97.564444 216.177778-217.884444s-96.711111-217.884444-216.177778-217.884445c-119.409778 0-216.177778 97.564444-216.177778 217.884445" fill="#FFCD55" p-id="10558"></path><path d="M836.551111 316.131556c-94.833778 0-172.088889 77.767111-172.088889 173.454222s77.255111 173.454222 172.088889 173.454222c94.833778 0 171.975111-77.937778 171.975111-173.624889 0-95.744-77.141333-173.283556-171.975111-173.283555m0 435.541333c-143.36 0-260.096-117.589333-260.096-262.087111s116.679111-262.087111 260.096-262.087111 260.096 117.589333 260.096 262.087111-116.622222 262.087111-260.096 262.087111M1188.977778 119.011556a41.073778 41.073778 0 0 0-58.254222 0l-58.254223 58.709333a41.813333 41.813333 0 0 0 0 58.709333 41.073778 41.073778 0 0 0 58.254223 0L1188.977778 177.720889a41.528889 41.528889 0 0 0 0-58.709333M909.994667 2.104889c22.755556 0 41.244444 18.488889 41.244444 41.528889v82.944c0 22.869333-18.318222 41.528889-41.244444 41.528889a41.358222 41.358222 0 0 1-41.187556-41.528889V43.633778c0-22.869333 18.375111-41.528889 41.187556-41.528889m215.210666 598.016a41.528889 41.528889 0 0 0 29.013334 50.801778l79.530666 21.504a41.130667 41.130667 0 0 0 50.403556-29.240889 41.528889 41.528889 0 0 0-29.013333-50.801778l-79.473778-21.560889a41.301333 41.301333 0 0 0-50.460445 29.297778m22.072889-186.595556c5.802667 22.186667 28.387556 35.328 50.403556 29.297778l79.473778-21.560889a41.244444 41.244444 0 0 0 29.013333-50.801778 40.903111 40.903111 0 0 0-50.403556-29.240888l-79.473777 21.560888a41.528889 41.528889 0 0 0-29.013334 50.744889m-510.350222-350.549333a40.96 40.96 0 0 1 56.206222 15.132444l41.244445 71.850667c11.377778 19.854222 4.721778 45.226667-15.018667 56.718222a40.96 40.96 0 0 1-56.263111-15.189333l-41.244445-71.793778a41.528889 41.528889 0 0 1 15.075556-56.718222" fill="#424242" p-id="10559"></path><path d="M240.241778 976.042667c-3.697778 0.341333-7.168 0.682667-10.808889 0.853333-101.034667 5.688889-185.344-83.626667-185.344-186.709333 0-103.139556 82.944-186.709333 185.287111-186.709334 6.997333 0 14.051556 0.341333 20.878222 1.137778-0.170667-3.868444-0.170667-7.736889-0.170666-11.605333 0-143.132444 115.2-259.185778 257.251555-259.185778 125.553778 0 230.058667 90.453333 252.757333 210.261333 11.548444-1.877333 23.381333-2.844444 35.384889-2.844444 119.409778 0 216.177778 97.564444 216.177778 217.827555a218.737778 218.737778 0 0 1-99.441778 183.182223c-33.735111 21.845333-73.784889 35.84-116.849777 34.474666a191.829333 191.829333 0 0 1-17.237334-1.137777c-1.820444 0.113778-3.811556 0.113778-5.688889 0.113777H240.241778v0.341334z" fill="#F5F5F5" p-id="10560"></path><path d="M229.262222 647.907556c-77.824 0-141.255111 63.886222-141.255111 142.279111 0 40.049778 16.668444 78.904889 45.738667 106.666666 26.168889 25.031111 59.562667 37.831111 92.956444 35.669334 2.844444-0.170667 5.859556-0.341333 8.704-0.682667l4.664889-0.341333h542.435556c4.664889 0.512 9.329778 0.853333 13.994666 1.024 38.684444 1.308444 71.452444-14.336 91.648-27.591111a172.373333 172.373333 0 0 0 79.303111-145.863112c0-95.573333-77.312-173.397333-172.088888-173.397333-9.557333 0-19.057778 0.796444-28.216889 2.332445l-42.439111 7.054222-7.964445-42.552889a213.902222 213.902222 0 0 0-209.578667-174.250667c-117.703111 0-213.333333 96.369778-213.333333 214.983111 0 3.185778 0 6.371556 0.170667 9.557334l2.275555 51.996444-51.2-5.916444a121.685333 121.685333 0 0 0-15.872-0.967111M220.046222 1021.44c-54.101333 0-105.699556-21.048889-146.773333-60.245333A237.511111 237.511111 0 0 1 0 790.186667c0-119.921778 91.306667-219.022222 207.530667-229.944889C223.857778 408.348444 351.914667 289.564444 506.993778 289.564444c130.901333 0 245.418667 85.162667 285.866666 207.416889h2.275556c143.587556 0 260.323556 117.589333 260.323556 262.087111a261.461333 261.461333 0 0 1-119.409778 220.558223c-44.202667 28.728889-93.639111 43.064889-142.051556 41.528889a278.243556 278.243556 0 0 1-16.668444-1.024c-1.706667 0-3.413333 0.170667-5.063111 0.170666H242.403556c-3.527111 0.341333-6.997333 0.682667-10.524445 0.853334-3.982222 0.170667-7.850667 0.341333-11.832889 0.341333" fill="#424242" p-id="10561"></path></svg>
