<?xml version="1.0" standalone="no"?><!DOCTYPE svg PUBLIC "-//W3C//DTD SVG 1.1//EN" "http://www.w3.org/Graphics/SVG/1.1/DTD/svg11.dtd"><svg height="1024" node-id="1" sillyvg="true" template-height="1024" template-width="1024" version="1.1" viewBox="0 0 1024 1024" width="1024" xmlns="http://www.w3.org/2000/svg" xmlns:xlink="http://www.w3.org/1999/xlink"><defs node-id="82"><linearGradient gradientUnits="userSpaceOnUse" id="paint0_linear_1515_110953" node-id="34" spreadMethod="pad" x1="506" x2="506" y1="635" y2="890"><stop offset="0" stop-color="#bddfff"></stop><stop offset="0.95892" stop-color="#ffffff" stop-opacity="0"></stop></linearGradient><linearGradient gradientUnits="userSpaceOnUse" id="paint1_linear_1515_110953" node-id="37" spreadMethod="pad" x1="229.66" x2="229.66" y1="754.678" y2="615.257"><stop offset="0" stop-color="#5fb2ff"></stop><stop offset="0.7893" stop-color="#dff0ff"></stop></linearGradient><linearGradient gradientUnits="userSpaceOnUse" id="paint2_linear_1515_110953" node-id="40" spreadMethod="pad" x1="229.661" x2="229.661" y1="630.738" y2="784.347"><stop offset="0" stop-color="#dff0ff"></stop><stop offset="0.818" stop-color="#a2d2ff"></stop></linearGradient><linearGradient gradientUnits="userSpaceOnUse" id="paint3_linear_1515_110953" node-id="43" spreadMethod="pad" x1="883.842" x2="847.534" y1="720.042" y2="802.968"><stop offset="0.365159" stop-color="#c4e3ff"></stop><stop offset="1" stop-color="#5fb2ff"></stop></linearGradient><linearGradient gradientUnits="userSpaceOnUse" id="paint4_linear_1515_110953" node-id="46" spreadMethod="pad" x1="758.107" x2="794.054" y1="210.192" y2="308.86"><stop offset="0" stop-color="#6cb8ff"></stop><stop offset="1" stop-color="#a2d2ff"></stop></linearGradient><linearGradient gradientUnits="userSpaceOnUse" id="paint5_linear_1515_110953" node-id="49" spreadMethod="pad" x1="797.343" x2="805.688" y1="278.438" y2="383.119"><stop offset="0" stop-color="#6cb8ff"></stop><stop offset="1" stop-color="#a2d2ff"></stop></linearGradient><linearGradient gradientUnits="userSpaceOnUse" id="paint6_linear_1515_110953" node-id="52" spreadMethod="pad" x1="721.648" x2="770.137" y1="90.6377" y2="183.786"><stop offset="0" stop-color="#6cb8ff"></stop><stop offset="1" stop-color="#a2d2ff"></stop></linearGradient><linearGradient gradientUnits="userSpaceOnUse" id="paint7_linear_1515_110953" node-id="55" spreadMethod="pad" x1="495.23" x2="492.295" y1="562.935" y2="581.546"><stop offset="0" stop-color="#ffcda5"></stop><stop offset="1" stop-color="#ffe8d1"></stop></linearGradient><linearGradient gradientUnits="userSpaceOnUse" id="paint8_linear_1515_110953" node-id="58" spreadMethod="pad" x1="504.489" x2="468.075" y1="519.391" y2="557.468"><stop offset="0" stop-color="#fff2df"></stop><stop offset="1" stop-color="#fee0bc"></stop></linearGradient><linearGradient gradientUnits="userSpaceOnUse" id="paint9_linear_1515_110953" node-id="61" spreadMethod="pad" x1="489.297" x2="518.385" y1="520.113" y2="560.959"><stop offset="0" stop-color="#777ca7"></stop><stop offset="1" stop-color="#636681"></stop></linearGradient><linearGradient gradientUnits="userSpaceOnUse" id="paint10_linear_1515_110953" node-id="64" spreadMethod="pad" x1="414.226" x2="417.067" y1="636.88" y2="650.745"><stop offset="0" stop-color="#fee4c3"></stop><stop offset="1" stop-color="#ffd1ac"></stop></linearGradient><linearGradient gradientUnits="userSpaceOnUse" id="paint11_linear_1515_110953" node-id="67" spreadMethod="pad" x1="545.057" x2="532.123" y1="673.948" y2="679.693"><stop offset="0" stop-color="#fee4c3"></stop><stop offset="1" stop-color="#ffd1ac"></stop></linearGradient><linearGradient gradientUnits="userSpaceOnUse" id="paint12_linear_1515_110953" node-id="70" spreadMethod="pad" x1="436.566" x2="470.138" y1="560.413" y2="690.698"><stop offset="0" stop-color="#ffe194"></stop><stop offset="1" stop-color="#ffbf84"></stop></linearGradient><linearGradient gradientUnits="userSpaceOnUse" id="paint13_linear_1515_110953" node-id="73" spreadMethod="pad" x1="436.566" x2="470.138" y1="560.413" y2="690.698"><stop offset="0" stop-color="#ffe194"></stop><stop offset="1" stop-color="#ffbf84"></stop></linearGradient><linearGradient gradientUnits="userSpaceOnUse" id="paint14_linear_1515_110953" node-id="76" spreadMethod="pad" x1="436.566" x2="470.138" y1="560.413" y2="690.698"><stop offset="0" stop-color="#ffe194"></stop><stop offset="1" stop-color="#ffbf84"></stop></linearGradient><clipPath id="clip0_1515_110953" node-id="79"><path d="M 0.00 0.00 L 1024.00 0.00 L 1024.00 1024.00 L 0.00 1024.00 Z" fill="#000000" fill-rule="nonzero" node-id="175" stroke="none" target-height="1024" target-width="1024" target-x="0" target-y="0"></path></clipPath></defs><g clip-path="url(#clip0_1515_110953)" id="sillyvg_g_0" node-id="179"><path d="M 973.00 762.50 C 973.00 796.32 923.80 828.75 836.22 852.66 C 748.64 876.57 629.86 890.00 506.00 890.00 C 382.14 890.00 263.36 876.57 175.78 852.66 C 88.20 828.75 39.00 796.32 39.00 762.50 C 39.00 728.68 88.20 696.25 175.78 672.34 C 263.36 648.43 382.14 635.00 506.00 635.00 C 629.86 635.00 748.64 648.43 836.22 672.34 C 923.80 696.25 973.00 728.68 973.00 762.50 Z" fill="url(#paint0_linear_1515_110953)" fill-rule="nonzero" node-id="181" stroke="none" target-height="255" target-width="934" target-x="39" target-y="635"></path><path d="M 230.46 615.50 C 230.46 615.50 230.23 614.92 229.93 615.54 C 227.18 621.12 202.33 681.57 200.36 728.22 C 200.36 728.22 196.22 755.02 230.97 754.66 C 259.97 754.37 259.20 729.66 259.10 721.34 C 258.70 687.57 230.46 615.50 230.46 615.50 Z" fill="url(#paint1_linear_1515_110953)" fill-rule="nonzero" node-id="183" stroke="none" target-height="140.09802" target-width="63.757996" target-x="196.215" target-y="614.922"></path><path d="M 229.66 784.34 C 229.10 784.34 228.65 783.89 228.65 783.33 L 228.65 631.75 C 228.65 631.20 229.10 630.74 229.66 630.74 C 230.22 630.74 230.68 631.20 230.68 631.75 L 230.68 783.33 C 230.68 783.90 230.22 784.34 229.66 784.34 Z" fill="url(#paint2_linear_1515_110953)" fill-rule="nonzero" node-id="185" stroke="none" target-height="153.60602" target-width="2.0329895" target-x="228.647" target-y="630.737"></path><path d="M 869.35 810.66 C 876.54 808.40 883.52 805.45 889.87 797.18 C 891.18 795.48 892.40 793.31 891.69 791.28 C 891.15 789.76 889.59 788.78 888.01 788.53 C 887.42 788.44 886.83 788.43 886.23 788.48 L 886.23 788.48 C 885.32 788.57 884.41 788.75 883.54 789.01 L 883.28 789.09 C 879.09 790.30 875.09 792.13 871.42 794.52 C 871.09 794.74 870.70 794.83 870.31 794.79 C 869.91 794.75 869.55 794.58 869.27 794.30 C 868.98 794.02 868.80 793.65 868.75 793.25 C 868.70 792.86 868.79 792.45 868.99 792.11 C 869.37 791.49 869.80 790.91 870.29 790.38 C 871.01 789.61 871.81 788.92 872.66 788.30 C 873.79 787.46 874.99 786.72 876.17 785.95 C 880.56 783.12 884.72 779.93 888.61 776.42 C 891.38 773.91 894.09 771.13 895.41 767.61 C 896.01 765.99 896.29 764.12 895.57 762.55 C 894.38 759.97 891.00 759.25 888.24 759.78 C 883.40 760.72 879.53 764.32 876.10 767.91 C 873.26 770.89 870.08 774.19 865.99 774.37 C 865.29 774.44 864.59 774.30 863.98 773.96 C 862.81 773.25 862.51 771.59 862.93 770.27 C 863.34 768.95 864.30 767.90 865.23 766.89 C 870.62 761.02 875.93 754.92 879.43 747.73 C 882.93 740.53 884.48 732.04 882.05 724.41 C 881.34 722.18 880.26 720.00 878.59 718.38 C 876.92 716.76 874.58 715.75 872.28 716.06 C 869.15 716.47 866.80 719.15 865.21 721.91 C 859.77 731.40 860.10 743.02 858.57 753.89 C 858.14 756.93 857.51 760.05 855.73 762.56 C 855.56 762.80 855.35 763.00 855.10 763.15 C 853.63 764.01 852.31 762.27 851.76 760.79 C 849.58 754.95 849.04 748.26 845.14 743.43 C 843.65 741.59 841.54 740.05 839.20 740.06 C 836.33 740.08 833.88 742.51 833.04 745.29 C 832.20 748.07 832.71 751.10 833.60 753.86 C 835.26 758.98 838.25 763.58 841.76 767.63 C 843.61 769.76 845.71 771.92 846.26 774.71 C 846.43 775.65 846.36 776.63 846.05 777.54 C 845.75 778.45 845.22 779.27 844.51 779.91 C 844.18 780.20 843.80 780.42 843.39 780.56 C 842.97 780.70 842.53 780.75 842.10 780.71 C 841.16 780.63 840.31 780.14 839.48 779.67 C 839.14 779.47 838.79 779.26 838.45 779.07 C 837.08 778.28 835.71 777.48 834.34 776.69 C 830.85 774.67 826.65 772.61 823.02 774.35 C 821.17 775.24 819.95 776.98 819.38 778.99 C 818.87 780.80 818.87 782.73 819.38 784.55 C 820.46 788.33 827.28 798.85 830.09 801.56 C 833.37 804.73 844.75 818.40 869.35 810.66 Z" fill="url(#paint3_linear_1515_110953)" fill-rule="nonzero" node-id="187" stroke="none" target-height="102.653015" target-width="77.41901" target-x="818.872" target-y="715.745"></path><path d="M 692.94 251.15 C 719.17 247.73 740.41 254.75 756.67 272.22 C 773.14 289.65 783.73 316.45 788.44 352.63 C 793.12 388.59 789.75 417.21 778.32 438.49 C 767.10 459.75 748.38 472.08 722.14 475.49 C 695.91 478.91 674.55 471.79 658.05 454.15 C 641.77 436.48 631.28 409.66 626.60 373.70 C 621.89 337.52 625.16 308.91 636.41 287.87 C 647.86 266.80 666.71 254.56 692.94 251.15 Z M 697.77 288.27 C 690.58 289.21 685.17 292.28 681.54 297.49 C 677.92 302.69 675.75 310.82 675.04 321.89 C 674.54 332.93 675.53 347.96 678.01 367.00 C 680.49 386.04 683.39 400.94 686.73 411.69 C 690.25 422.20 694.43 429.51 699.27 433.62 C 704.10 437.72 710.12 439.30 717.31 438.37 C 724.50 437.43 729.93 434.47 733.58 429.47 C 737.20 424.27 739.27 416.15 739.77 405.11 C 740.45 393.83 739.54 378.57 737.03 359.32 C 734.53 340.07 731.51 325.19 727.99 314.67 C 724.66 303.92 720.58 296.60 715.77 292.71 C 710.97 288.81 704.96 287.34 697.77 288.27 Z" fill="url(#paint4_linear_1515_110953)" fill-rule="nonzero" node-id="189" stroke="none" target-height="231.177" target-width="171.22601" target-x="621.894" target-y="247.732"></path><path d="M 522.43 272.11 C 548.62 275.81 567.22 288.25 578.24 309.41 C 589.46 330.60 592.52 359.26 587.42 395.38 C 582.35 431.29 571.47 457.98 554.78 475.44 C 538.30 492.93 516.97 499.83 490.77 496.13 C 464.58 492.43 445.89 479.87 434.69 458.47 C 423.71 437.10 420.75 408.45 425.82 372.55 C 430.93 336.42 441.70 309.72 458.15 292.44 C 474.81 275.19 496.23 268.41 522.43 272.11 Z M 517.19 309.19 C 510.01 308.17 503.97 309.69 499.09 313.74 C 494.21 317.79 489.95 325.05 486.32 335.52 C 482.90 346.03 479.84 360.79 477.15 379.80 C 474.47 398.81 473.30 413.94 473.65 425.19 C 474.24 436.27 476.32 444.42 479.89 449.67 C 483.45 454.91 488.83 458.04 496.01 459.06 C 503.19 460.07 509.21 458.66 514.06 454.82 C 518.94 450.77 523.10 443.49 526.52 432.99 C 530.18 422.30 533.37 407.35 536.09 388.13 C 538.81 368.90 539.87 353.76 539.28 342.69 C 538.93 331.43 536.96 323.29 533.36 318.26 C 529.76 313.22 524.37 310.20 517.19 309.19 Z" fill="url(#paint5_linear_1515_110953)" fill-rule="nonzero" node-id="191" stroke="none" target-height="231.41702" target-width="171.772" target-x="420.751" target-y="268.412"></path><path d="M 344.99 266.23 L 269.23 286.38 L 280.91 330.30 C 289.39 323.18 299.10 318.17 310.02 315.27 C 321.57 312.19 332.59 312.13 343.09 315.08 C 353.58 318.02 362.78 323.97 370.68 332.90 C 378.57 341.84 384.39 353.32 388.12 367.34 C 392.01 381.97 392.07 395.87 388.28 409.02 C 384.64 421.90 377.36 433.11 366.43 442.64 C 355.71 452.12 342.20 459.02 325.92 463.36 C 297.67 470.87 271.68 466.53 247.94 450.33 L 268.41 417.73 C 283.31 428.11 298.60 431.22 314.27 427.05 C 324.99 424.20 332.39 418.81 336.46 410.88 C 340.74 402.90 341.29 392.93 338.10 380.98 C 331.90 357.68 319.01 348.64 299.43 353.85 C 295.31 354.94 291.45 356.63 287.86 358.91 C 284.22 360.98 280.38 363.99 276.35 367.93 L 243.27 376.74 L 213.23 263.86 L 341.26 229.80 L 344.99 266.23 Z" fill="url(#paint6_linear_1515_110953)" fill-rule="nonzero" node-id="193" stroke="none" target-height="241.07199" target-width="178.833" target-x="213.234" target-y="229.801"></path><path d="M 314.00 617.18 L 525.77 740.67 L 525.77 802.97 L 314.00 679.51 L 314.00 617.21 L 314.00 617.18 Z" fill="#b8d9f6" fill-rule="nonzero" node-id="195" stroke="none" target-height="185.78601" target-width="211.76898" target-x="314" target-y="617.18"></path><path d="M 332.16 645.70 L 467.96 725.30 L 467.96 735.37 L 332.16 655.77 L 332.16 645.73 L 332.16 645.70 Z M 332.16 666.53 L 467.96 746.14 L 467.96 756.21 L 332.16 676.61 L 332.16 666.57 L 332.16 666.53 Z M 480.51 731.88 L 505.50 746.86 L 505.50 775.03 L 480.51 760.08 L 480.51 732.05 L 480.51 731.88 Z" fill="#5ca8ea" fill-rule="nonzero" node-id="197" stroke="none" target-height="129.33698" target-width="173.332" target-x="332.163" target-y="645.698"></path><path d="M 710.27 633.69 L 525.77 740.67 L 525.77 802.97 L 710.27 695.19 L 710.27 633.69 Z" fill="#99c9f2" fill-rule="nonzero" node-id="199" stroke="none" target-height="169.27704" target-width="184.50604" target-x="525.769" target-y="633.688"></path><path d="M 710.27 633.69 L 497.37 512.00 L 314.00 617.18 L 525.77 740.42 L 710.27 633.69 Z" fill="#e0effb" fill-rule="nonzero" node-id="201" stroke="none" target-height="228.42499" target-width="396.27502" target-x="314" target-y="512"></path><path d="M 459.00 787.50 C 459.00 796.06 433.70 803.00 402.50 803.00 C 371.30 803.00 346.00 796.06 346.00 787.50 C 346.00 778.94 371.30 772.00 402.50 772.00 C 433.70 772.00 459.00 778.94 459.00 787.50 Z" fill="#7d7d7d" fill-opacity="0.1" fill-rule="nonzero" node-id="203" stroke="none" target-height="31" target-width="113" target-x="346" target-y="772"></path><path d="M 485.14 558.51 L 506.19 561.83 L 502.82 583.21 L 481.77 579.89 L 485.14 558.51 Z" fill="url(#paint7_linear_1515_110953)" fill-rule="nonzero" node-id="205" stroke="none" target-height="24.692017" target-width="24.415985" target-x="481.772" target-y="558.513"></path><path d="M 488.15 565.89 C 476.81 562.73 470.58 549.57 474.22 536.49 C 477.86 523.41 490.00 515.36 501.33 518.51 C 512.67 521.67 518.91 534.83 515.27 547.91 C 511.63 561.00 499.49 569.04 488.15 565.89 Z" fill="url(#paint8_linear_1515_110953)" fill-rule="nonzero" node-id="207" stroke="none" target-height="53.684998" target-width="48.333008" target-x="470.576" target-y="515.359"></path><path d="M 501.02 546.45 C 501.02 546.45 501.02 546.45 501.02 546.45 C 501.02 546.45 501.02 546.45 501.02 546.45 C 494.34 541.31 487.64 537.38 482.89 534.58 C 479.19 532.41 476.67 530.93 476.24 530.10 C 475.54 528.75 478.15 517.94 486.05 513.23 C 487.60 512.09 489.37 511.14 491.27 510.33 C 514.64 502.58 526.91 520.87 528.57 523.36 C 528.67 523.51 528.74 523.60 528.76 523.62 C 528.78 523.88 528.79 524.13 528.81 524.38 C 529.99 526.03 530.73 527.38 531.08 528.00 C 531.20 528.22 531.27 528.35 531.29 528.37 C 532.46 549.79 525.36 556.38 516.99 561.15 C 511.05 564.29 506.93 562.78 506.22 562.52 L 506.22 562.52 C 506.13 562.49 506.10 562.47 506.11 562.49 C 506.11 562.49 502.90 560.42 502.79 557.11 C 505.27 558.72 512.68 556.23 511.83 548.06 C 509.38 541.64 504.24 544.86 501.91 546.32 C 501.66 546.47 501.45 546.61 501.27 546.71 C 501.20 546.62 501.13 546.52 501.06 546.43 C 501.05 546.44 501.04 546.44 501.03 546.45 C 501.02 546.45 501.02 546.45 501.02 546.45 C 501.02 546.45 501.02 546.45 501.02 546.45 Z" fill="url(#paint9_linear_1515_110953)" fill-rule="evenodd" node-id="209" stroke="none" target-height="61.70999" target-width="56.92102" target-x="475.537" target-y="502.585"></path><path d="M 476.44 524.63 C 487.00 531.38 490.74 533.67 503.90 542.82 C 524.02 556.79 525.88 556.37 530.75 548.73 C 539.08 533.30 535.45 517.05 521.49 509.52 C 507.53 501.99 485.51 502.69 476.44 524.63 Z" fill="#585449" fill-rule="nonzero" node-id="211" stroke="none" target-height="54.80002" target-width="62.636017" target-x="476.439" target-y="501.986"></path><path d="M 464.49 511.85 L 464.31 512.82 L 464.67 514.12 L 465.84 515.95 L 468.25 518.51 L 472.07 521.67 L 476.47 524.67 L 481.86 527.79 L 487.45 530.51 L 492.40 532.48 L 497.15 533.89 L 500.62 534.46 L 502.79 534.41 L 504.07 533.98 L 504.78 533.29 L 504.95 532.32 L 504.60 531.02 L 503.43 529.19 L 501.02 526.63 L 497.20 523.47 L 492.80 520.47 L 487.41 517.35 L 481.81 514.63 L 476.86 512.66 L 472.11 511.25 L 468.64 510.68 L 466.47 510.73 L 465.20 511.16 L 464.49 511.85 Z" fill="#585449" fill-rule="nonzero" group-id="1" node-id="215" stroke="none" target-height="23.77295" target-width="40.642395" target-x="464.3118" target-y="510.68353"></path><path d="M 510.94 553.36 L 511.75 551.78 L 512.13 550.21 L 512.12 548.63 L 511.72 547.11 L 510.95 545.83 L 509.80 544.74 L 508.37 544.06 L 506.90 543.80 L 505.34 543.97 L 503.85 544.53 L 502.53 545.45 L 501.35 546.78 L 500.53 548.36 L 500.15 549.92 L 500.17 551.51 L 500.57 553.03 L 501.33 554.31 L 502.49 555.40 L 503.92 556.08 L 505.39 556.33 L 506.95 556.16 L 508.43 555.61 L 509.75 554.69 L 510.94 553.36 Z" fill="#ffe9cd" fill-rule="nonzero" group-id="2" node-id="220" stroke="none" target-height="12.528687" target-width="11.983368" target-x="500.15134" target-y="543.8046"></path><path d="M 418.07 777.58 L 409.05 777.05 L 408.35 789.07 L 417.36 789.59 Z" fill="#fee4c3" fill-rule="nonzero" group-id="3" node-id="225" stroke="none" target-height="12.543823" target-width="9.715149" target-x="408.35086" target-y="777.0483"></path><path d="M 396.48 794.22 C 396.99 798.35 402.01 798.09 408.61 797.28 C 415.21 796.47 422.26 795.61 423.21 790.94 C 423.16 791.15 424.33 787.77 419.30 783.84 C 419.30 783.84 415.19 787.38 408.85 785.12 C 403.16 786.99 396.11 791.15 396.48 794.22 Z" fill="#7b7b7b" fill-rule="nonzero" node-id="228" stroke="none" target-height="14.503967" target-width="28.227997" target-x="396.105" target-y="783.841"></path><path d="M 389.08 761.05 L 380.07 760.57 L 379.42 772.59 L 388.43 773.07 Z" fill="#fee4c3" fill-rule="nonzero" group-id="4" node-id="232" stroke="none" target-height="12.506592" target-width="9.663788" target-x="379.41922" target-y="760.56647"></path><path d="M 366.01 779.26 C 366.57 783.38 371.60 783.06 378.18 782.16 C 384.77 781.26 391.81 780.31 392.69 775.63 C 392.65 775.84 393.78 772.45 388.70 768.58 C 388.70 768.58 384.63 772.17 378.26 770.00 C 372.60 771.94 365.60 776.20 366.01 779.26 Z" fill="#7b7b7b" fill-rule="nonzero" node-id="235" stroke="none" target-height="14.798035" target-width="28.18103" target-x="365.597" target-y="768.582"></path><path d="M 494.61 673.78 C 494.61 673.78 488.02 698.12 414.80 696.87 C 414.80 696.87 410.72 724.75 392.19 762.75 L 379.03 764.49 L 390.81 690.87 C 391.31 687.69 392.62 684.69 394.60 682.16 C 396.59 679.62 399.19 677.63 402.16 676.38 C 416.20 670.50 461.18 662.95 461.18 662.95 L 494.61 673.78 Z" fill="#d5d5d5" fill-rule="nonzero" node-id="237" stroke="none" target-height="101.54797" target-width="115.57898" target-x="379.032" target-y="662.945"></path><path d="M 504.95 672.03 C 504.95 672.03 506.57 706.29 432.13 712.52 C 432.13 712.52 432.13 741.93 419.36 781.56 L 407.22 782.22 L 405.99 707.66 C 405.92 704.43 406.66 701.23 408.16 698.37 C 409.66 695.51 411.87 693.08 414.57 691.31 C 427.27 682.99 470.15 667.38 470.15 667.38 L 504.95 672.03 Z" fill="#dcdcdc" fill-rule="nonzero" node-id="239" stroke="none" target-height="114.841" target-width="100.65698" target-x="405.915" target-y="667.377"></path><path d="M 408.33 648.93 C 409.32 652.14 412.75 651.63 418.07 650.54 C 423.39 649.45 428.82 647.45 428.04 643.62 C 427.26 639.80 421.47 637.45 416.15 638.54 C 404.60 634.58 398.18 645.72 408.33 648.93 Z" fill="url(#paint10_linear_1515_110953)" fill-rule="nonzero" node-id="241" stroke="none" target-height="17.562988" target-width="30.641998" target-x="398.181" target-y="634.581"></path><path d="M 538.68 685.75 C 535.49 686.81 533.91 683.72 531.71 678.76 C 529.50 673.79 527.98 668.21 531.54 666.62 C 535.11 665.04 540.38 668.38 542.59 673.35 C 552.52 680.45 547.18 692.14 538.68 685.75 Z" fill="url(#paint11_linear_1515_110953)" fill-rule="nonzero" node-id="243" stroke="none" target-height="27.10199" target-width="24.546997" target-x="527.975" target-y="665.041"></path><path d="M 483.85 570.87 C 483.85 570.87 472.95 572.99 467.48 579.33 C 458.46 589.79 451.10 608.99 451.10 608.99 C 451.10 608.99 449.77 614.98 443.67 622.79 C 437.04 631.28 435.01 632.14 435.01 632.14 C 435.01 632.14 426.94 635.78 424.90 635.87 C 422.41 635.98 416.33 637.53 416.33 637.53 L 418.25 649.79 C 418.25 649.79 434.32 650.97 446.24 647.87 C 455.15 645.55 460.02 636.27 460.02 636.27 L 483.85 570.87 Z" fill="url(#paint12_linear_1515_110953)" fill-rule="evenodd" node-id="245" stroke="none" target-height="80.104004" target-width="67.522" target-x="416.327" target-y="570.865"></path><path d="M 483.70 569.52 C 490.53 580.34 500.59 575.23 504.76 571.32 C 505.26 571.39 508.66 573.69 512.52 580.15 C 518.55 590.23 510.39 648.30 506.19 678.09 C 483.07 676.48 437.66 671.86 440.98 666.30 C 445.13 659.34 455.84 610.80 459.68 596.18 C 461.20 590.36 471.10 572.10 483.70 569.52 Z" fill="url(#paint13_linear_1515_110953)" fill-rule="nonzero" node-id="247" stroke="none" target-height="108.564026" target-width="80.88501" target-x="437.661" target-y="569.522"></path><path d="M 529.06 592.00 C 527.13 584.94 516.01 577.97 507.98 573.96 C 506.47 576.96 504.97 596.51 509.49 604.03 C 514.00 611.54 515.51 640.11 517.01 643.12 C 518.09 645.27 524.55 667.17 530.57 676.19 C 532.07 675.69 537.79 673.19 542.62 673.19 C 542.62 670.18 538.10 646.12 535.09 640.11 C 533.07 636.08 533.58 608.54 529.06 592.00 Z" fill="url(#paint14_linear_1515_110953)" fill-rule="nonzero" node-id="249" stroke="none" target-height="102.237" target-width="37.647003" target-x="504.968" target-y="573.956"></path><path d="M 480.40 570.62 C 480.40 570.62 482.12 569.37 483.61 569.60 C 490.36 578.87 500.30 574.74 504.65 571.40 C 504.82 571.27 506.14 571.63 507.39 573.35 C 492.44 583.18 483.17 575.62 480.40 570.62 Z" fill="#fb955b" fill-rule="nonzero" node-id="251" stroke="none" target-height="13.812012" target-width="26.988007" target-x="480.405" target-y="569.367"></path></g></svg>