<?xml version="1.0" standalone="no"?><!DOCTYPE svg PUBLIC "-//W3C//DTD SVG 1.1//EN" "http://www.w3.org/Graphics/SVG/1.1/DTD/svg11.dtd"><svg height="1024" node-id="1" sillyvg="true" template-height="1024" template-width="1024" version="1.1" viewBox="0 0 1024 1024" width="1024" xmlns="http://www.w3.org/2000/svg" xmlns:xlink="http://www.w3.org/1999/xlink"><defs node-id="80"><linearGradient gradientUnits="userSpaceOnUse" id="SVGID_1_" node-id="4" spreadMethod="pad" x1="511.4615" x2="511.4615" y1="492.6213" y2="844.7413"><stop offset="0.0000004528621" stop-color="#d0ddf8"></stop><stop offset="1" stop-color="#ffffff"></stop></linearGradient><linearGradient gradientUnits="userSpaceOnUse" id="SVGID_2_" node-id="8" spreadMethod="pad" x1="699.7286" x2="517.1913" y1="794.0543" y2="477.8905"><stop offset="0" stop-color="#ffffff" stop-opacity="0"></stop><stop offset="1" stop-color="#9db9e0"></stop></linearGradient><linearGradient gradientUnits="userSpaceOnUse" id="SVGID_3_" node-id="12" spreadMethod="pad" x1="511.4615" x2="511.4615" y1="178.0279" y2="561.4163"><stop offset="0.0000004528621" stop-color="#d0ddf8"></stop><stop offset="1" stop-color="#ffffff" stop-opacity="0"></stop></linearGradient><linearGradient gradientUnits="userSpaceOnUse" id="SVGID_4_" node-id="54" spreadMethod="pad" x1="532.2327" x2="641.0978" y1="366.1122" y2="554.6722"><stop offset="0.0000004475343" stop-color="#dfe7f8"></stop><stop offset="1" stop-color="#4d82f8"></stop></linearGradient><linearGradient gradientUnits="userSpaceOnUse" id="SVGID_5_" node-id="58" spreadMethod="pad" x1="369.5063" x2="514.3784" y1="345.1288" y2="596.0547"><stop offset="0.0000004475343" stop-color="#cedbf8"></stop><stop offset="1" stop-color="#92b2f8"></stop></linearGradient><linearGradient gradientUnits="userSpaceOnUse" id="SVGID_6_" node-id="62" spreadMethod="pad" x1="366.7249" x2="656.1982" y1="338.4985" y2="338.4985"><stop offset="0.0000004475343" stop-color="#cedbf8"></stop><stop offset="1" stop-color="#92b2f8"></stop></linearGradient></defs><path d="M 882.44 668.68 C 882.44 715.37 843.35 760.16 773.78 793.17 C 704.21 826.19 609.85 844.74 511.46 844.74 C 413.07 844.74 318.71 826.19 249.14 793.17 C 179.57 760.16 140.48 715.37 140.48 668.68 C 140.48 621.99 179.57 577.20 249.14 544.19 C 318.71 511.17 413.07 492.62 511.46 492.62 C 609.85 492.62 704.21 511.17 773.78 544.19 C 843.35 577.20 882.44 621.99 882.44 668.68 Z" fill="url(#SVGID_1_)" fill-rule="nonzero" node-id="119" stroke="none" target-height="352.12" target-width="741.96" target-x="140.48" target-y="492.62"></path><path d="M 849.49 707.59 L 585.97 803.13 L 367.43 564.36 L 656.87 545.96 Z" fill="url(#SVGID_2_)" fill-rule="nonzero" node-id="121" stroke="none" target-height="257.16998" target-width="482.06" target-x="367.43" target-y="545.96"></path><path d="M 727.99 228.76 L 727.99 561.42 L 294.94 561.42 C 295.66 395.99 296.33 370.55 297.06 205.06 L 394.05 205.06 C 394.23 234.57 394.23 247.39 394.05 247.87 L 394.05 247.93 C 394.05 247.93 394.17 247.87 394.23 247.81 L 394.23 247.63 C 394.23 238.92 401.24 231.91 409.95 231.91 C 418.66 231.91 425.67 238.92 425.67 247.63 L 425.67 256.94 L 494.96 256.94 L 494.96 178.03 L 557.12 178.03 L 557.12 291.77 C 557.06 292.01 557.06 292.19 557.06 292.44 L 557.06 330.71 C 557.06 336.33 561.59 340.87 567.22 340.87 C 572.78 340.87 577.32 336.34 577.32 330.71 L 577.32 300.90 C 596.85 300.84 611.00 300.78 620.37 300.78 C 629.74 300.78 634.34 300.84 634.76 300.90 C 636.27 300.72 634.76 277.80 634.76 277.80 L 664.33 277.80 L 664.33 304.95 C 664.33 309.06 667.66 312.39 671.77 312.39 C 675.88 312.39 679.21 309.06 679.21 304.95 L 679.21 228.76 L 727.99 228.76 Z" fill="url(#SVGID_3_)" fill-rule="nonzero" node-id="123" stroke="none" target-height="383.38998" target-width="433.05" target-x="294.94" target-y="178.03"></path><g node-id="249"><g node-id="253"><path d="M 326.05 211.44 C 319.63 211.44 314.40 206.22 314.40 199.79 C 314.40 193.36 319.62 188.14 326.05 188.14 C 332.48 188.14 337.70 193.36 337.70 199.79 C 337.70 206.22 332.47 211.44 326.05 211.44 Z M 326.05 194.62 C 323.20 194.62 320.88 196.94 320.88 199.79 C 320.88 202.64 323.20 204.96 326.05 204.96 C 328.90 204.96 331.22 202.64 331.22 199.79 C 331.22 196.94 328.90 194.62 326.05 194.62 Z" fill="#7aa1f8" fill-opacity="0.6" fill-rule="nonzero" group-id="1,5" node-id="129" stroke="none" target-height="23.300003" target-width="23.300018" target-x="314.4" target-y="188.14"></path></g><g node-id="254"><path d="M 332.35 381.09 C 332.35 385.73 328.58 389.50 323.94 389.50 C 319.30 389.50 315.53 385.73 315.53 381.09 C 315.53 376.45 319.30 372.68 323.94 372.68 C 328.58 372.68 332.35 376.45 332.35 381.09 Z" fill="#7aa1f8" fill-opacity="0.6" fill-rule="nonzero" group-id="1,6" node-id="134" stroke="none" target-height="16.820007" target-width="16.820007" target-x="315.53" target-y="372.68"></path></g><g node-id="255"><path d="M 665.97 486.90 C 665.97 496.63 658.08 504.52 648.35 504.52 C 638.62 504.52 630.73 496.63 630.73 486.90 C 630.73 477.17 638.62 469.28 648.35 469.28 C 658.08 469.28 665.97 477.17 665.97 486.90 Z" fill="#7aa1f8" fill-opacity="0.6" fill-rule="nonzero" group-id="1,7" node-id="139" stroke="none" target-height="35.23999" target-width="35.23999" target-x="630.73" target-y="469.28"></path></g><g node-id="256"><path d="M 639.59 305.28 C 639.59 309.12 636.48 312.23 632.64 312.23 C 628.80 312.23 625.69 309.12 625.69 305.28 C 625.69 301.44 628.80 298.33 632.64 298.33 C 636.48 298.33 639.59 301.44 639.59 305.28 Z" fill="#7aa1f8" fill-opacity="0.6" fill-rule="nonzero" group-id="1,8" node-id="144" stroke="none" target-height="13.900024" target-width="13.900024" target-x="625.69" target-y="298.33"></path></g><g node-id="257"><path d="M 738.80 250.23 C 738.80 253.54 736.12 256.22 732.81 256.22 C 729.50 256.22 726.82 253.54 726.82 250.23 C 726.82 246.92 729.50 244.24 732.81 244.24 C 736.12 244.24 738.80 246.92 738.80 250.23 Z" fill="#7aa1f8" fill-opacity="0.6" fill-rule="nonzero" group-id="1,9" node-id="149" stroke="none" target-height="11.979996" target-width="11.97998" target-x="726.82" target-y="244.24"></path></g><g node-id="258"><path d="M 805.17 386.39 C 805.17 390.96 801.46 394.67 796.89 394.67 C 792.32 394.67 788.61 390.96 788.61 386.39 C 788.61 381.82 792.32 378.11 796.89 378.11 C 801.46 378.11 805.17 381.82 805.17 386.39 Z" fill="#7aa1f8" fill-opacity="0.6" fill-rule="nonzero" group-id="1,10" node-id="154" stroke="none" target-height="16.560028" target-width="16.559998" target-x="788.61" target-y="378.11"></path></g><g node-id="259"><path d="M 686.56 620.91 C 686.56 625.23 683.05 628.74 678.73 628.74 C 674.41 628.74 670.90 625.23 670.90 620.91 C 670.90 616.59 674.41 613.08 678.73 613.08 C 683.05 613.08 686.56 616.59 686.56 620.91 Z" fill="#7aa1f8" fill-opacity="0.6" fill-rule="nonzero" group-id="1,11" node-id="159" stroke="none" target-height="15.659973" target-width="15.659973" target-x="670.9" target-y="613.08"></path></g><g node-id="260"><path d="M 568.56 219.85 C 562.14 219.85 556.91 214.63 556.91 208.20 C 556.91 201.77 562.13 196.55 568.56 196.55 C 574.99 196.55 580.21 201.77 580.21 208.20 C 580.21 214.63 574.98 219.85 568.56 219.85 Z M 568.56 203.03 C 565.71 203.03 563.39 205.35 563.39 208.20 C 563.39 211.05 565.71 213.37 568.56 213.37 C 571.41 213.37 573.73 211.05 573.73 208.20 C 573.73 205.35 571.41 203.03 568.56 203.03 Z" fill="#7aa1f8" fill-opacity="0.6" fill-rule="nonzero" group-id="1,12" node-id="164" stroke="none" target-height="23.300003" target-width="23.300049" target-x="556.91" target-y="196.55"></path></g><g node-id="261"><path d="M 452.40 677.61 C 445.98 677.61 440.75 672.39 440.75 665.96 C 440.75 659.53 445.97 654.31 452.40 654.31 C 458.83 654.31 464.05 659.53 464.05 665.96 C 464.05 672.39 458.82 677.61 452.40 677.61 Z M 452.40 660.80 C 449.55 660.80 447.23 663.12 447.23 665.97 C 447.23 668.82 449.55 671.14 452.40 671.14 C 455.25 671.14 457.57 668.82 457.57 665.97 C 457.57 663.11 455.25 660.80 452.40 660.80 Z" fill="#7aa1f8" fill-opacity="0.6" fill-rule="nonzero" group-id="1,13" node-id="169" stroke="none" target-height="23.299988" target-width="23.299988" target-x="440.75" target-y="654.31"></path></g><g node-id="262"><path d="M 243.79 484.78 L 221.30 484.78 C 219.34 484.78 217.75 483.19 217.75 481.23 L 217.75 481.23 C 217.75 479.27 219.34 477.68 221.30 477.68 L 243.78 477.68 C 245.74 477.68 247.33 479.27 247.33 481.23 L 247.33 481.23 C 247.34 483.19 245.75 484.78 243.79 484.78 Z" fill="#7aa1f8" fill-opacity="0.6" fill-rule="nonzero" group-id="1,14" node-id="174" stroke="none" target-height="7.100006" target-width="29.589996" target-x="217.75" target-y="477.68"></path></g><g node-id="263"><path d="M 228.86 492.33 L 228.86 470.13 C 228.86 468.09 230.51 466.44 232.55 466.44 L 232.55 466.44 C 234.59 466.44 236.24 468.09 236.24 470.13 L 236.24 492.33 C 236.24 494.37 234.59 496.02 232.55 496.02 L 232.55 496.02 C 230.51 496.03 228.86 494.37 228.86 492.33 Z" fill="#7aa1f8" fill-opacity="0.6" fill-rule="nonzero" group-id="1,15" node-id="179" stroke="none" target-height="29.589996" target-width="7.380005" target-x="228.86" target-y="466.44"></path></g><g node-id="264"><path d="M 243.86 333.61 L 229.26 333.61 C 227.99 333.61 226.96 332.58 226.96 331.31 L 226.96 331.31 C 226.96 330.04 227.99 329.01 229.26 329.01 L 243.86 329.01 C 245.13 329.01 246.16 330.04 246.16 331.31 L 246.16 331.31 C 246.17 332.58 245.14 333.61 243.86 333.61 Z" fill="#7aa1f8" fill-opacity="0.6" fill-rule="nonzero" group-id="1,16" node-id="184" stroke="none" target-height="4.5999756" target-width="19.209991" target-x="226.96" target-y="329.01"></path></g><g node-id="265"><path d="M 234.17 338.52 L 234.17 324.10 C 234.17 322.78 235.24 321.70 236.57 321.70 L 236.57 321.70 C 237.89 321.70 238.97 322.77 238.97 324.10 L 238.97 338.51 C 238.97 339.83 237.90 340.91 236.57 340.91 L 236.57 340.91 C 235.24 340.91 234.17 339.84 234.17 338.52 Z" fill="#7aa1f8" fill-opacity="0.6" fill-rule="nonzero" group-id="1,17" node-id="189" stroke="none" target-height="19.209991" target-width="4.800003" target-x="234.17" target-y="321.7"></path></g><g node-id="266"><path d="M 435.00 289.66 C 428.33 279.97 421.66 270.29 414.99 260.60 C 416.12 258.45 417.25 256.30 418.38 254.16 C 423.35 254.42 428.33 254.69 433.30 254.95 C 433.86 266.52 434.43 278.09 435.00 289.66 Z" fill="#7aa1f8" fill-opacity="0.6" fill-rule="nonzero" group-id="1,18" node-id="194" stroke="none" target-height="35.5" target-width="20.01001" target-x="414.99" target-y="254.16"></path></g><g node-id="267"><path d="M 427.59 294.06 C 418.34 292.36 409.10 290.65 399.85 288.95 C 399.28 287.10 398.70 285.24 398.12 283.39 C 401.08 280.73 404.04 278.06 407.00 275.40 C 413.87 281.62 420.73 287.84 427.59 294.06 Z" fill="#7aa1f8" fill-opacity="0.6" fill-rule="nonzero" group-id="1,19" node-id="199" stroke="none" target-height="18.660004" target-width="29.470001" target-x="398.12" target-y="275.4"></path></g><path d="M 439.59 285.06 C 440.28 276.76 440.98 268.46 441.67 260.16 C 443.25 259.49 444.84 258.82 446.42 258.15 C 449.03 260.53 451.63 262.91 454.24 265.28 C 449.35 271.87 444.47 278.47 439.59 285.06 Z" fill="#7aa1f8" fill-opacity="0.6" fill-rule="nonzero" group-id="1,20" node-id="204" stroke="none" target-height="26.910004" target-width="14.649994" target-x="439.59" target-y="258.15"></path></g><g node-id="250"><path d="M 489.88 469.21 L 486.85 488.50 C 486.55 490.39 487.37 491.90 488.63 492.59 L 492.97 494.95 C 491.71 494.26 490.89 492.76 491.19 490.86 L 494.22 471.57 C 494.45 470.16 494.02 468.80 493.09 467.95 L 488.75 465.59 C 489.68 466.44 490.11 467.80 489.88 469.21 Z" fill="#75a2f2" fill-rule="nonzero" group-id="2" node-id="210" stroke="none" target-height="29.360016" target-width="7.9000244" target-x="486.55" target-y="465.59"></path><path d="M 543.69 437.84 C 543.65 437.82 543.61 437.80 543.57 437.78 C 543.39 437.69 543.21 437.63 543.01 437.57 C 542.99 437.56 542.98 437.56 542.96 437.55 C 542.96 437.55 542.96 437.55 542.95 437.55 C 542.69 437.48 542.42 437.45 542.13 437.44 L 524.58 437.16 C 524.30 437.15 524.03 437.12 523.78 437.05 C 523.76 437.04 523.74 437.03 523.72 437.03 C 523.48 436.96 523.25 436.88 523.04 436.76 C 523.04 436.76 523.04 436.76 523.04 436.76 L 527.38 439.12 C 527.42 439.14 527.46 439.16 527.50 439.18 C 527.68 439.27 527.87 439.34 528.07 439.39 C 528.09 439.40 528.11 439.41 528.12 439.41 C 528.12 439.41 528.12 439.41 528.13 439.41 C 528.38 439.48 528.65 439.51 528.93 439.52 L 546.48 439.80 L 546.48 439.80 C 546.77 439.80 547.05 439.84 547.31 439.91 C 547.33 439.91 547.34 439.92 547.36 439.93 C 547.60 440.00 547.83 440.08 548.04 440.20 L 543.69 437.84 Z" fill="#75a2f2" fill-rule="nonzero" group-id="2" node-id="212" stroke="none" target-height="3.4400024" target-width="25" target-x="523.04" target-y="436.76"></path><path d="M 512.27 417.60 C 512.23 417.58 512.18 417.57 512.13 417.55 C 512.00 417.49 511.88 417.45 511.74 417.41 C 511.71 417.40 511.68 417.38 511.64 417.37 C 511.60 417.36 511.56 417.36 511.52 417.35 C 511.37 417.32 511.23 417.30 511.08 417.28 C 511.01 417.27 510.95 417.27 510.89 417.26 C 510.68 417.25 510.46 417.26 510.25 417.29 L 510.25 417.29 C 510.06 417.32 509.87 417.36 509.69 417.41 C 509.63 417.43 509.57 417.45 509.51 417.47 C 509.38 417.51 509.26 417.56 509.14 417.61 C 509.12 417.62 509.10 417.62 509.08 417.63 C 509.04 417.65 509.00 417.68 508.96 417.70 C 508.82 417.77 508.68 417.85 508.54 417.94 C 508.51 417.96 508.47 417.98 508.43 418.00 C 508.40 418.02 508.36 418.06 508.33 418.08 C 508.25 418.14 508.17 418.20 508.09 418.27 C 508.05 418.31 508.00 418.34 507.96 418.37 C 507.93 418.40 507.89 418.44 507.86 418.47 C 507.80 418.53 507.74 418.59 507.68 418.65 C 507.64 418.69 507.60 418.72 507.57 418.76 C 507.53 418.81 507.49 418.86 507.46 418.91 C 507.41 418.97 507.36 419.04 507.31 419.11 C 507.28 419.14 507.26 419.17 507.23 419.21 C 507.19 419.27 507.15 419.34 507.12 419.40 C 507.07 419.48 507.01 419.56 506.97 419.65 C 506.95 419.68 506.93 419.71 506.91 419.74 C 506.84 419.87 506.77 420.01 506.71 420.16 L 498.84 438.42 C 498.77 438.57 498.70 438.72 498.62 438.86 C 498.54 439.00 498.46 439.14 498.37 439.27 C 498.35 439.30 498.34 439.33 498.32 439.35 C 498.21 439.50 498.10 439.65 497.98 439.78 C 497.95 439.81 497.92 439.84 497.89 439.87 C 497.79 439.97 497.70 440.08 497.59 440.17 C 497.55 440.21 497.51 440.24 497.47 440.27 C 497.36 440.36 497.26 440.45 497.15 440.53 C 497.10 440.56 497.05 440.59 497.01 440.62 C 496.86 440.72 496.70 440.81 496.54 440.89 C 496.50 440.91 496.45 440.94 496.41 440.96 C 496.24 441.04 496.06 441.11 495.87 441.17 L 478.31 446.39 C 478.10 446.45 477.91 446.53 477.72 446.62 C 477.72 446.62 477.71 446.62 477.71 446.62 C 477.69 446.63 477.67 446.65 477.65 446.66 C 477.47 446.75 477.29 446.85 477.12 446.96 C 477.10 446.97 477.08 446.98 477.06 446.99 C 477.00 447.03 476.94 447.09 476.88 447.14 C 476.80 447.20 476.72 447.26 476.65 447.32 C 476.63 447.34 476.61 447.35 476.59 447.36 C 476.52 447.42 476.46 447.49 476.40 447.55 C 476.35 447.61 476.29 447.66 476.24 447.72 C 476.23 447.73 476.22 447.74 476.20 447.76 C 476.13 447.84 476.08 447.92 476.01 448.00 C 475.96 448.06 475.91 448.12 475.87 448.18 C 475.86 448.19 475.86 448.20 475.85 448.21 C 475.81 448.27 475.77 448.34 475.73 448.41 C 475.67 448.51 475.60 448.60 475.55 448.70 C 475.54 448.71 475.54 448.72 475.53 448.73 C 475.51 448.77 475.50 448.81 475.48 448.85 C 475.40 449.01 475.33 449.16 475.27 449.32 C 475.26 449.35 475.24 449.38 475.23 449.41 C 475.21 449.46 475.20 449.51 475.18 449.57 C 475.14 449.68 475.11 449.79 475.08 449.90 C 475.06 449.99 475.04 450.08 475.02 450.17 C 475.00 450.28 474.98 450.39 474.96 450.50 C 474.95 450.59 474.94 450.68 474.93 450.77 C 474.92 450.88 474.92 450.99 474.92 451.10 C 474.92 451.19 474.92 451.28 474.92 451.36 C 474.93 451.47 474.94 451.58 474.95 451.69 C 474.96 451.78 474.97 451.86 474.99 451.95 C 475.01 452.06 475.04 452.17 475.07 452.28 C 475.09 452.36 475.11 452.44 475.14 452.52 C 475.18 452.63 475.23 452.74 475.28 452.84 C 475.31 452.91 475.34 452.98 475.38 453.05 C 475.44 453.16 475.52 453.27 475.59 453.38 C 475.63 453.43 475.66 453.49 475.70 453.55 C 475.82 453.71 475.96 453.86 476.11 454.00 L 476.11 454.00 L 488.78 465.57 L 493.12 467.93 L 480.45 456.36 L 478.28 455.18 L 480.45 456.36 C 480.30 456.22 480.16 456.07 480.04 455.91 C 480.00 455.86 479.97 455.80 479.93 455.75 C 479.86 455.64 479.78 455.53 479.72 455.42 C 479.68 455.35 479.66 455.28 479.62 455.21 C 479.57 455.10 479.52 455.00 479.48 454.89 C 479.45 454.81 479.43 454.73 479.41 454.65 C 479.38 454.54 479.35 454.43 479.33 454.32 C 479.31 454.24 479.30 454.15 479.29 454.07 C 479.28 453.96 479.26 453.85 479.26 453.74 C 479.26 453.65 479.26 453.56 479.26 453.48 C 479.26 453.37 479.26 453.26 479.27 453.14 C 479.28 453.05 479.29 452.96 479.30 452.87 C 479.32 452.76 479.33 452.65 479.36 452.54 C 479.38 452.45 479.40 452.36 479.42 452.28 C 479.45 452.17 479.48 452.06 479.52 451.95 C 479.55 451.87 479.57 451.79 479.61 451.71 C 479.67 451.55 479.74 451.39 479.82 451.24 C 479.85 451.19 479.87 451.13 479.90 451.08 C 479.95 450.98 480.02 450.89 480.08 450.79 C 480.13 450.71 480.17 450.64 480.22 450.56 C 480.26 450.50 480.31 450.44 480.36 450.38 C 480.43 450.29 480.50 450.19 480.58 450.10 C 480.63 450.04 480.69 449.99 480.74 449.94 C 480.82 449.86 480.90 449.78 480.99 449.70 C 481.06 449.64 481.14 449.58 481.22 449.52 C 481.30 449.46 481.38 449.40 481.46 449.34 C 481.63 449.23 481.80 449.13 481.99 449.04 C 482.01 449.03 482.04 449.01 482.06 449.00 C 482.25 448.91 482.45 448.84 482.65 448.77 L 500.21 443.55 C 500.39 443.49 500.57 443.42 500.75 443.34 C 500.77 443.33 500.78 443.33 500.80 443.32 C 500.83 443.31 500.86 443.28 500.89 443.27 C 501.05 443.19 501.21 443.10 501.36 443.00 C 501.39 442.98 501.42 442.97 501.45 442.95 C 501.47 442.94 501.49 442.92 501.51 442.91 C 501.62 442.83 501.73 442.74 501.83 442.66 C 501.86 442.63 501.90 442.61 501.93 442.58 C 501.94 442.57 501.94 442.56 501.95 442.56 C 502.05 442.47 502.15 442.36 502.25 442.26 C 502.28 442.23 502.31 442.21 502.33 442.18 C 502.33 442.18 502.33 442.17 502.34 442.17 C 502.46 442.03 502.58 441.89 502.68 441.74 C 502.68 441.74 502.68 441.74 502.69 441.73 C 502.71 441.70 502.72 441.68 502.74 441.65 C 502.83 441.52 502.91 441.38 502.99 441.24 C 503.00 441.23 503.01 441.22 503.01 441.20 C 503.08 441.07 503.15 440.93 503.21 440.79 L 511.08 422.53 C 511.16 422.35 511.25 422.18 511.34 422.02 C 511.39 421.93 511.44 421.85 511.49 421.77 C 511.55 421.67 511.62 421.57 511.68 421.48 C 511.73 421.41 511.78 421.35 511.83 421.29 C 511.90 421.20 511.98 421.11 512.06 421.03 C 512.12 420.97 512.18 420.91 512.24 420.85 C 512.32 420.78 512.39 420.71 512.47 420.64 C 512.55 420.58 512.63 420.51 512.71 420.45 C 512.78 420.40 512.85 420.35 512.92 420.31 C 513.06 420.22 513.20 420.14 513.34 420.07 C 513.40 420.04 513.46 420.01 513.52 419.98 C 513.64 419.92 513.77 419.88 513.89 419.84 C 513.95 419.82 514.01 419.79 514.07 419.78 C 514.26 419.73 514.45 419.68 514.63 419.66 C 514.85 419.63 515.06 419.62 515.27 419.63 C 515.34 419.63 515.40 419.64 515.46 419.65 C 515.61 419.66 515.76 419.68 515.90 419.72 C 515.97 419.74 516.04 419.75 516.11 419.77 C 516.24 419.81 516.37 419.86 516.50 419.91 C 516.58 419.95 516.67 419.98 516.75 420.02 L 512.41 417.66 C 512.35 417.64 512.31 417.62 512.27 417.60 Z" fill="#75a2f2" fill-rule="nonzero" group-id="2" node-id="214" stroke="none" target-height="50.679993" target-width="41.829987" target-x="474.92" target-y="417.25"></path></g><g node-id="251"><path d="M 656.19 545.96 L 517.14 593.10 L 517.14 374.83 L 656.19 327.68 Z" fill="url(#SVGID_4_)" fill-rule="nonzero" group-id="3" node-id="219" stroke="none" target-height="265.41998" target-width="139.04999" target-x="517.14" target-y="327.68"></path><path d="M 366.75 565.00 L 517.14 594.46 L 517.14 376.19 L 366.75 346.72 Z" fill="url(#SVGID_5_)" fill-rule="nonzero" group-id="3" node-id="221" stroke="none" target-height="247.74002" target-width="150.39001" target-x="366.75" target-y="346.72"></path><path d="M 656.20 327.66 L 517.12 376.21 L 483.12 369.56 L 410.69 355.35 L 366.72 346.75 L 512.88 300.78 L 546.29 307.03 L 608.40 318.70 Z" fill="url(#SVGID_6_)" fill-rule="nonzero" group-id="3" node-id="223" stroke="none" target-height="75.42999" target-width="289.48" target-x="366.72" target-y="300.78"></path><g node-id="269"><path d="M 608.40 318.70 C 566.62 335.67 524.89 352.59 483.11 369.56 C 483.11 384.82 483.05 400.26 483.05 415.59 C 483.05 415.65 483.05 415.65 483.05 415.65 C 483.05 419.83 475.98 424.20 473.86 422.07 C 472.80 421.01 473.80 419.24 472.62 417.18 C 471.26 414.82 468.38 414.12 466.20 414.47 C 461.49 415.35 460.37 421.54 457.89 420.95 C 455.00 420.30 455.47 411.82 452.17 410.70 C 449.28 409.70 447.34 415.94 443.68 415.36 C 439.85 414.83 439.61 407.70 435.31 406.70 C 431.71 405.82 430.30 410.59 426.82 409.82 C 422.11 408.76 421.57 399.45 417.21 398.68 C 415.74 398.39 413.56 399.09 410.67 403.10 L 410.67 355.37 C 455.87 339.22 501.07 323.13 546.27 307.05 L 608.40 318.70 Z" fill="#dee9fd" fill-opacity="0.6" fill-rule="nonzero" group-id="3,21" node-id="227" stroke="none" target-height="117.150024" target-width="197.73001" target-x="410.67" target-y="307.05"></path></g><path d="M 599.37 419.66 C 600.78 419.46 602.19 420.06 602.92 421.54 L 610.73 437.60 C 611.30 438.78 612.42 439.50 613.71 439.52 L 631.26 439.80 C 634.50 439.85 635.79 443.98 633.44 446.78 L 620.72 461.92 C 619.78 463.03 619.35 464.51 619.58 465.86 L 622.54 484.30 C 622.97 487.00 620.93 489.53 618.63 489.85 C 618.02 489.94 617.39 489.87 616.79 489.61 L 601.11 482.91 C 600.53 482.66 599.90 482.59 599.27 482.68 C 598.64 482.77 598.00 483.02 597.43 483.43 L 581.72 494.54 C 581.11 494.97 580.49 495.22 579.88 495.30 C 577.58 495.62 575.55 493.67 575.99 490.84 L 579.02 471.55 C 579.25 470.14 578.82 468.78 577.89 467.93 L 565.22 456.36 C 562.88 454.22 564.18 449.73 567.43 448.76 L 584.99 443.54 C 586.28 443.15 587.40 442.12 587.97 440.78 L 595.84 422.52 C 596.54 420.85 597.96 419.86 599.37 419.66 Z" fill="#dee9fd" fill-rule="nonzero" group-id="3" node-id="230" stroke="#ffffff" stroke-linecap="butt" stroke-width="2" target-height="76.16" target-width="72.90997" target-x="562.88" target-y="419.46"></path></g><g node-id="252"><path d="M 503.24 305.12 C 504.97 305.12 506.38 306.64 506.38 308.52 L 506.38 318.98 C 506.38 320.86 504.98 322.38 503.24 322.38 C 501.50 322.38 500.10 320.86 500.10 318.98 L 500.10 308.52 C 500.10 306.65 501.50 305.12 503.24 305.12 Z" fill="#f5986a" fill-rule="evenodd" group-id="4" id="圆角矩形-5_8_" node-id="69" stroke="none" target-height="17.26001" target-width="6.279999" target-x="500.1" target-y="305.12"></path><path d="M 499.05 299.37 C 504.65 298.99 505.51 302.72 505.36 305.59 C 505.66 305.34 506.03 305.10 506.37 305.12 C 507.53 305.19 507.42 306.69 507.42 306.69 C 507.42 306.69 507.57 307.31 506.90 308.26 C 506.40 308.98 505.00 309.56 504.48 309.76 L 504.28 310.36 C 504.28 310.36 503.45 312.13 502.71 312.97 C 501.67 314.16 501.14 314.54 501.14 314.54 C 501.14 314.54 500.14 315.31 499.05 315.59 C 498.05 315.84 496.96 315.59 496.96 315.59 C 496.96 315.59 495.64 315.43 495.39 313.50 C 495.24 312.31 495.18 310.82 495.18 309.34 L 495.18 308.97 C 495.20 306.16 495.39 303.56 495.39 303.56 C 495.39 303.56 495.72 299.60 499.05 299.37 Z" fill="#f8ad72" fill-rule="evenodd" group-id="4" id="Combined-shape-564_8_" node-id="70" stroke="none" target-height="16.850006" target-width="12.390015" target-x="495.18" target-y="298.99"></path><path d="M 501.14 304.08 C 501.14 304.08 497.72 304.73 495.91 304.08 C 494.06 303.42 493.82 301.47 493.82 301.47 C 493.82 301.47 493.77 300.01 494.34 298.86 C 494.79 297.95 495.91 297.29 495.91 297.29 C 495.91 297.29 496.86 296.59 498.00 296.77 C 498.91 296.91 499.57 297.82 499.57 297.82 C 499.57 297.82 500.76 299.00 501.66 299.39 C 502.59 299.79 503.75 299.39 503.75 299.39 C 503.75 299.39 505.57 298.97 506.89 300.44 C 508.89 302.67 508.46 305.67 508.46 305.67 C 508.46 305.67 508.13 307.62 507.41 309.33 C 506.83 310.73 505.84 311.42 505.84 311.42 C 505.84 311.42 505.32 311.80 504.79 311.42 C 504.20 310.99 504.79 310.37 504.79 310.37 L 505.31 309.32 C 505.31 309.32 507.37 309.32 507.40 306.18 C 507.41 305.66 506.35 305.66 506.35 305.66 C 506.35 305.66 505.75 305.65 505.30 306.18 C 505.05 306.47 504.78 307.75 504.78 307.75 C 504.78 307.75 504.56 305.20 503.73 304.61 C 502.77 303.90 501.14 304.08 501.14 304.08 Z" fill="#272b73" fill-rule="evenodd" group-id="4" id="形状-17_8_" node-id="71" stroke="none" target-height="15.209991" target-width="15.120026" target-x="493.77" target-y="296.59"></path><path d="M 462.28 370.17 L 462.09 375.92 L 446.41 375.40 C 446.41 375.40 446.32 373.66 448.08 372.32 C 449.84 370.98 453.34 371.45 453.34 371.45 C 453.34 371.45 454.56 371.55 455.45 371.00 C 456.14 370.57 456.53 369.99 456.53 369.99 L 462.28 370.17 Z" fill="#262a71" fill-rule="evenodd" group-id="4" id="形状-30-拷贝_7_" node-id="72" stroke="none" target-height="5.930023" target-width="15.959991" target-x="446.32" target-y="369.99"></path><path d="M 479.29 372.35 L 479.29 378.10 L 463.60 378.10 C 463.60 378.10 463.45 376.37 465.17 374.96 C 466.88 373.56 470.40 373.91 470.40 373.91 C 470.40 373.91 471.62 373.97 472.49 373.39 C 473.16 372.94 473.54 372.34 473.54 372.34 L 479.29 372.34 Z" fill="#2b3682" fill-rule="evenodd" group-id="4" id="形状-30_8_" node-id="73" stroke="none" target-height="5.76001" target-width="15.839996" target-x="463.45" target-y="372.34"></path><path d="M 517.35 362.90 L 517.35 326.57 C 517.35 326.57 517.39 324.58 516.31 322.91 C 515.24 321.25 513.17 320.29 513.17 320.29 L 506.37 316.63 C 506.37 316.63 505.80 318.13 504.80 319.24 C 503.49 320.70 501.66 321.86 501.66 321.86 C 501.66 321.86 500.96 321.50 500.62 320.81 C 500.18 319.95 500.09 318.72 500.09 318.72 C 500.09 318.72 496.28 319.06 493.82 321.34 C 491.56 323.43 491.20 326.04 491.20 326.04 L 491.20 344.48 L 491.20 350.02 L 491.20 361.50 L 491.20 362.56 C 491.79 362.88 492.35 363.14 492.86 363.38 C 499.15 366.30 501.98 365.64 502.84 365.40 C 503.63 365.18 504.34 364.87 504.98 364.50 C 506.34 365.46 507.57 366.26 508.73 366.83 L 515.10 366.83 L 517.35 362.90 Z" fill="#7aa1f8" fill-rule="evenodd" group-id="4" node-id="240" stroke="none" target-height="50.19998" target-width="26.190002" target-x="491.2" target-y="316.63"></path><path d="M 529.47 359.07 C 529.47 359.07 531.56 360.71 532.21 361.55 C 532.75 362.24 531.19 362.13 531.19 362.13 C 531.19 362.13 531.13 362.57 531.77 363.15 C 532.04 363.40 533.13 363.96 533.39 364.11 C 533.83 364.36 533.94 364.61 533.94 364.61 C 533.94 364.61 534.84 366.53 531.44 366.83 C 529.55 367.00 524.99 363.49 524.99 363.49 L 529.47 359.07 Z" fill="#ef8d61" fill-rule="evenodd" group-id="4" id="形状-26_7_" node-id="75" stroke="none" target-height="7.9299927" target-width="9.850037" target-x="524.99" target-y="359.07"></path><path d="M 516.53 323.74 C 520.86 335.39 525.18 347.05 529.51 358.70 C 527.89 359.57 526.28 360.43 524.66 361.30 C 521.79 353.97 518.93 346.65 516.06 339.32 C 516.22 334.12 516.38 328.93 516.53 323.74 Z" fill="#7aa1f8" fill-rule="evenodd" group-id="4" node-id="243" stroke="none" target-height="37.559998" target-width="13.450012" target-x="516.06" target-y="323.74"></path><path d="M 509.19 360.38 C 508.53 361.42 507.16 363.27 504.98 364.50 C 504.34 364.87 503.63 365.18 502.84 365.40 C 501.98 365.64 499.15 366.30 492.86 363.38 C 492.35 363.14 491.79 362.88 491.20 362.56 C 491.04 362.48 490.87 362.40 490.70 362.30 C 488.47 361.10 485.78 359.38 482.96 356.91 C 482.01 356.08 481.04 355.16 480.06 354.15 C 478.72 356.36 477.10 358.74 475.15 361.19 C 471.83 365.36 468.42 368.62 465.40 371.11 C 462.90 370.09 460.40 369.07 457.90 368.06 C 464.67 360.25 471.44 352.44 478.21 344.63 C 481.42 345.77 484.83 347.11 488.39 348.72 C 489.32 349.13 490.25 349.56 491.20 350.02 C 491.39 350.11 491.58 350.20 491.77 350.29 C 498.51 353.54 504.32 357.05 509.19 360.38 Z" fill="#151145" fill-rule="evenodd" group-id="4" node-id="245" stroke="none" target-height="26.47998" target-width="51.29001" target-x="457.9" target-y="344.63"></path><path d="M 517.35 362.90 C 517.35 363.40 517.27 363.89 517.11 364.36 C 516.70 365.53 515.84 366.34 515.10 366.83 C 514.44 367.29 513.87 367.49 513.81 367.52 C 512.22 368.08 510.58 367.75 508.73 366.83 C 507.57 366.26 506.34 365.46 504.98 364.50 C 504.15 363.92 503.27 363.28 502.34 362.59 C 500.20 361.01 497.37 358.70 494.34 355.52 C 493.52 357.37 492.49 359.39 491.20 361.50 C 491.04 361.77 490.88 362.03 490.70 362.30 C 490.56 362.53 490.42 362.75 490.27 362.98 C 486.98 367.98 483.35 371.65 480.34 374.21 C 477.91 373.29 475.47 372.36 473.04 371.44 C 473.63 370.70 474.22 369.95 474.81 369.21 C 477.52 365.11 480.24 361.01 482.96 356.91 C 484.77 354.18 486.58 351.45 488.39 348.72 C 489.33 347.30 490.26 345.89 491.20 344.48 C 491.63 343.83 492.07 343.17 492.50 342.52 C 498.92 344.28 503.42 347.02 506.19 349.06 C 507.53 350.04 517.35 357.23 517.35 362.90 Z" fill="#27327b" fill-rule="evenodd" group-id="4" node-id="247" stroke="none" target-height="31.690002" target-width="44.309967" target-x="473.04" target-y="342.52"></path></g></svg>