<?xml version="1.0" standalone="no"?><!DOCTYPE svg PUBLIC "-//W3C//DTD SVG 1.1//EN" "http://www.w3.org/Graphics/SVG/1.1/DTD/svg11.dtd"><svg height="2588" node-id="1" sillyvg="true" template-height="2588" template-width="3132" version="1.1" viewBox="0 0 3132 2588" width="3132" xmlns="http://www.w3.org/2000/svg" xmlns:xlink="http://www.w3.org/1999/xlink"><defs node-id="83"><linearGradient gradientUnits="userSpaceOnUse" id="paint0_linear_7_586" node-id="22" spreadMethod="pad" x1="2047.24" x2="2047.24" y1="493.782" y2="218.018"><stop offset="0" stop-color="#ffffff" stop-opacity="0.1"></stop><stop offset="0.14" stop-color="#f8fbff" stop-opacity="0.27"></stop><stop offset="0.37" stop-color="#edf5ff" stop-opacity="0.52"></stop><stop offset="0.58" stop-color="#e4f0ff" stop-opacity="0.73"></stop><stop offset="0.76" stop-color="#deecff" stop-opacity="0.88"></stop><stop offset="0.91" stop-color="#daeaff" stop-opacity="0.97"></stop><stop offset="1" stop-color="#d9e9ff"></stop></linearGradient><linearGradient gradientUnits="userSpaceOnUse" id="paint1_linear_7_586" node-id="30" spreadMethod="pad" x1="290.49" x2="721.267" y1="864.663" y2="301.219"><stop offset="0" stop-color="#ffffff" stop-opacity="0.1"></stop><stop offset="0.09" stop-color="#fefeff" stop-opacity="0.13"></stop><stop offset="0.23" stop-color="#fbfcff" stop-opacity="0.21"></stop><stop offset="0.4" stop-color="#f5f9ff" stop-opacity="0.33"></stop><stop offset="0.59" stop-color="#eef5ff" stop-opacity="0.51"></stop><stop offset="0.79" stop-color="#e4efff" stop-opacity="0.74"></stop><stop offset="1" stop-color="#d9e9ff"></stop></linearGradient><linearGradient gradientUnits="userSpaceOnUse" id="paint2_linear_7_586" node-id="38" spreadMethod="pad" x1="2331.5" x2="2804" y1="713" y2="95"><stop offset="0" stop-color="#ffffff" stop-opacity="0.1"></stop><stop offset="0.09" stop-color="#fefeff" stop-opacity="0.13"></stop><stop offset="0.23" stop-color="#fbfcff" stop-opacity="0.21"></stop><stop offset="0.4" stop-color="#f5f9ff" stop-opacity="0.33"></stop><stop offset="0.59" stop-color="#eef5ff" stop-opacity="0.51"></stop><stop offset="0.79" stop-color="#e4efff" stop-opacity="0.74"></stop><stop offset="1" stop-color="#d9e9ff"></stop></linearGradient><linearGradient gradientUnits="userSpaceOnUse" id="paint3_linear_7_586" node-id="46" spreadMethod="pad" x1="1692.27" x2="1737.27" y1="2617.5" y2="1359.5"><stop offset="0.2597" stop-color="#ffffff"></stop><stop offset="1" stop-color="#6397f7"></stop></linearGradient><linearGradient gradientUnits="userSpaceOnUse" id="paint4_linear_7_586" node-id="49" spreadMethod="pad" x1="2791.93" x2="2635.5" y1="1877.05" y2="1879.51"><stop offset="0" stop-color="#f3f8ff"></stop><stop offset="1" stop-color="#e4efff"></stop></linearGradient><linearGradient gradientUnits="userSpaceOnUse" id="paint5_linear_7_586" node-id="52" spreadMethod="pad" x1="3079.86" x2="2923.43" y1="2021.02" y2="2023.48"><stop offset="0" stop-color="#f3f8ff"></stop><stop offset="1" stop-color="#e4efff"></stop></linearGradient><linearGradient gradientUnits="userSpaceOnUse" id="paint6_linear_7_586" node-id="55" spreadMethod="pad" x1="529.695" x2="309.949" y1="2061.96" y2="2065.38"><stop offset="0" stop-color="#f3f8ff"></stop><stop offset="1" stop-color="#e4efff"></stop></linearGradient><linearGradient gradientUnits="userSpaceOnUse" id="paint7_linear_7_586" node-id="58" spreadMethod="pad" x1="1364" x2="1808.43" y1="2047" y2="2285.17"><stop offset="0" stop-color="#5a91f7" stop-opacity="0.21"></stop><stop offset="0.9749" stop-color="#ffffff" stop-opacity="0.3"></stop></linearGradient><linearGradient gradientUnits="userSpaceOnUse" id="paint8_linear_7_586" node-id="61" spreadMethod="pad" x1="2057" x2="1031.92" y1="1718.5" y2="738.577"><stop offset="0" stop-color="#5a91f7"></stop><stop offset="1" stop-color="#d9e9ff"></stop></linearGradient><linearGradient gradientUnits="userSpaceOnUse" id="paint9_linear_7_586" node-id="64" spreadMethod="pad" x1="1198" x2="1391" y1="639" y2="775"><stop offset="0" stop-color="#ffffff"></stop><stop offset="1" stop-color="#d3e2fb"></stop></linearGradient><linearGradient gradientUnits="userSpaceOnUse" id="paint10_linear_7_586" node-id="67" spreadMethod="pad" x1="1496" x2="1697" y1="952" y2="1160"><stop offset="0" stop-color="#ecf2ff"></stop><stop offset="1" stop-color="#cfdffa"></stop></linearGradient><linearGradient gradientUnits="userSpaceOnUse" id="paint11_linear_7_586" node-id="70" spreadMethod="pad" x1="185.5" x2="2251.29" y1="1497.5" y2="1072.07"><stop offset="0" stop-color="#e4f0ff"></stop><stop offset="1" stop-color="#6ca7ff"></stop></linearGradient><linearGradient gradientUnits="userSpaceOnUse" id="paint12_linear_7_586" node-id="73" spreadMethod="pad" x1="1027" x2="781.5" y1="1385.5" y2="1223.5"><stop offset="0" stop-color="#e2eeff"></stop><stop offset="1" stop-color="#e2eeff" stop-opacity="0"></stop></linearGradient><linearGradient gradientUnits="userSpaceOnUse" id="paint13_linear_7_586" node-id="76" spreadMethod="pad" x1="2281" x2="2340.49" y1="595" y2="40.8896"><stop offset="0" stop-color="#5792f0"></stop><stop offset="1" stop-color="#f3f8ff"></stop></linearGradient><linearGradient gradientUnits="userSpaceOnUse" id="paint14_linear_7_586" node-id="79" spreadMethod="pad" x1="1941.5" x2="1833.5" y1="408.5" y2="-0.00000113285"><stop offset="0" stop-color="#5792f0"></stop><stop offset="1" stop-color="#f3f8ff"></stop></linearGradient></defs><path d="M 2235.74 322.73 C 2215.69 291.24 2181.74 271.72 2144.81 270.38 C 2123.31 237.10 2086.45 217.35 2047.21 218.02 C 2015.80 217.72 1985.54 230.24 1963.29 252.82 C 1953.12 249.54 1942.50 247.83 1931.84 247.83 C 1882.42 247.83 1841.62 282.49 1837.41 326.35 C 1799.73 335.44 1772.60 368.79 1771.00 408.03 C 1771.00 455.29 1813.71 493.78 1865.43 493.78 L 2228.10 493.78 C 2280.57 493.78 2322.53 455.29 2322.53 408.03 C 2323.35 363.13 2284.56 326.24 2235.74 322.73 Z" fill="url(#paint0_linear_7_586)" fill-rule="nonzero" node-id="206" stroke="none" target-height="276.43604" target-width="552.3501" target-x="1771" target-y="217.346"></path><path d="M 836.18 443.00 L 774.96 443.00 C 774.96 320.36 675.55 221.00 553.02 221.00 C 430.41 221.00 331.09 320.36 331.09 443.00 L 286.36 443.00 C 229.92 443.00 184.27 492.68 184.27 554.00 C 184.27 615.32 230.00 665.00 286.36 665.00 L 836.18 665.00 C 892.55 665.00 938.27 615.32 938.27 554.00 C 938.27 492.68 892.55 443.00 836.18 443.00 Z" fill="url(#paint1_linear_7_586)" fill-rule="nonzero" node-id="208" stroke="none" target-height="444" target-width="754" target-x="184.273" target-y="221"></path><path d="M 2930.02 250.50 L 2862.89 250.50 C 2862.89 115.93 2753.86 7.00 2619.47 7.00 C 2485.07 7.00 2376.04 115.93 2376.04 250.50 L 2326.97 250.50 C 2265.09 250.50 2215.00 304.97 2215.00 372.25 C 2215.00 439.40 2265.09 494.00 2326.97 494.00 L 2930.02 494.00 C 2991.91 494.00 3042.00 439.40 3042.00 372.25 C 3042.00 304.97 2991.91 250.50 2930.02 250.50 Z" fill="url(#paint2_linear_7_586)" fill-rule="nonzero" node-id="210" stroke="none" target-height="487" target-width="827" target-x="2215" target-y="7"></path><path d="M 1522.45 1760.04 C 1964.28 1760.04 2362.13 1796.10 2640.28 1853.61 C 2912.30 1855.49 3131.28 1936.90 3131.28 2037.17 C 3131.28 2116.64 2993.71 2184.31 2801.23 2209.86 C 2755.31 2223.39 2703.55 2236.21 2646.76 2248.16 C 2648.27 2255.71 2648.99 2263.42 2648.99 2271.12 C 2648.99 2446.04 2268.70 2587.84 1799.58 2587.84 C 1377.55 2587.84 1027.35 2473.03 961.34 2322.66 C 398.21 2279.90 0.00 2174.66 0.00 2051.57 C 0.00 1890.54 681.61 1760.04 1522.45 1760.04 Z" fill="url(#paint3_linear_7_586)" fill-opacity="0.68" fill-rule="evenodd" node-id="212" stroke="none" target-height="827.80005" target-width="3131.28" target-x="0" target-y="1760.04"></path><path d="M 2809.58 1656.16 L 2811.81 1663.72 L 2813.69 1670.85 L 2814.55 1676.61 L 2812.82 1688.41 L 2807.78 1698.63 L 2800.01 1706.91 L 2790.22 1712.60 L 2781.72 1713.03 L 2773.59 1713.46 L 2765.02 1713.46 L 2694.91 1714.40 L 2694.91 1788.61 L 2695.56 1821.73 L 2697.14 1851.74 L 2699.38 1882.41 L 2634.59 1882.41 L 2635.96 1865.06 L 2636.82 1837.27 L 2637.33 1790.41 L 2637.33 1722.39 L 2629.12 1727.43 L 2620.19 1729.08 L 2612.92 1728.15 L 2606.95 1725.48 L 2601.84 1721.31 L 2597.73 1715.69 L 2546.84 1713.03 L 2533.24 1707.56 L 2522.15 1698.13 L 2516.61 1690.14 L 2513.37 1681.29 L 2512.22 1671.28 L 2512.65 1666.39 L 2514.02 1661.92 L 2525.25 1636.15 L 2527.12 1626.65 L 2530.86 1617.94 L 2536.26 1610.02 L 2542.81 1603.26 L 2613.43 1473.90 L 2613.86 1473.90 L 2623.36 1459.29 L 2634.16 1447.20 L 2642.51 1441.15 L 2652.44 1437.41 L 2664.25 1436.11 L 2679.72 1438.27 L 2693.33 1444.53 L 2704.49 1454.32 L 2712.40 1466.78 L 2769.13 1576.55 L 2778.70 1581.01 L 2787.05 1587.20 L 2794.32 1595.27 L 2799.79 1604.55 L 2803.10 1614.70 L 2804.18 1625.93 L 2801.95 1641.05 L 2809.58 1656.16 Z" fill="url(#paint4_linear_7_586)" fill-rule="nonzero" node-id="214" stroke="none" target-height="446.30005" target-width="302.33008" target-x="2512.22" target-y="1436.11"></path><path d="M 3097.52 1800.13 L 3099.75 1807.69 L 3101.62 1814.82 L 3102.48 1820.57 L 3100.75 1832.38 L 3095.72 1842.60 L 3087.94 1850.88 L 3078.15 1856.57 L 3069.66 1857.00 L 3061.52 1857.43 L 3052.96 1857.43 L 2982.85 1858.37 L 2982.85 1932.58 L 2983.49 1965.69 L 2985.08 1995.71 L 2987.31 2026.37 L 2922.52 2026.37 L 2923.89 2009.03 L 2924.76 1981.24 L 2925.26 1934.38 L 2925.26 1866.36 L 2917.05 1871.39 L 2908.13 1873.05 L 2900.86 1872.11 L 2894.88 1869.45 L 2889.77 1865.28 L 2885.67 1859.66 L 2834.78 1857.00 L 2821.17 1851.53 L 2810.09 1842.10 L 2804.54 1834.11 L 2801.30 1825.25 L 2800.15 1815.25 L 2800.58 1810.35 L 2801.95 1805.89 L 2813.18 1780.12 L 2815.05 1770.62 L 2818.80 1761.91 L 2824.19 1753.99 L 2830.75 1747.22 L 2901.36 1617.87 L 2901.79 1617.87 L 2911.29 1603.26 L 2922.09 1591.16 L 2930.44 1585.12 L 2940.38 1581.37 L 2952.18 1580.08 L 2967.66 1582.24 L 2981.26 1588.50 L 2992.42 1598.29 L 3000.34 1610.74 L 3057.06 1720.52 L 3066.63 1724.98 L 3074.98 1731.17 L 3082.26 1739.23 L 3087.73 1748.52 L 3091.04 1758.67 L 3092.12 1769.90 L 3089.89 1785.01 L 3097.52 1800.13 Z" fill="url(#paint5_linear_7_586)" fill-rule="nonzero" node-id="216" stroke="none" target-height="446.29004" target-width="302.33008" target-x="2800.15" target-y="1580.08"></path><path d="M 554.49 1748.45 L 557.65 1759.17 L 560.17 1769.25 L 561.47 1777.46 L 560.39 1788.90 L 557.22 1799.27 L 551.97 1808.70 L 541.10 1820.43 L 527.35 1828.56 L 515.33 1829.21 L 503.96 1829.79 L 491.93 1829.79 L 393.39 1831.08 L 393.39 1936.47 L 394.32 1983.47 L 396.48 2026.01 L 399.65 2069.56 L 308.67 2069.56 L 310.54 2044.95 L 311.83 2005.50 L 312.48 1938.99 L 312.48 1842.46 L 304.85 1847.78 L 296.93 1850.88 L 288.44 1851.89 L 278.29 1850.59 L 269.79 1846.85 L 262.67 1840.95 L 256.84 1832.96 L 185.43 1829.21 L 172.26 1824.53 L 160.74 1817.55 L 150.66 1808.05 L 142.96 1796.68 L 138.35 1784.08 L 136.77 1769.90 L 137.42 1762.92 L 139.29 1756.65 L 155.12 1720.01 L 157.72 1706.62 L 162.97 1694.17 L 170.53 1682.94 L 179.74 1673.37 L 278.94 1489.74 L 279.58 1489.74 L 292.90 1469.01 L 308.02 1451.88 L 319.82 1443.24 L 333.71 1437.98 L 350.42 1436.11 L 365.17 1437.48 L 378.70 1441.44 L 391.16 1448.13 L 402.17 1456.99 L 411.10 1467.42 L 418.01 1479.66 L 497.62 1635.51 L 511.08 1641.77 L 522.82 1650.55 L 533.04 1662.00 L 540.74 1675.17 L 545.35 1689.56 L 546.93 1705.54 L 546.21 1715.69 L 543.76 1727.00 L 554.49 1748.45 Z" fill="url(#paint6_linear_7_586)" fill-rule="nonzero" node-id="218" stroke="none" target-height="633.4501" target-width="424.701" target-x="136.769" target-y="1436.11"></path><path d="M 1789.69 2102.17 C 1789.69 2142.08 1665.63 2174.44 1512.66 2174.44 C 1359.69 2174.44 1235.62 2142.08 1235.62 2102.17 C 1235.62 2062.26 1359.69 2029.90 1512.66 2029.90 C 1665.63 2029.90 1789.69 2062.26 1789.69 2102.17 Z" fill="url(#paint7_linear_7_586)" fill-opacity="0.68" fill-rule="nonzero" node-id="220" stroke="none" target-height="144.53992" target-width="554.06995" target-x="1235.62" target-y="2029.9"></path><path d="M 1938.09 955.97 L 1354.39 955.97 L 1337.12 957.66 L 1324.20 962.24 L 1314.56 969.22 L 1307.49 978.94 L 1303.00 991.87 L 1301.31 1009.05 L 1303.00 1026.23 L 1307.49 1039.16 L 1314.56 1048.88 L 1324.20 1055.86 L 1337.12 1060.44 L 1354.39 1062.13 L 1938.09 1062.13 L 1955.27 1060.44 L 1968.20 1055.86 L 1977.84 1048.88 L 1984.90 1039.16 L 1989.48 1026.23 L 1991.09 1009.05 L 1989.48 991.87 L 1984.90 978.94 L 1977.84 969.22 L 1968.20 962.24 L 1955.27 957.66 L 1938.09 955.97 Z" fill="#ffffff" fill-rule="nonzero" node-id="222" stroke="none" target-height="106.15802" target-width="689.7799" target-x="1301.31" target-y="955.972"></path><path d="M 1938.09 1221.28 L 1513.54 1221.28 L 1496.36 1222.97 L 1483.43 1227.55 L 1473.71 1234.61 L 1466.73 1244.25 L 1462.15 1257.18 L 1460.46 1274.36 L 1462.15 1291.55 L 1466.73 1304.47 L 1473.71 1314.19 L 1483.43 1321.26 L 1496.36 1325.75 L 1513.54 1327.44 L 1938.09 1327.44 L 1955.27 1325.75 L 1968.20 1321.26 L 1977.84 1314.19 L 1984.90 1304.47 L 1989.48 1291.55 L 1991.09 1274.36 L 1989.48 1257.18 L 1984.90 1244.25 L 1977.84 1234.61 L 1968.20 1227.55 L 1955.27 1222.97 L 1938.09 1221.28 Z" fill="#ffffff" fill-rule="nonzero" node-id="224" stroke="none" target-height="106.15991" target-width="530.63" target-x="1460.46" target-y="1221.28"></path><path d="M 729.98 1168.85 L 732.63 1231.16 L 739.93 1291.30 L 751.82 1349.44 L 768.28 1405.89 L 789.16 1461.14 L 813.81 1513.82 L 842.32 1563.92 L 874.68 1611.78 L 910.73 1657.15 L 949.68 1699.23 L 991.75 1738.17 L 1037.04 1774.15 L 1084.90 1806.51 L 1135.09 1835.02 L 1187.69 1859.75 L 1242.93 1880.63 L 1299.38 1897.09 L 1357.60 1908.97 L 1417.75 1916.20 L 1480.06 1918.85 L 1542.29 1916.20 L 1602.44 1908.97 L 1660.65 1897.09 L 1717.10 1880.63 L 1772.35 1859.75 L 1824.95 1835.02 L 1875.13 1806.51 L 1922.99 1774.15 L 1968.28 1738.17 L 2010.36 1699.23 L 2049.39 1657.15 L 2085.36 1611.78 L 2117.72 1563.92 L 2146.23 1513.82 L 2170.88 1461.14 L 2191.84 1405.89 L 2208.22 1349.44 L 2220.10 1291.30 L 2227.41 1231.16 L 2230.06 1168.85 L 2227.41 1106.53 L 2220.10 1046.47 L 2208.22 988.25 L 2191.84 931.80 L 2170.88 876.55 L 2146.23 823.96 L 2117.72 773.77 L 2085.36 725.91 L 2049.39 680.62 L 2010.36 638.54 L 1968.28 599.52 L 1922.99 563.54 L 1875.13 531.18 L 1824.95 502.68 L 1772.35 477.94 L 1717.10 457.07 L 1660.65 440.69 L 1602.44 428.80 L 1542.29 421.50 L 1480.06 418.85 L 1417.75 421.50 L 1357.60 428.80 L 1299.38 440.69 L 1242.93 457.07 L 1187.69 477.94 L 1135.09 502.68 L 1084.90 531.18 L 1037.04 563.54 L 991.75 599.52 L 949.68 638.54 L 910.73 680.62 L 874.68 725.91 L 842.32 773.77 L 813.81 823.96 L 789.16 876.55 L 768.28 931.80 L 751.82 988.25 L 739.93 1046.47 L 732.63 1106.53 L 729.98 1168.85 Z" fill="url(#paint8_linear_7_586)" fill-rule="nonzero" node-id="226" stroke="none" target-height="1500.005" target-width="1500.084" target-x="729.976" target-y="418.845"></path><path d="M 1092.29 751.53 L 1098.79 764.29 L 1109.15 775.05 L 1124.41 784.05 L 1141.51 790.07 L 1161.83 793.93 L 1186.08 795.29 L 1210.25 793.93 L 1236.19 789.91 L 1264.13 782.76 L 1291.19 772.97 L 1314.96 761.81 L 1335.68 749.36 L 1354.95 734.58 L 1369.65 720.05 L 1380.41 705.43 L 1388.03 689.46 L 1390.60 674.68 L 1388.76 660.55 L 1382.33 647.78 L 1371.89 637.02 L 1356.64 627.95 L 1339.53 622.00 L 1319.22 618.15 L 1295.05 616.78 L 1270.80 618.07 L 1244.86 622.16 L 1217.00 629.23 L 1189.93 639.03 L 1166.17 650.19 L 1145.37 662.72 L 1126.10 677.41 L 1111.40 692.02 L 1100.64 706.56 L 1093.09 722.62 L 1090.52 737.39 L 1092.29 751.53 Z" fill="url(#paint9_linear_7_586)" fill-rule="nonzero" node-id="228" stroke="none" target-height="178.50702" target-width="300.07996" target-x="1090.52" target-y="616.784"></path><path d="M 1460.63 1039.32 L 1463.36 1069.36 L 1470.90 1096.90 L 1483.03 1122.35 L 1499.41 1145.48 L 1519.00 1165.07 L 1542.13 1181.45 L 1567.67 1193.58 L 1595.13 1201.13 L 1625.24 1203.94 L 1655.27 1201.13 L 1682.82 1193.58 L 1708.27 1181.45 L 1731.40 1165.07 L 1750.99 1145.48 L 1767.37 1122.35 L 1779.50 1096.90 L 1787.05 1069.36 L 1789.86 1039.32 L 1787.05 1009.29 L 1779.50 981.75 L 1767.37 956.21 L 1750.99 933.09 L 1731.40 913.49 L 1708.27 897.19 L 1682.82 884.99 L 1655.27 877.52 L 1625.24 874.71 L 1595.13 877.52 L 1567.67 884.99 L 1542.13 897.19 L 1519.00 913.49 L 1499.41 933.09 L 1483.03 956.21 L 1470.90 981.75 L 1463.36 1009.29 L 1460.63 1039.32 Z" fill="url(#paint10_linear_7_586)" fill-rule="evenodd" node-id="230" stroke="none" target-height="329.23193" target-width="329.22998" target-x="1460.63" target-y="874.708"></path><path d="M 1915.44 783.09 L 1909.74 791.36 L 1907.25 801.39 L 1908.14 814.00 L 1911.99 826.37 L 1918.82 838.89 L 1929.18 851.90 L 1941.62 862.74 L 1953.91 870.13 L 1966.11 874.47 L 1978.64 875.91 L 1988.84 873.83 L 1997.35 868.61 L 2002.97 860.25 L 2005.46 850.22 L 2004.58 837.61 L 2000.72 825.24 L 1993.90 812.72 L 1983.62 799.71 L 1971.09 788.87 L 1958.81 781.48 L 1946.68 777.14 L 1934.07 775.70 L 1923.96 777.79 L 1915.44 783.09 Z" fill="#e7eaf0" fill-rule="nonzero" node-id="232" stroke="none" target-height="100.21503" target-width="98.20996" target-x="1907.25" target-y="775.698"></path><path d="M 741.54 1298.69 L 744.19 1312.58 L 747.88 1330.89 L 750.69 1344.70 L 700.91 1380.28 L 661.88 1411.83 L 632.01 1439.86 L 609.85 1464.67 L 592.58 1488.84 L 582.38 1508.84 L 577.57 1525.30 L 576.92 1539.19 L 579.89 1551.24 L 588.01 1565.61 L 600.37 1578.62 L 617.80 1590.58 L 641.49 1601.26 L 674.17 1610.98 L 715.12 1618.45 L 765.87 1623.18 L 816.46 1624.63 L 873.79 1623.51 L 938.35 1619.49 L 1036.24 1609.13 L 1144.56 1592.91 L 1254.82 1571.95 L 1370.05 1545.94 L 1485.36 1515.66 L 1600.19 1481.21 L 1713.81 1442.59 L 1825.59 1400.03 L 1934.80 1354.02 L 2036.78 1306.72 L 2134.42 1256.78 L 2219.70 1208.43 L 2274.23 1174.31 L 2320.64 1142.35 L 2359.91 1112.40 L 2397.24 1079.79 L 2424.39 1051.13 L 2443.18 1025.91 L 2454.18 1004.79 L 2459.24 986.65 L 2459.40 970.59 L 2455.22 955.97 L 2442.53 942.08 L 2425.83 930.03 L 2404.23 919.92 L 2369.06 909.16 L 2328.75 901.77 L 2287.31 897.51 L 2247.24 895.42 L 2178.43 894.62 L 2172.24 881.13 L 2163.89 862.98 L 2157.63 849.57 L 2223.15 848.77 L 2280.41 851.10 L 2330.11 856.08 L 2379.58 864.83 L 2419.17 876.23 L 2450.56 889.64 L 2472.57 903.13 L 2489.03 917.83 L 2500.83 933.57 L 2508.54 950.67 L 2511.75 968.10 L 2511.43 986.40 L 2507.18 1006.24 L 2498.58 1027.84 L 2484.77 1051.69 L 2465.50 1077.71 L 2440.21 1105.81 L 2408.00 1136.33 L 2367.85 1169.33 L 2313.41 1208.76 L 2248.77 1250.35 L 2172.57 1294.11 L 2094.92 1334.51 L 2008.91 1375.38 L 1913.76 1416.57 L 1817.64 1454.63 L 1715.26 1491.57 L 1606.37 1527.23 L 1496.36 1559.59 L 1391.17 1587.13 L 1290.39 1610.26 L 1188.65 1630.25 L 1094.62 1645.35 L 1007.73 1656.03 L 920.13 1663.17 L 843.28 1665.58 L 776.15 1663.90 L 724.36 1659.48 L 680.51 1652.57 L 643.73 1643.74 L 613.06 1633.30 L 588.25 1621.42 L 568.89 1608.49 L 554.20 1594.60 L 543.52 1579.66 L 536.29 1563.52 L 533.00 1546.02 L 533.48 1527.47 L 537.90 1507.39 L 546.89 1485.31 L 562.95 1458.25 L 586.16 1428.46 L 617.80 1395.45 L 651.76 1365.18 L 692.80 1332.98 L 741.54 1298.69 Z" fill="url(#paint11_linear_7_586)" fill-rule="nonzero" node-id="234" stroke="none" target-height="816.80896" target-width="1978.75" target-x="533" target-y="848.771"></path><path d="M 842.15 1350.57 L 843.76 1367.43 L 847.94 1382.85 L 854.76 1397.14 L 863.92 1410.15 L 874.92 1421.15 L 887.93 1430.30 L 902.22 1437.13 L 917.64 1441.30 L 934.50 1442.91 L 951.36 1441.30 L 966.78 1437.13 L 981.07 1430.30 L 994.08 1421.15 L 1005.08 1410.15 L 1014.24 1397.14 L 1021.06 1382.85 L 1025.24 1367.43 L 1026.85 1350.57 L 1025.24 1333.70 L 1021.06 1318.29 L 1014.24 1303.99 L 1005.08 1290.98 L 994.08 1279.98 L 981.07 1270.83 L 966.78 1264.00 L 951.36 1259.83 L 934.50 1258.22 L 917.64 1259.83 L 902.22 1264.00 L 887.93 1270.83 L 874.92 1279.98 L 863.92 1290.98 L 854.76 1303.99 L 847.94 1318.29 L 843.76 1333.70 L 842.15 1350.57 Z" fill="url(#paint12_linear_7_586)" fill-rule="evenodd" node-id="236" stroke="none" target-height="184.69006" target-width="184.69495" target-x="842.155" target-y="1258.22"></path><path d="M 1444.40 1410.79 L 1446.41 1425.89 L 1452.11 1439.14 L 1460.87 1450.54 L 1472.27 1459.29 L 1485.52 1464.99 L 1500.61 1467.00 L 1515.71 1464.99 L 1528.96 1459.29 L 1540.36 1450.54 L 1549.12 1439.14 L 1554.82 1425.89 L 1556.82 1410.79 L 1554.82 1395.69 L 1549.12 1382.44 L 1540.36 1371.04 L 1528.96 1362.29 L 1515.71 1356.59 L 1500.61 1354.58 L 1485.52 1356.59 L 1472.27 1362.29 L 1460.87 1371.04 L 1452.11 1382.44 L 1446.41 1395.69 L 1444.40 1410.79 Z" fill="#d9e9ff" fill-rule="evenodd" node-id="238" stroke="none" target-height="112.420044" target-width="112.41992" target-x="1444.4" target-y="1354.58"></path><path d="M 2149.12 400.13 L 2190.31 359.02 L 2210.79 379.42 L 2223.23 389.86 L 2236.40 397.49 L 2250.38 402.54 L 2264.91 405.11 L 2279.44 405.03 L 2294.06 402.38 L 2308.03 397.24 L 2321.28 389.54 L 2333.81 379.02 L 2354.44 358.46 L 2364.96 345.85 L 2372.67 332.68 L 2377.81 318.71 L 2380.46 304.10 L 2380.46 289.56 L 2377.97 274.95 L 2372.91 260.98 L 2365.29 247.89 L 2354.85 235.36 L 2342.32 224.92 L 2329.23 217.29 L 2315.26 212.23 L 2300.64 209.74 L 2286.11 209.74 L 2271.50 212.39 L 2257.52 217.53 L 2244.35 225.24 L 2231.75 235.76 L 2211.19 256.40 L 2170.32 215.53 L 2190.87 194.89 L 2211.67 177.54 L 2233.59 164.86 L 2256.96 156.43 L 2281.45 152.01 L 2305.78 151.93 L 2330.19 156.10 L 2353.56 164.46 L 2375.40 176.98 L 2396.04 194.17 L 2413.22 214.80 L 2425.75 236.64 L 2434.10 260.01 L 2438.28 284.42 L 2438.20 308.75 L 2433.78 333.25 L 2425.35 356.61 L 2412.66 378.53 L 2395.32 399.33 L 2374.68 419.89 L 2357.01 434.90 L 2338.22 446.55 L 2318.15 454.98 L 2296.95 460.28 L 2275.67 462.37 L 2253.91 461.32 L 2232.63 457.15 L 2212.07 449.68 L 2192.08 439.00 L 2148.88 482.20 L 2108.00 441.33 L 2149.12 400.13 Z M 2087.37 461.89 L 2128.32 502.84 L 2087.13 543.95 L 2046.25 503.08 L 2087.37 461.89 Z" fill="url(#paint13_linear_7_586)" fill-rule="nonzero" node-id="240" stroke="none" target-height="392.02405" target-width="392.03003" target-x="2046.25" target-y="151.928"></path><path d="M 1849.52 221.79 L 1860.44 181.08 L 1880.59 186.54 L 1898.02 188.71 L 1913.76 186.70 L 1928.37 180.51 L 1940.98 170.80 L 1950.62 158.03 L 1957.44 141.65 L 1962.90 121.25 L 1965.23 103.67 L 1963.22 87.77 L 1957.20 73.07 L 1947.56 60.39 L 1934.96 50.75 L 1918.82 44.00 L 1901.39 41.76 L 1885.65 43.84 L 1870.96 50.03 L 1858.35 59.74 L 1848.72 72.43 L 1841.89 88.81 L 1836.43 109.21 L 1796.12 98.37 L 1801.58 78.05 L 1808.32 59.66 L 1817.48 43.76 L 1829.04 29.95 L 1842.77 18.31 L 1857.95 9.48 L 1874.81 3.21 L 1892.40 0.00 L 1910.63 0.00 L 1929.74 3.29 L 1947.89 9.96 L 1963.62 19.11 L 1977.28 30.67 L 1988.68 44.49 L 1997.43 59.74 L 2003.53 76.69 L 2006.67 94.43 L 2006.59 112.74 L 2003.29 132.09 L 1997.83 152.41 L 1992.13 168.23 L 1984.58 182.36 L 1975.03 194.89 L 1963.70 205.89 L 1951.18 214.96 L 1937.13 222.19 L 1922.27 227.25 L 1906.77 230.06 L 1890.39 230.62 L 1878.91 273.34 L 1838.60 262.50 L 1849.52 221.79 Z M 1833.14 282.90 L 1873.53 293.74 L 1862.61 334.45 L 1822.22 323.61 L 1833.14 282.90 Z" fill="url(#paint14_linear_7_586)" fill-rule="nonzero" node-id="242" stroke="none" target-height="334.45" target-width="210.55005" target-x="1796.12" target-y="0"></path></svg>