<?xml version="1.0" standalone="no"?><!DOCTYPE svg PUBLIC "-//W3C//DTD SVG 1.1//EN" "http://www.w3.org/Graphics/SVG/1.1/DTD/svg11.dtd"><svg height="1024" node-id="1" sillyvg="true" template-height="1024" template-width="1024" version="1.1" viewBox="0 0 1024 1024" width="1024" xmlns="http://www.w3.org/2000/svg" xmlns:xlink="http://www.w3.org/1999/xlink"><defs node-id="98"><linearGradient gradientUnits="userSpaceOnUse" id="SVGID_1_" node-id="4" spreadMethod="pad" x1="512.3846" x2="512.3846" y1="492.4675" y2="844.5875"><stop offset="0.0000004528621" stop-color="#d0ddf8"></stop><stop offset="1" stop-color="#ffffff"></stop></linearGradient><linearGradient gradientUnits="userSpaceOnUse" id="SVGID_2_" node-id="8" spreadMethod="pad" x1="721.7707" x2="566.2263" y1="776.4316" y2="507.0209"><stop offset="0" stop-color="#ffffff" stop-opacity="0"></stop><stop offset="1" stop-color="#9db9e0"></stop></linearGradient><linearGradient gradientUnits="userSpaceOnUse" id="SVGID_3_" node-id="12" spreadMethod="pad" x1="383.7818" x2="335.452" y1="721.4215" y2="637.712"><stop offset="0" stop-color="#ffffff" stop-opacity="0"></stop><stop offset="1" stop-color="#9db9e0"></stop></linearGradient><linearGradient gradientUnits="userSpaceOnUse" id="SVGID_4_" node-id="16" spreadMethod="pad" x1="512.3846" x2="512.3846" y1="177.874" y2="561.2625"><stop offset="0.0000004528621" stop-color="#d0ddf8"></stop><stop offset="1" stop-color="#ffffff" stop-opacity="0"></stop></linearGradient><linearGradient gradientUnits="userSpaceOnUse" id="SVGID_5_" node-id="69" spreadMethod="pad" x1="456.7715" x2="581.5417" y1="483.1252" y2="483.1252"><stop offset="0.0000004475343" stop-color="#dfe7f8"></stop><stop offset="1" stop-color="#4d82f8"></stop></linearGradient><linearGradient gradientUnits="userSpaceOnUse" id="SVGID_6_" node-id="73" spreadMethod="pad" x1="425.7121" x2="549.681" y1="441.6904" y2="513.2639"><stop offset="0.0000004475343" stop-color="#dfe7f8"></stop><stop offset="1" stop-color="#7aa1f8"></stop></linearGradient><linearGradient gradientUnits="userSpaceOnUse" id="SVGID_7_" node-id="77" spreadMethod="pad" x1="444.1021" x2="483.5394" y1="319.9207" y2="342.6898"><stop offset="0.0000004475343" stop-color="#dfe7f8"></stop><stop offset="1" stop-color="#7aa1f8"></stop></linearGradient><linearGradient gradientUnits="userSpaceOnUse" id="SVGID_8_" node-id="81" spreadMethod="pad" x1="488.9237" x2="516.486" y1="326.1208" y2="342.0339"><stop offset="0.0000004475343" stop-color="#dfe7f8"></stop><stop offset="1" stop-color="#7aa1f8"></stop></linearGradient><linearGradient gradientUnits="userSpaceOnUse" id="SVGID_9_" node-id="85" spreadMethod="pad" x1="522.4308" x2="540.6951" y1="336.0489" y2="346.5938"><stop offset="0.0000004475343" stop-color="#dfe7f8"></stop><stop offset="1" stop-color="#7aa1f8"></stop></linearGradient><linearGradient gradientUnits="userSpaceOnUse" id="SVGID_10_" node-id="89" spreadMethod="pad" x1="544.8871" x2="559.7899" y1="349.3248" y2="357.9288"><stop offset="0.0000004475343" stop-color="#dfe7f8"></stop><stop offset="1" stop-color="#7aa1f8"></stop></linearGradient><linearGradient gradientUnits="userSpaceOnUse" id="SVGID_11_" node-id="93" spreadMethod="pad" x1="557.9144" x2="570.925" y1="367.1542" y2="374.6658"><stop offset="0.0000004475343" stop-color="#dfe7f8"></stop><stop offset="1" stop-color="#7aa1f8"></stop></linearGradient></defs><path d="M 883.36 668.53 C 883.36 715.22 844.27 760.01 774.70 793.02 C 705.13 826.04 610.77 844.59 512.38 844.59 C 413.99 844.59 319.63 826.04 250.06 793.02 C 180.49 760.01 141.40 715.22 141.40 668.53 C 141.40 621.84 180.49 577.05 250.06 544.04 C 319.63 511.02 413.99 492.47 512.38 492.47 C 610.77 492.47 705.13 511.02 774.70 544.04 C 844.27 577.05 883.36 621.84 883.36 668.53 Z" fill="url(#SVGID_1_)" fill-rule="nonzero" node-id="167" stroke="none" target-height="352.12003" target-width="741.95996" target-x="141.4" target-y="492.47"></path><path d="M 841.28 707.43 L 577.75 802.97 L 458.26 569.35 L 515.12 556.48 Z" fill="url(#SVGID_2_)" fill-rule="nonzero" node-id="169" stroke="none" target-height="246.48999" target-width="383.02002" target-x="458.26" target-y="556.48"></path><path d="M 404.60 709.40 L 356.80 722.76 L 331.49 640.00 L 346.05 636.59 Z" fill="url(#SVGID_3_)" fill-rule="nonzero" node-id="171" stroke="none" target-height="86.16998" target-width="73.110016" target-x="331.49" target-y="636.59"></path><path d="M 728.91 228.60 L 728.91 561.26 L 295.86 561.26 C 296.58 395.83 297.25 370.39 297.98 204.90 L 394.97 204.90 C 395.15 234.41 395.15 247.23 394.97 247.71 L 394.97 247.77 C 394.97 247.77 395.09 247.71 395.15 247.65 L 395.15 247.47 C 395.15 238.76 402.16 231.75 410.87 231.75 C 419.58 231.75 426.59 238.76 426.59 247.47 L 426.59 256.78 L 495.88 256.78 L 495.88 177.87 L 558.04 177.87 L 558.04 291.61 C 557.98 291.85 557.98 292.03 557.98 292.28 L 557.98 330.55 C 557.98 336.17 562.51 340.71 568.14 340.71 C 573.70 340.71 578.24 336.18 578.24 330.55 L 578.24 300.74 C 597.77 300.68 611.92 300.62 621.29 300.62 C 630.66 300.62 635.26 300.68 635.68 300.74 C 637.19 300.56 635.68 277.64 635.68 277.64 L 665.25 277.64 L 665.25 304.79 C 665.25 308.90 668.58 312.23 672.69 312.23 C 676.80 312.23 680.13 308.90 680.13 304.79 L 680.13 228.60 L 728.91 228.60 Z" fill="url(#SVGID_4_)" fill-rule="nonzero" node-id="173" stroke="none" target-height="383.39" target-width="433.05" target-x="295.86" target-y="177.87"></path><g node-id="294"><g node-id="297"><path d="M 326.97 211.29 C 320.55 211.29 315.32 206.07 315.32 199.64 C 315.32 193.21 320.54 187.99 326.97 187.99 C 333.40 187.99 338.62 193.21 338.62 199.64 C 338.62 206.07 333.39 211.29 326.97 211.29 Z M 326.97 194.47 C 324.12 194.47 321.80 196.79 321.80 199.64 C 321.80 202.49 324.12 204.81 326.97 204.81 C 329.82 204.81 332.14 202.49 332.14 199.64 C 332.14 196.79 329.82 194.47 326.97 194.47 Z" fill="#7aa1f8" fill-opacity="0.6" fill-rule="nonzero" group-id="1,4" node-id="179" stroke="none" target-height="23.299988" target-width="23.299988" target-x="315.32" target-y="187.99"></path></g><g node-id="298"><path d="M 333.28 380.94 C 333.28 385.58 329.51 389.35 324.87 389.35 C 320.23 389.35 316.46 385.58 316.46 380.94 C 316.46 376.30 320.23 372.53 324.87 372.53 C 329.51 372.53 333.28 376.30 333.28 380.94 Z" fill="#7aa1f8" fill-opacity="0.6" fill-rule="nonzero" group-id="1,5" node-id="184" stroke="none" target-height="16.820007" target-width="16.820007" target-x="316.46" target-y="372.53"></path></g><g node-id="299"><path d="M 666.90 486.75 C 666.90 496.48 659.01 504.37 649.28 504.37 C 639.55 504.37 631.66 496.48 631.66 486.75 C 631.66 477.02 639.55 469.13 649.28 469.13 C 659.01 469.13 666.90 477.02 666.90 486.75 Z" fill="#7aa1f8" fill-opacity="0.6" fill-rule="nonzero" group-id="1,6" node-id="189" stroke="none" target-height="35.23999" target-width="35.24005" target-x="631.66" target-y="469.13"></path></g><g node-id="300"><path d="M 640.51 305.12 C 640.51 308.96 637.40 312.07 633.56 312.07 C 629.72 312.07 626.61 308.96 626.61 305.12 C 626.61 301.28 629.72 298.17 633.56 298.17 C 637.40 298.17 640.51 301.28 640.51 305.12 Z" fill="#7aa1f8" fill-opacity="0.6" fill-rule="nonzero" group-id="1,7" node-id="194" stroke="none" target-height="13.899994" target-width="13.900024" target-x="626.61" target-y="298.17"></path></g><g node-id="301"><path d="M 739.73 250.08 C 739.73 253.39 737.05 256.07 733.74 256.07 C 730.43 256.07 727.75 253.39 727.75 250.08 C 727.75 246.77 730.43 244.09 733.74 244.09 C 737.05 244.09 739.73 246.77 739.73 250.08 Z" fill="#7aa1f8" fill-opacity="0.6" fill-rule="nonzero" group-id="1,8" node-id="199" stroke="none" target-height="11.980011" target-width="11.97998" target-x="727.75" target-y="244.09"></path></g><g node-id="302"><path d="M 806.09 386.23 C 806.09 390.80 802.38 394.51 797.81 394.51 C 793.24 394.51 789.53 390.80 789.53 386.23 C 789.53 381.66 793.24 377.95 797.81 377.95 C 802.38 377.95 806.09 381.66 806.09 386.23 Z" fill="#7aa1f8" fill-opacity="0.6" fill-rule="nonzero" group-id="1,9" node-id="204" stroke="none" target-height="16.559998" target-width="16.559998" target-x="789.53" target-y="377.95"></path></g><g node-id="303"><path d="M 687.48 620.75 C 687.48 625.07 683.97 628.58 679.65 628.58 C 675.33 628.58 671.82 625.07 671.82 620.75 C 671.82 616.43 675.33 612.92 679.65 612.92 C 683.97 612.92 687.48 616.43 687.48 620.75 Z" fill="#7aa1f8" fill-opacity="0.6" fill-rule="nonzero" group-id="1,10" node-id="209" stroke="none" target-height="15.660034" target-width="15.659973" target-x="671.82" target-y="612.92"></path></g><g node-id="304"><path d="M 569.48 219.69 C 563.06 219.69 557.83 214.47 557.83 208.04 C 557.83 201.61 563.05 196.39 569.48 196.39 C 575.91 196.39 581.13 201.61 581.13 208.04 C 581.13 214.47 575.90 219.69 569.48 219.69 Z M 569.48 202.88 C 566.63 202.88 564.31 205.20 564.31 208.05 C 564.31 210.90 566.63 213.22 569.48 213.22 C 572.33 213.22 574.65 210.90 574.65 208.05 C 574.65 205.20 572.33 202.88 569.48 202.88 Z" fill="#7aa1f8" fill-opacity="0.6" fill-rule="nonzero" group-id="1,11" node-id="214" stroke="none" target-height="23.300003" target-width="23.299988" target-x="557.83" target-y="196.39"></path></g><g node-id="305"><path d="M 453.32 677.46 C 446.90 677.46 441.67 672.24 441.67 665.81 C 441.67 659.38 446.89 654.16 453.32 654.16 C 459.75 654.16 464.97 659.38 464.97 665.81 C 464.97 672.24 459.74 677.46 453.32 677.46 Z M 453.32 660.64 C 450.47 660.64 448.15 662.96 448.15 665.81 C 448.15 668.66 450.47 670.98 453.32 670.98 C 456.17 670.98 458.49 668.66 458.49 665.81 C 458.49 662.96 456.17 660.64 453.32 660.64 Z" fill="#7aa1f8" fill-opacity="0.6" fill-rule="nonzero" group-id="1,12" node-id="219" stroke="none" target-height="23.300049" target-width="23.299988" target-x="441.67" target-y="654.16"></path></g><g node-id="306"><path d="M 244.71 484.63 L 222.23 484.63 C 220.27 484.63 218.68 483.04 218.68 481.08 L 218.68 481.08 C 218.68 479.12 220.27 477.53 222.23 477.53 L 244.71 477.53 C 246.67 477.53 248.26 479.12 248.26 481.08 L 248.26 481.08 C 248.26 483.04 246.67 484.63 244.71 484.63 Z" fill="#7aa1f8" fill-opacity="0.6" fill-rule="nonzero" group-id="1,13" node-id="224" stroke="none" target-height="7.100006" target-width="29.580002" target-x="218.68" target-y="477.53"></path></g><g node-id="307"><path d="M 229.78 492.18 L 229.78 469.98 C 229.78 467.94 231.43 466.29 233.47 466.29 L 233.47 466.29 C 235.51 466.29 237.16 467.94 237.16 469.98 L 237.16 492.18 C 237.16 494.22 235.51 495.87 233.47 495.87 L 233.47 495.87 C 231.43 495.87 229.78 494.22 229.78 492.18 Z" fill="#7aa1f8" fill-opacity="0.6" fill-rule="nonzero" group-id="1,14" node-id="229" stroke="none" target-height="29.579987" target-width="7.380005" target-x="229.78" target-y="466.29"></path></g><g node-id="308"><path d="M 244.79 333.46 L 230.19 333.46 C 228.92 333.46 227.89 332.43 227.89 331.16 L 227.89 331.16 C 227.89 329.89 228.92 328.86 230.19 328.86 L 244.79 328.86 C 246.06 328.86 247.09 329.89 247.09 331.16 L 247.09 331.16 C 247.09 332.43 246.06 333.46 244.79 333.46 Z" fill="#7aa1f8" fill-opacity="0.6" fill-rule="nonzero" group-id="1,15" node-id="234" stroke="none" target-height="4.600006" target-width="19.199997" target-x="227.89" target-y="328.86"></path></g><g node-id="309"><path d="M 235.09 338.36 L 235.09 323.95 C 235.09 322.63 236.16 321.55 237.49 321.55 L 237.49 321.55 C 238.81 321.55 239.89 322.62 239.89 323.95 L 239.89 338.36 C 239.89 339.68 238.82 340.76 237.49 340.76 L 237.49 340.76 C 236.17 340.76 235.09 339.68 235.09 338.36 Z" fill="#7aa1f8" fill-opacity="0.6" fill-rule="nonzero" group-id="1,16" node-id="239" stroke="none" target-height="19.210022" target-width="4.800003" target-x="235.09" target-y="321.55"></path></g><g node-id="310"><path d="M 435.92 289.51 C 429.25 279.82 422.58 270.14 415.91 260.45 C 417.04 258.30 418.17 256.15 419.30 254.01 C 424.27 254.27 429.25 254.54 434.22 254.80 C 434.79 266.37 435.35 277.94 435.92 289.51 Z" fill="#7aa1f8" fill-opacity="0.6" fill-rule="nonzero" group-id="1,17" node-id="244" stroke="none" target-height="35.500015" target-width="20.01001" target-x="415.91" target-y="254.01"></path></g><g node-id="311"><path d="M 428.51 293.91 C 419.26 292.21 410.02 290.50 400.77 288.80 C 400.20 286.95 399.62 285.09 399.04 283.24 C 402.00 280.58 404.96 277.91 407.92 275.25 C 414.79 281.47 421.65 287.69 428.51 293.91 Z" fill="#7aa1f8" fill-opacity="0.6" fill-rule="nonzero" group-id="1,18" node-id="249" stroke="none" target-height="18.660004" target-width="29.470001" target-x="399.04" target-y="275.25"></path></g><path d="M 440.51 284.91 C 441.20 276.61 441.90 268.31 442.59 260.01 C 444.17 259.34 445.76 258.67 447.34 258.00 C 449.95 260.38 452.55 262.76 455.16 265.13 C 450.28 271.72 445.39 278.31 440.51 284.91 Z" fill="#7aa1f8" fill-opacity="0.6" fill-rule="nonzero" group-id="1,19" node-id="254" stroke="none" target-height="26.910004" target-width="14.649994" target-x="440.51" target-y="258"></path></g><path d="M 346.63 512.87 C 344.90 512.87 343.49 514.39 343.49 516.27 L 343.49 526.73 C 343.49 528.61 344.89 530.13 346.63 530.13 C 348.37 530.13 349.77 528.61 349.77 526.73 L 349.77 516.27 C 349.77 514.40 348.36 512.87 346.63 512.87 Z" fill="#f5986a" fill-rule="evenodd" id="圆角矩形-5_22_" node-id="53" stroke="none" target-height="17.26001" target-width="6.279999" target-x="343.49" target-y="512.87"></path><path d="M 350.81 507.12 C 345.21 506.74 344.35 510.47 344.50 513.34 C 344.20 513.09 343.83 512.85 343.49 512.87 C 342.33 512.94 342.44 514.44 342.44 514.44 C 342.44 514.44 342.29 515.06 342.96 516.01 C 343.46 516.73 344.86 517.31 345.38 517.51 L 345.58 518.11 C 345.58 518.11 346.41 519.88 347.15 520.72 C 348.19 521.91 348.72 522.29 348.72 522.29 C 348.72 522.29 349.72 523.06 350.81 523.34 C 351.81 523.59 352.90 523.34 352.90 523.34 C 352.90 523.34 354.22 523.18 354.47 521.25 C 354.62 520.06 354.68 518.57 354.68 517.09 L 354.68 516.72 C 354.66 513.91 354.47 511.31 354.47 511.31 C 354.47 511.31 354.14 507.35 350.81 507.12 Z" fill="#f8ad72" fill-rule="evenodd" id="Combined-shape-564_22_" node-id="54" stroke="none" target-height="16.850037" target-width="12.389984" target-x="342.29" target-y="506.74"></path><path d="M 348.72 511.83 C 348.72 511.83 352.14 512.48 353.95 511.83 C 355.80 511.17 356.04 509.22 356.04 509.22 C 356.04 509.22 356.09 507.76 355.52 506.61 C 355.07 505.70 353.95 505.04 353.95 505.04 C 353.95 505.04 353.00 504.34 351.86 504.52 C 350.95 504.66 350.29 505.57 350.29 505.57 C 350.29 505.57 349.10 506.75 348.20 507.14 C 347.27 507.54 346.11 507.14 346.11 507.14 C 346.11 507.14 344.29 506.72 342.97 508.19 C 340.97 510.42 341.40 513.42 341.40 513.42 C 341.40 513.42 341.73 515.37 342.45 517.08 C 343.03 518.48 344.02 519.17 344.02 519.17 C 344.02 519.17 344.54 519.55 345.07 519.17 C 345.66 518.74 345.07 518.12 345.07 518.12 L 344.55 517.07 C 344.55 517.07 342.49 517.07 342.46 513.93 C 342.45 513.41 343.51 513.41 343.51 513.41 C 343.51 513.41 344.11 513.40 344.56 513.93 C 344.81 514.22 345.08 515.50 345.08 515.50 C 345.08 515.50 345.30 512.95 346.13 512.36 C 347.09 511.65 348.72 511.83 348.72 511.83 Z" fill="#272b73" fill-rule="evenodd" id="形状-17_22_" node-id="55" stroke="none" target-height="15.209991" target-width="15.119995" target-x="340.97" target-y="504.34"></path><path d="M 334.73 635.23 L 331.62 640.07 L 344.81 648.56 C 344.81 648.56 345.87 647.18 345.19 645.07 C 344.51 642.96 341.36 641.36 341.36 641.36 C 341.36 641.36 340.30 640.75 339.88 639.79 C 339.56 639.05 339.57 638.34 339.57 638.34 L 334.73 635.23 Z" fill="#262a71" fill-rule="evenodd" id="形状-30-拷贝_22_" node-id="56" stroke="none" target-height="13.330017" target-width="14.25" target-x="331.62" target-y="635.23"></path><path d="M 358.66 574.58 L 361.27 600.21 C 361.27 600.21 361.38 600.99 361.27 601.78 C 361.12 602.80 360.75 603.87 360.75 603.87 L 341.92 639.95 L 335.64 635.77 C 335.64 635.77 339.81 618.81 343.48 609.62 C 345.00 605.81 348.71 603.34 348.71 603.34 C 348.71 603.34 343.86 594.07 341.39 585.56 C 340.06 580.99 340.34 574.58 340.34 574.58 L 358.66 574.58 Z" fill="#151145" fill-rule="evenodd" id="形状-34_10_" node-id="57" stroke="none" target-height="65.369995" target-width="25.73999" target-x="335.64" target-y="574.58"></path><path d="M 353.95 573.54 C 353.95 573.54 353.47 589.53 351.86 605.44 C 349.86 625.20 346.63 645.71 346.63 645.71 L 340.88 645.71 C 340.88 645.71 338.05 626.75 337.74 613.81 C 337.55 605.68 339.31 601.26 339.31 601.26 C 339.31 601.26 337.51 593.44 336.17 585.57 C 335.22 579.98 335.12 573.54 335.12 573.54 L 353.95 573.54 Z" fill="#27327b" fill-rule="evenodd" id="形状-29-拷贝_10_" node-id="58" stroke="none" target-height="72.170044" target-width="18.830017" target-x="335.12" target-y="573.54"></path><path d="M 340.87 645.71 L 340.87 651.46 L 356.56 651.46 C 356.56 651.46 356.71 649.73 354.99 648.32 C 353.28 646.92 349.76 647.27 349.76 647.27 C 349.76 647.27 348.54 647.33 347.67 646.75 C 347.00 646.30 346.62 645.70 346.62 645.70 L 340.87 645.70 Z" fill="#2b3682" fill-rule="evenodd" id="形状-30_22_" node-id="59" stroke="none" target-height="5.76001" target-width="15.839996" target-x="340.87" target-y="645.7"></path><path d="M 358.66 533.79 L 363.37 548.43 L 373.31 536.92 L 378.02 541.10 L 364.42 558.36 C 364.42 558.36 363.61 558.88 362.85 558.88 C 362.04 558.88 361.28 558.36 361.28 558.36 L 354.48 552.61 L 358.66 533.79 Z" fill="#7aa1f8" fill-rule="evenodd" id="形状-31_4_" node-id="60" stroke="none" target-height="25.090027" target-width="23.539978" target-x="354.48" target-y="533.79"></path><path d="M 349.77 526.47 C 349.77 526.47 349.68 527.70 349.25 528.56 C 348.91 529.24 348.20 529.61 348.20 529.61 C 348.20 529.61 346.37 528.45 345.06 527.00 C 344.06 525.89 343.49 524.39 343.49 524.39 L 336.69 528.05 C 336.69 528.05 334.62 529.01 333.55 530.66 C 332.47 532.33 332.50 534.32 332.50 534.32 L 332.50 574.59 L 358.65 574.59 L 358.65 533.80 C 358.65 533.80 358.29 531.18 356.04 529.09 C 353.58 526.81 349.77 526.47 349.77 526.47 Z" fill="#7aa1f8" fill-rule="evenodd" id="形状-24_8_" node-id="61" stroke="none" target-height="50.200012" target-width="26.179993" target-x="332.47" target-y="524.39"></path><path d="M 339.31 540.07 L 335.64 550.00 L 344.54 564.12 L 340.35 568.83 L 332.51 565.69 L 332.51 560.46 L 332.51 540.07 Z" fill="#2b72d8" fill-rule="evenodd" id="形状-33_4_" node-id="62" stroke="none" target-height="28.76001" target-width="12.029999" target-x="332.51" target-y="540.07"></path><path d="M 344.86 564.64 C 344.86 564.64 346.95 566.28 347.60 567.12 C 348.14 567.81 346.58 567.70 346.58 567.70 C 346.58 567.70 346.52 568.14 347.16 568.72 C 347.43 568.97 348.52 569.53 348.78 569.68 C 349.22 569.93 349.33 570.18 349.33 570.18 C 349.33 570.18 350.23 572.10 346.83 572.40 C 344.94 572.57 340.38 569.06 340.38 569.06 L 344.86 564.64 Z" fill="#ef8d61" fill-rule="evenodd" id="形状-26_14_" node-id="63" stroke="none" target-height="7.9299927" target-width="9.850006" target-x="340.38" target-y="564.64"></path><path d="M 333.03 531.18 L 323.62 550.00 C 323.62 550.00 323.14 550.98 323.10 551.57 C 323.02 552.66 323.62 553.14 323.62 553.14 L 340.35 569.35 L 345.06 564.12 L 332.51 550.52 L 339.31 539.54" fill="#7aa1f8" fill-rule="evenodd" id="形状-32_4_" node-id="64" stroke="none" target-height="38.169983" target-width="22.040009" target-x="323.02" target-y="531.18"></path><path d="M 380.99 520.36 L 381.54 520.64 L 382.00 521.21 L 382.36 522.17 L 382.54 523.80 L 382.33 525.88 L 381.72 527.87 L 380.92 529.30 L 380.22 530.05 L 379.58 530.39 L 378.96 530.44 L 378.40 530.16 L 377.94 529.59 L 377.58 528.63 L 377.40 527.00 L 377.61 524.93 L 378.22 522.93 L 379.02 521.50 L 379.72 520.75 L 380.36 520.41 L 380.99 520.36 Z" fill="#e9f4ff" fill-rule="nonzero" group-id="2" node-id="272" stroke="#6a9cd8" stroke-linecap="butt" stroke-width="0.9999774" target-height="10.077454" target-width="5.143982" target-x="377.39847" target-y="520.3623"></path><path d="M 377.07 536.40 L 378.98 530.46" fill="none" node-id="275" stroke="#6a9cd8" stroke-linecap="butt" stroke-width="1" target-height="5.9400024" target-width="1.9100037" target-x="377.07" target-y="530.46"></path><path d="M 373.66 537.05 C 373.66 537.05 375.14 534.84 375.93 534.13 C 376.58 533.54 376.58 535.10 376.58 535.10 C 376.58 535.10 377.02 535.13 377.55 534.45 C 377.78 534.16 378.26 533.04 378.39 532.76 C 378.61 532.31 378.84 532.18 378.84 532.18 C 378.84 532.18 380.68 531.15 381.24 534.52 C 381.55 536.39 378.39 541.20 378.39 541.20 L 373.66 537.05 Z" fill="#f48d67" fill-rule="evenodd" id="形状-26-拷贝_16_" node-id="67" stroke="none" target-height="10.049988" target-width="7.889984" target-x="373.66" target-y="531.15"></path><path d="M 547.85 385.83 C 524.31 371.64 486.16 364.57 471.81 382.29 C 464.83 390.92 465.85 402.48 466.06 404.84 C 467.87 425.15 486.03 427.54 495.68 451.70 C 497.34 455.86 505.20 475.55 497.67 493.92 C 491.48 509.00 481.38 507.41 468.94 526.63 C 462.99 535.83 453.87 549.91 457.67 566.20 C 460.33 577.59 469.22 589.74 481.98 593.39 C 502.14 599.15 522.85 581.13 531.05 565.32 C 537.58 552.72 532.77 548.10 538.79 530.18 C 545.37 510.58 553.58 508.82 564.65 489.51 C 571.15 478.18 588.95 447.13 578.13 418.34 C 571.22 399.91 555.66 390.53 547.85 385.83 Z" fill="url(#SVGID_5_)" fill-rule="nonzero" group-id="3" node-id="280" stroke="none" target-height="234.58002" target-width="135.08002" target-x="453.87" target-y="364.57"></path><path d="M 537.91 383.18 C 514.37 368.99 476.22 361.92 461.87 379.64 C 454.89 388.27 455.91 399.83 456.12 402.19 C 457.93 422.50 476.09 424.89 485.74 449.05 C 487.40 453.21 495.26 472.90 487.73 491.27 C 481.54 506.35 471.44 504.76 459.00 523.98 C 453.05 533.18 443.93 547.26 447.73 563.55 C 450.39 574.94 459.28 587.09 472.04 590.74 C 492.20 596.50 512.91 578.48 521.11 562.67 C 527.64 550.07 522.83 545.45 528.85 527.53 C 535.43 507.93 543.64 506.17 554.71 486.86 C 561.21 475.53 579.01 444.48 568.19 415.69 C 561.27 397.26 545.71 387.88 537.91 383.18 Z" fill="url(#SVGID_6_)" fill-rule="nonzero" group-id="3" node-id="282" stroke="none" target-height="234.57999" target-width="135.08002" target-x="443.93" target-y="361.92"></path><path d="M 484.41 331.31 C 484.41 346.95 475.19 359.62 463.82 359.62 C 452.45 359.62 443.23 346.95 443.23 331.31 C 443.23 315.67 452.45 303.00 463.82 303.00 C 475.19 303.00 484.41 315.67 484.41 331.31 Z" fill="url(#SVGID_7_)" fill-rule="nonzero" group-id="3" node-id="284" stroke="none" target-height="56.619995" target-width="41.179993" target-x="443.23" target-y="303"></path><path d="M 517.56 334.08 C 517.56 344.41 510.91 352.79 502.70 352.79 C 494.49 352.79 487.84 344.41 487.84 334.08 C 487.84 323.75 494.49 315.37 502.70 315.37 C 510.91 315.37 517.56 323.75 517.56 334.08 Z" fill="url(#SVGID_8_)" fill-rule="nonzero" group-id="3" node-id="286" stroke="none" target-height="37.420013" target-width="29.720001" target-x="487.84" target-y="315.37"></path><path d="M 541.11 343.07 C 539.56 351.56 534.02 357.66 528.75 356.69 C 523.48 355.72 520.46 348.06 522.01 339.57 C 523.56 331.08 529.10 324.98 534.37 325.95 C 539.64 326.92 542.66 334.58 541.11 343.07 Z" fill="url(#SVGID_9_)" fill-rule="nonzero" group-id="3" node-id="288" stroke="none" target-height="32.679993" target-width="22.199951" target-x="520.46" target-y="324.98"></path><path d="M 559.95 357.61 C 556.80 363.64 550.83 366.74 546.62 364.54 C 542.41 362.34 541.56 355.67 544.72 349.64 C 547.87 343.61 553.84 340.51 558.05 342.71 C 562.26 344.92 563.11 351.59 559.95 357.61 Z" fill="url(#SVGID_10_)" fill-rule="nonzero" group-id="3" node-id="290" stroke="none" target-height="26.22998" target-width="21.549988" target-x="541.56" target-y="340.51"></path><path d="M 571.07 374.39 C 568.32 379.65 563.11 382.36 559.43 380.44 C 555.75 378.52 555.01 372.69 557.77 367.43 C 560.52 362.17 565.73 359.46 569.41 361.38 C 573.08 363.30 573.82 369.13 571.07 374.39 Z" fill="url(#SVGID_11_)" fill-rule="nonzero" group-id="3" node-id="292" stroke="none" target-height="22.899994" target-width="18.809998" target-x="555.01" target-y="359.46"></path></svg>