<?xml version="1.0" standalone="no"?><!DOCTYPE svg PUBLIC "-//W3C//DTD SVG 1.1//EN" "http://www.w3.org/Graphics/SVG/1.1/DTD/svg11.dtd"><svg height="1024" node-id="1" sillyvg="true" template-height="1024" template-width="1024" version="1.1" viewBox="0 0 1024 1024" width="1024" xmlns="http://www.w3.org/2000/svg" xmlns:xlink="http://www.w3.org/1999/xlink"><defs node-id="99"><linearGradient gradientUnits="userSpaceOnUse" id="paint0_linear_1515_111182" node-id="36" spreadMethod="pad" x1="506" x2="506" y1="635" y2="890"><stop offset="0" stop-color="#bddfff"></stop><stop offset="0.95892" stop-color="#ffffff" stop-opacity="0"></stop></linearGradient><linearGradient gradientUnits="userSpaceOnUse" id="paint1_linear_1515_111182" node-id="39" spreadMethod="pad" x1="229.66" x2="229.66" y1="754.678" y2="615.257"><stop offset="0" stop-color="#5fb2ff"></stop><stop offset="0.7893" stop-color="#dff0ff"></stop></linearGradient><linearGradient gradientUnits="userSpaceOnUse" id="paint2_linear_1515_111182" node-id="42" spreadMethod="pad" x1="229.661" x2="229.661" y1="630.738" y2="784.347"><stop offset="0" stop-color="#dff0ff"></stop><stop offset="0.818" stop-color="#a2d2ff"></stop></linearGradient><linearGradient gradientUnits="userSpaceOnUse" id="paint3_linear_1515_111182" node-id="45" spreadMethod="pad" x1="883.842" x2="847.534" y1="720.042" y2="802.968"><stop offset="0.365159" stop-color="#c4e3ff"></stop><stop offset="1" stop-color="#5fb2ff"></stop></linearGradient><linearGradient gradientUnits="userSpaceOnUse" id="paint4_linear_1515_111182" node-id="48" spreadMethod="pad" x1="602.631" x2="395.65" y1="278.657" y2="583.387"><stop offset="0" stop-color="#a4d3ff"></stop><stop offset="1" stop-color="#e3f1ff"></stop></linearGradient><linearGradient gradientUnits="userSpaceOnUse" id="paint5_linear_1515_111182" node-id="51" spreadMethod="pad" x1="602.631" x2="420.241" y1="289.373" y2="623.113"><stop offset="0" stop-color="#d8ecff"></stop><stop offset="0.656831" stop-color="#a5d3ff"></stop></linearGradient><linearGradient gradientUnits="userSpaceOnUse" id="paint6_linear_1515_111182" node-id="54" spreadMethod="pad" x1="582.705" x2="402.105" y1="336.349" y2="584.609"><stop offset="0" stop-color="#6cb8ff"></stop><stop offset="0.656831" stop-color="#e9f4ff"></stop></linearGradient><linearGradient gradientUnits="userSpaceOnUse" id="paint7_linear_1515_111182" node-id="57" spreadMethod="pad" x1="582.705" x2="376.449" y1="327.608" y2="569.968"><stop offset="0" stop-color="#6cb8ff"></stop><stop offset="0.568288" stop-color="#8fc8ff"></stop></linearGradient><linearGradient gradientUnits="userSpaceOnUse" id="paint8_linear_1515_111182" node-id="60" spreadMethod="pad" x1="449.166" x2="579.104" y1="403.715" y2="533.653"><stop offset="0" stop-color="#ffffff"></stop><stop offset="1" stop-color="#ffffff" stop-opacity="0.477764"></stop></linearGradient><linearGradient gradientUnits="userSpaceOnUse" id="paint9_linear_1515_111182" node-id="63" spreadMethod="pad" x1="349.726" x2="349.726" y1="491.443" y2="512.849"><stop offset="0" stop-color="#ffcda5"></stop><stop offset="1" stop-color="#ffe8d1"></stop></linearGradient><linearGradient gradientUnits="userSpaceOnUse" id="paint10_linear_1515_111182" node-id="66" spreadMethod="pad" x1="349.189" x2="377.041" y1="442.221" y2="494.151"><stop offset="0" stop-color="#fff2df"></stop><stop offset="1" stop-color="#fee0bc"></stop></linearGradient><linearGradient gradientUnits="userSpaceOnUse" id="paint11_linear_1515_111182" node-id="69" spreadMethod="pad" x1="366.082" x2="317.991" y1="445.717" y2="481.576"><stop offset="0" stop-color="#9f4326"></stop><stop offset="1" stop-color="#574915"></stop></linearGradient><linearGradient gradientUnits="userSpaceOnUse" id="paint12_linear_1515_111182" node-id="72" spreadMethod="pad" x1="375.521" x2="387.884" y1="470.62" y2="460.749"><stop offset="0" stop-color="#fee4c3"></stop><stop offset="1" stop-color="#ffd1ac"></stop></linearGradient><linearGradient gradientUnits="userSpaceOnUse" id="paint13_linear_1515_111182" node-id="75" spreadMethod="pad" x1="301.653" x2="286.307" y1="606.841" y2="602.999"><stop offset="0" stop-color="#fee4c3"></stop><stop offset="1" stop-color="#ffd1ac"></stop></linearGradient><linearGradient gradientUnits="userSpaceOnUse" id="paint14_linear_1515_111182" node-id="78" spreadMethod="pad" x1="342.885" x2="379.153" y1="611.307" y2="510.403"><stop offset="0.0403741" stop-color="#6688ff"></stop><stop offset="1" stop-color="#f094ff"></stop></linearGradient><linearGradient gradientUnits="userSpaceOnUse" id="paint15_linear_1515_111182" node-id="81" spreadMethod="pad" x1="789.326" x2="770.395" y1="563.994" y2="550.631"><stop offset="0" stop-color="#6cb8ff"></stop><stop offset="0.656831" stop-color="#8fc8ff"></stop></linearGradient><linearGradient gradientUnits="userSpaceOnUse" id="paint16_linear_1515_111182" node-id="84" spreadMethod="pad" x1="787.361" x2="778.949" y1="562.297" y2="552.535"><stop offset="0" stop-color="#b2daff"></stop><stop offset="1" stop-color="#88c5ff"></stop></linearGradient><linearGradient gradientUnits="userSpaceOnUse" id="paint17_linear_1515_111182" node-id="87" spreadMethod="pad" x1="825.321" x2="776.79" y1="454.387" y2="521.715"><stop offset="0" stop-color="#b2daff"></stop><stop offset="1" stop-color="#88c5ff"></stop></linearGradient><linearGradient gradientUnits="userSpaceOnUse" id="paint18_linear_1515_111182" node-id="90" spreadMethod="pad" x1="790.099" x2="774.112" y1="481.319" y2="520.892"><stop offset="0" stop-color="#b2daff"></stop><stop offset="1" stop-color="#88c5ff"></stop></linearGradient><linearGradient gradientUnits="userSpaceOnUse" id="paint19_linear_1515_111182" node-id="93" spreadMethod="pad" x1="850.271" x2="814.616" y1="502.675" y2="509.66"><stop offset="0" stop-color="#b2daff"></stop><stop offset="1" stop-color="#88c5ff"></stop></linearGradient><clipPath id="clip0_1515_111182" node-id="96"><path d="M 0.00 0.00 L 1024.00 0.00 L 1024.00 1024.00 L 0.00 1024.00 Z" fill="#000000" fill-rule="nonzero" node-id="222" stroke="none" target-height="1024" target-width="1024" target-x="0" target-y="0"></path></clipPath></defs><g clip-path="url(#clip0_1515_111182)" id="sillyvg_g_0" node-id="226"><path d="M 973.00 762.50 C 973.00 796.32 923.80 828.75 836.22 852.66 C 748.64 876.57 629.86 890.00 506.00 890.00 C 382.14 890.00 263.36 876.57 175.78 852.66 C 88.20 828.75 39.00 796.32 39.00 762.50 C 39.00 728.68 88.20 696.25 175.78 672.34 C 263.36 648.43 382.14 635.00 506.00 635.00 C 629.86 635.00 748.64 648.43 836.22 672.34 C 923.80 696.25 973.00 728.68 973.00 762.50 Z" fill="url(#paint0_linear_1515_111182)" fill-rule="nonzero" node-id="228" stroke="none" target-height="255" target-width="934" target-x="39" target-y="635"></path><path d="M 230.46 615.50 C 230.46 615.50 230.23 614.92 229.93 615.54 C 227.18 621.12 202.33 681.57 200.36 728.22 C 200.36 728.22 196.22 755.02 230.97 754.66 C 259.97 754.37 259.20 729.66 259.10 721.34 C 258.70 687.57 230.46 615.50 230.46 615.50 Z" fill="url(#paint1_linear_1515_111182)" fill-rule="nonzero" node-id="230" stroke="none" target-height="140.09802" target-width="63.757996" target-x="196.215" target-y="614.922"></path><path d="M 229.66 784.34 C 229.10 784.34 228.65 783.89 228.65 783.33 L 228.65 631.75 C 228.65 631.20 229.10 630.74 229.66 630.74 C 230.22 630.74 230.68 631.20 230.68 631.75 L 230.68 783.33 C 230.68 783.90 230.22 784.34 229.66 784.34 Z" fill="url(#paint2_linear_1515_111182)" fill-rule="nonzero" node-id="232" stroke="none" target-height="153.60602" target-width="2.0329895" target-x="228.647" target-y="630.737"></path><path d="M 869.35 810.66 C 876.54 808.40 883.52 805.45 889.87 797.18 C 891.18 795.48 892.40 793.31 891.69 791.28 C 891.15 789.76 889.59 788.78 888.01 788.53 C 887.42 788.44 886.83 788.43 886.23 788.48 L 886.23 788.48 C 885.32 788.57 884.41 788.75 883.54 789.01 L 883.28 789.09 C 879.09 790.30 875.09 792.13 871.42 794.52 C 871.09 794.74 870.70 794.83 870.31 794.79 C 869.91 794.75 869.55 794.58 869.27 794.30 C 868.98 794.02 868.80 793.65 868.75 793.25 C 868.70 792.86 868.79 792.45 868.99 792.11 C 869.37 791.49 869.80 790.91 870.29 790.38 C 871.01 789.61 871.81 788.92 872.66 788.30 C 873.79 787.46 874.99 786.72 876.17 785.95 C 880.56 783.12 884.72 779.93 888.61 776.42 C 891.38 773.91 894.09 771.13 895.41 767.61 C 896.01 765.99 896.29 764.12 895.57 762.55 C 894.38 759.97 891.00 759.25 888.24 759.78 C 883.40 760.72 879.53 764.32 876.10 767.91 C 873.26 770.89 870.08 774.19 865.99 774.37 C 865.29 774.44 864.59 774.30 863.98 773.96 C 862.81 773.25 862.51 771.59 862.93 770.27 C 863.34 768.95 864.30 767.90 865.23 766.89 C 870.62 761.02 875.93 754.92 879.43 747.73 C 882.93 740.53 884.48 732.04 882.05 724.41 C 881.34 722.18 880.26 720.00 878.59 718.38 C 876.92 716.76 874.58 715.75 872.28 716.06 C 869.15 716.47 866.80 719.15 865.21 721.91 C 859.77 731.40 860.10 743.02 858.57 753.89 C 858.14 756.93 857.51 760.05 855.73 762.56 C 855.56 762.80 855.35 763.00 855.10 763.15 C 853.63 764.01 852.31 762.27 851.76 760.79 C 849.58 754.95 849.04 748.26 845.14 743.43 C 843.65 741.59 841.54 740.05 839.20 740.06 C 836.33 740.08 833.88 742.51 833.04 745.29 C 832.20 748.07 832.71 751.10 833.60 753.86 C 835.26 758.98 838.25 763.58 841.76 767.63 C 843.61 769.76 845.71 771.92 846.26 774.71 C 846.43 775.65 846.36 776.63 846.05 777.54 C 845.75 778.45 845.22 779.27 844.51 779.91 C 844.18 780.20 843.80 780.42 843.39 780.56 C 842.97 780.70 842.53 780.75 842.10 780.71 C 841.16 780.63 840.31 780.14 839.48 779.67 C 839.14 779.47 838.79 779.26 838.45 779.07 C 837.08 778.28 835.71 777.48 834.34 776.69 C 830.85 774.67 826.65 772.61 823.02 774.35 C 821.17 775.24 819.95 776.98 819.38 778.99 C 818.87 780.80 818.87 782.73 819.38 784.55 C 820.46 788.33 827.28 798.85 830.09 801.56 C 833.37 804.73 844.75 818.40 869.35 810.66 Z" fill="url(#paint3_linear_1515_111182)" fill-rule="nonzero" node-id="234" stroke="none" target-height="102.653015" target-width="77.41901" target-x="818.872" target-y="715.745"></path><path d="M 718.05 460.14 C 718.05 571.78 625.59 662.28 511.53 662.28 C 397.46 662.28 305.00 571.78 305.00 460.14 C 305.00 348.50 397.46 258.00 511.53 258.00 C 625.59 258.00 718.05 348.50 718.05 460.14 Z" fill="url(#paint4_linear_1515_111182)" fill-rule="nonzero" node-id="236" stroke="none" target-height="404.284" target-width="413.052" target-x="305" target-y="258"></path><path d="M 718.05 470.86 C 718.05 582.50 625.59 673.00 511.53 673.00 C 397.46 673.00 305.00 582.50 305.00 470.86 C 305.00 359.22 397.46 268.72 511.53 268.72 C 625.59 268.72 718.05 359.22 718.05 470.86 Z" fill="url(#paint5_linear_1515_111182)" fill-rule="nonzero" node-id="238" stroke="none" target-height="404.284" target-width="413.052" target-x="305" target-y="268.716"></path><path d="M 672.26 477.16 C 672.26 563.79 600.52 634.01 512.01 634.01 C 423.51 634.01 351.76 563.79 351.76 477.16 C 351.76 390.54 423.51 320.32 512.01 320.32 C 600.52 320.32 672.26 390.54 672.26 477.16 Z" fill="url(#paint6_linear_1515_111182)" fill-rule="nonzero" node-id="240" stroke="none" target-height="313.686" target-width="320.50403" target-x="351.761" target-y="320.321"></path><path d="M 672.26 468.42 C 672.26 555.04 600.52 625.27 512.01 625.27 C 423.51 625.27 351.76 555.04 351.76 468.42 C 351.76 381.80 423.51 311.58 512.01 311.58 C 600.52 311.58 672.26 381.80 672.26 468.42 Z" fill="url(#paint7_linear_1515_111182)" fill-rule="nonzero" node-id="242" stroke="none" target-height="313.686" target-width="320.50403" target-x="351.761" target-y="311.58"></path><path d="M 579.68 403.14 C 586.54 410.00 586.54 421.13 579.68 428.00 L 539.28 468.39 L 579.68 508.79 C 586.54 515.66 586.54 526.79 579.68 533.65 C 572.82 540.52 561.68 540.52 554.82 533.65 L 514.42 493.25 L 474.03 533.65 C 467.16 540.52 456.03 540.52 449.17 533.65 C 442.30 526.79 442.30 515.66 449.17 508.79 L 489.56 468.39 L 449.17 428.00 C 442.30 421.13 442.30 410.00 449.17 403.14 C 456.03 396.27 467.16 396.27 474.03 403.14 L 514.42 443.53 L 554.82 403.14 C 561.68 396.27 572.82 396.27 579.68 403.14 Z" fill="url(#paint8_linear_1515_111182)" fill-rule="evenodd" node-id="244" stroke="none" target-height="144.24301" target-width="144.24399" target-x="442.301" target-y="396.275"></path><path d="M 414.00 773.50 C 414.00 782.06 388.70 789.00 357.50 789.00 C 326.30 789.00 301.00 782.06 301.00 773.50 C 301.00 764.94 326.30 758.00 357.50 758.00 C 388.70 758.00 414.00 764.94 414.00 773.50 Z" fill="#7d7d7d" fill-opacity="0.15" fill-rule="nonzero" node-id="246" stroke="none" target-height="31" target-width="113" target-x="301" target-y="758"></path><path d="M 361.43 488.27 L 338.02 488.27 L 338.02 512.85 L 361.43 512.85 L 361.43 488.27 Z" fill="url(#paint9_linear_1515_111182)" fill-rule="nonzero" node-id="248" stroke="none" target-height="24.583008" target-width="23.412018" target-x="338.02" target-y="488.266"></path><path d="M 352.85 497.24 C 365.99 497.24 376.65 484.92 376.65 469.73 C 376.65 454.54 365.99 442.22 352.85 442.22 C 339.70 442.22 329.05 454.54 329.05 469.73 C 329.05 484.92 339.70 497.24 352.85 497.24 Z" fill="url(#paint10_linear_1515_111182)" fill-rule="nonzero" node-id="250" stroke="none" target-height="55.018982" target-width="47.605988" target-x="329.045" target-y="442.221"></path><path d="M 335.35 431.88 C 333.27 428.23 329.39 425.77 324.93 425.77 C 318.29 425.77 312.90 431.24 312.90 437.99 C 312.90 441.59 314.44 444.84 316.89 447.07 C 307.58 464.20 316.19 479.60 322.65 485.83 C 322.69 485.86 322.72 485.90 322.75 485.93 C 334.53 496.02 356.10 489.29 356.10 489.29 C 363.12 485.93 363.74 484.06 364.86 480.53 C 361.71 481.52 354.48 476.61 357.84 468.07 C 362.41 461.89 366.97 466.90 369.05 469.17 C 369.26 469.41 369.45 469.62 369.61 469.78 C 372.61 465.59 374.99 464.85 376.48 464.39 C 377.63 464.03 378.26 463.84 378.26 462.38 C 378.26 455.40 376.47 449.86 374.38 445.90 C 374.08 445.32 373.75 444.75 373.39 444.18 C 372.21 442.27 371.00 440.86 370.01 439.96 C 368.93 438.77 367.70 437.65 366.37 436.58 C 354.27 428.46 343.34 429.13 335.35 431.88 Z" fill="url(#paint11_linear_1515_111182)" fill-rule="evenodd" node-id="252" stroke="none" target-height="70.24899" target-width="70.67401" target-x="307.585" target-y="425.772"></path><path d="M 322.41 752.29 L 332.50 752.20 L 332.63 765.65 L 322.53 765.74 Z" fill="#fee4c3" fill-rule="nonzero" group-id="1" node-id="256" stroke="none" target-height="13.546265" target-width="10.212799" target-x="322.413" target-y="752.196"></path><path d="M 346.30 765.14 C 347.15 769.70 344.92 772.85 337.61 774.21 C 330.31 775.56 322.50 777.01 319.92 772.36 C 320.04 772.56 317.65 769.36 321.69 763.48 C 321.69 763.48 327.27 765.86 333.27 761.33 C 339.96 761.40 345.67 761.74 346.30 765.14 Z" fill="#4f538f" fill-rule="nonzero" node-id="259" stroke="none" target-height="15.686035" target-width="29.496002" target-x="317.654" target-y="761.326"></path><path d="M 365.42 749.71 L 375.51 749.67 L 375.58 763.12 L 365.48 763.17 Z" fill="#fee4c3" fill-rule="nonzero" group-id="2" node-id="263" stroke="none" target-height="13.501587" target-width="10.153076" target-x="365.422" target-y="749.6651"></path><path d="M 390.03 763.46 C 390.86 768.03 387.84 770.37 380.52 771.69 C 373.21 773.01 365.40 774.43 362.84 769.76 C 362.96 769.97 360.59 766.75 364.65 760.89 C 364.65 760.89 370.22 763.30 376.24 758.79 C 382.93 758.89 389.42 760.05 390.03 763.46 Z" fill="#4f538f" fill-rule="nonzero" node-id="266" stroke="none" target-height="15.637024" target-width="30.271973" target-x="360.588" target-y="758.792"></path><path d="M 310.70 609.23 C 311.46 636.79 312.39 653.60 314.07 684.54 C 315.76 715.48 316.67 728.54 319.41 756.73 L 339.77 756.50 L 344.40 687.98 C 346.09 665.63 347.77 619.29 347.77 619.29 C 347.77 619.29 352.83 655.32 356.20 687.98 C 359.57 720.63 362.27 756.44 362.27 756.44 L 381.41 756.18 C 381.41 756.18 384.84 729.23 384.84 684.54 C 384.84 639.85 384.84 609.23 384.84 609.23 L 310.70 609.23 Z" fill="#d1e2ff" fill-rule="nonzero" node-id="268" stroke="none" target-height="147.5" target-width="74.139984" target-x="310.704" target-y="609.23"></path><path d="M 379.08 456.06 C 382.23 454.00 384.81 456.90 388.60 461.64 C 392.39 466.39 395.62 472.00 392.21 474.72 C 388.80 477.44 382.15 475.32 378.36 470.57 C 365.61 465.70 368.07 451.55 379.08 456.06 Z" fill="url(#paint12_linear_1515_111182)" fill-rule="nonzero" node-id="270" stroke="none" target-height="25.893982" target-width="30.007019" target-x="365.611" target-y="451.545"></path><path d="M 287.92 612.85 C 284.37 611.58 285.11 607.78 286.58 601.89 C 288.06 596.00 290.56 590.03 294.79 591.09 C 299.02 592.15 301.37 598.72 299.89 604.62 C 303.76 617.70 291.00 624.33 287.92 612.85 Z" fill="url(#paint13_linear_1515_111182)" fill-rule="nonzero" node-id="272" stroke="none" target-height="34.304016" target-width="19.386017" target-x="284.37" target-y="590.029"></path><path d="M 382.91 541.14 C 383.01 543.98 383.13 546.89 383.31 549.84 C 384.44 565.70 386.33 582.13 387.45 591.81 C 387.99 596.51 388.35 599.61 388.35 600.30 C 388.35 602.36 388.63 603.85 388.85 605.02 C 389.16 606.72 389.35 607.71 388.35 608.71 C 349.67 627.22 310.98 617.12 309.30 613.76 C 308.43 612.02 308.40 599.03 309.07 583.43 C 305.49 591.71 303.46 596.84 300.94 607.62 C 300.93 607.04 296.01 602.84 285.86 604.28 C 283.64 597.42 283.48 592.51 288.91 569.91 C 293.99 548.77 309.07 515.78 320.24 506.36 C 328.91 499.05 332.45 498.15 339.06 502.31 C 339.48 503.23 339.82 504.17 340.08 505.14 C 343.18 506.70 347.29 507.79 353.03 507.79 L 353.11 507.78 C 356.84 507.02 361.45 506.09 363.12 502.75 C 366.55 501.69 369.36 501.43 371.66 501.83 C 376.05 501.83 380.75 502.73 383.31 504.43 C 388.35 507.79 395.07 506.12 398.44 502.75 C 400.12 499.39 398.44 496.02 395.08 492.66 C 391.71 489.29 381.62 477.52 381.62 474.16 C 381.62 471.46 388.35 467.43 391.71 465.75 C 401.25 473.04 420.31 489.97 420.31 499.39 C 421.95 504.31 421.99 536.46 382.91 541.14 Z M 300.93 607.65 C 300.93 607.64 300.94 607.63 300.94 607.62 L 300.93 607.65 Z" fill="url(#paint14_linear_1515_111182)" fill-rule="evenodd" node-id="274" stroke="none" target-height="161.47" target-width="138.50699" target-x="283.483" target-y="465.746"></path><path d="M 364.55 502.90 C 364.55 502.90 362.96 501.27 361.31 501.27 C 352.42 510.07 342.35 503.95 338.20 499.63 C 338.04 499.46 336.55 499.63 334.90 501.27 C 349.42 514.35 360.70 507.81 364.55 502.90 Z" fill="#5b7efb" fill-rule="nonzero" node-id="276" stroke="none" target-height="14.879974" target-width="29.656006" target-x="334.897" target-y="499.465"></path><path d="M 767.99 564.27 C 770.38 557.75 781.41 555.89 788.18 556.12 C 786.45 576.39 764.93 575.96 755.15 574.47 C 758.37 573.78 765.63 570.73 767.99 564.27 Z" fill="url(#paint15_linear_1515_111182)" fill-rule="nonzero" node-id="278" stroke="none" target-height="20.49701" target-width="33.035034" target-x="755.146" target-y="555.891"></path><path d="M 786.06 558.29 C 782.43 562.86 772.52 571.45 758.10 574.35" fill="none" node-id="280" stroke="url(#paint16_linear_1515_111182)" stroke-linecap="butt" stroke-width="0.3" target-height="16.063965" target-width="27.963013" target-x="758.099" target-y="558.286"></path><path d="M 844.56 452.00 C 845.46 474.49 836.31 526.18 792.50 553.04" fill="none" node-id="282" stroke="url(#paint17_linear_1515_111182)" stroke-linecap="butt" stroke-width="1" target-height="101.03998" target-width="52.963013" target-x="792.498" target-y="452"></path><path d="M 808.38 479.99 C 807.36 492.81 804.33 508.10 793.37 508.99 C 785.32 509.64 791.04 498.68 795.46 502.47 C 799.88 506.27 796.91 520.27 774.94 524.37" fill="none" node-id="284" stroke="url(#paint18_linear_1515_111182)" stroke-linecap="butt" stroke-width="1" target-height="44.378998" target-width="33.434998" target-x="774.941" target-y="479.993"></path><path d="M 857.68 504.93 C 856.02 515.63 849.21 538.49 835.24 544.32" fill="none" node-id="286" stroke="url(#paint19_linear_1515_111182)" stroke-linecap="butt" stroke-width="1" target-height="39.385986" target-width="22.439026" target-x="835.242" target-y="504.932"></path><path d="M 247.93 307.40 L 281.16 295.42 C 281.16 295.42 269.98 264.08 235.78 273.73" fill="#6cb8ff" fill-rule="nonzero" node-id="288" stroke="none" target-height="43.319977" target-width="45.37799" target-x="235.784" target-y="264.084"></path><path d="M 277.54 304.10 C 284.30 322.87 274.77 343.50 256.24 350.18 C 237.72 356.86 217.21 347.06 210.45 328.29 C 203.68 309.52 213.21 288.89 231.74 282.21 L 243.99 316.20 L 277.54 304.10 Z" fill="#6cb8ff" fill-rule="nonzero" node-id="290" stroke="none" target-height="74.64801" target-width="80.623" target-x="203.679" target-y="282.211"></path><path d="M 579.37 188.18 C 580.75 188.54 581.94 189.44 582.66 190.67 C 583.39 191.91 583.60 193.38 583.24 194.76 L 574.25 229.66 C 573.90 231.04 573.01 232.23 571.78 232.96 C 570.55 233.69 569.08 233.90 567.69 233.55 L 560.74 231.76 C 559.36 231.40 558.17 230.50 557.44 229.27 C 556.72 228.04 556.51 226.57 556.87 225.18 L 565.86 190.28 C 566.21 188.90 567.10 187.71 568.33 186.97 C 569.56 186.24 571.03 186.03 572.42 186.39 L 579.37 188.18 L 579.37 188.18 Z M 528.91 182.63 C 529.60 182.81 530.25 183.12 530.81 183.55 C 531.38 183.97 531.85 184.51 532.21 185.12 C 532.57 185.73 532.80 186.41 532.90 187.11 C 533.00 187.81 532.96 188.53 532.78 189.22 L 525.60 217.12 C 525.24 218.51 524.35 219.70 523.12 220.43 C 521.89 221.16 520.42 221.37 519.03 221.02 L 512.08 219.23 C 510.70 218.87 509.51 217.97 508.79 216.74 C 508.06 215.51 507.85 214.03 508.21 212.65 L 515.40 184.74 C 515.75 183.35 516.64 182.16 517.88 181.43 C 519.11 180.70 520.58 180.49 521.96 180.84 L 528.91 182.63 Z M 551.45 195.87 C 552.83 196.23 554.02 197.13 554.74 198.36 C 555.47 199.59 555.67 201.06 555.31 202.45 L 549.92 223.38 C 549.57 224.77 548.68 225.96 547.45 226.69 C 546.22 227.42 544.75 227.63 543.36 227.28 L 536.41 225.49 C 535.03 225.13 533.84 224.24 533.12 223.00 C 532.39 221.77 532.18 220.29 532.54 218.91 L 537.93 197.98 C 538.29 196.59 539.18 195.40 540.41 194.67 C 541.64 193.94 543.11 193.73 544.50 194.08 L 551.45 195.87 Z M 578.19 166.53 L 574.08 165.50 C 573.42 165.29 572.86 164.84 572.52 164.24 C 572.18 163.64 572.09 162.93 572.25 162.26 C 572.42 161.59 572.84 161.01 573.42 160.64 C 574.00 160.27 574.70 160.13 575.38 160.26 L 585.86 162.88 C 586.38 163.00 586.86 163.29 587.22 163.69 C 587.58 164.09 587.80 164.59 587.87 165.13 C 587.92 165.47 587.90 165.82 587.82 166.16 L 585.11 176.68 C 584.93 177.37 584.49 177.97 583.87 178.33 C 583.26 178.70 582.52 178.80 581.83 178.63 C 581.14 178.45 580.54 178.00 580.18 177.38 C 579.82 176.77 579.72 176.03 579.90 175.34 L 580.98 171.15 L 551.59 188.58 C 551.12 188.85 550.58 188.98 550.03 188.95 C 549.49 188.91 548.97 188.71 548.54 188.37 L 520.86 166.37 C 520.30 165.92 519.94 165.27 519.86 164.56 C 519.78 163.84 519.98 163.13 520.42 162.57 C 520.64 162.29 520.91 162.06 521.22 161.88 C 521.53 161.71 521.87 161.60 522.22 161.56 C 522.58 161.52 522.93 161.55 523.27 161.64 C 523.61 161.74 523.93 161.90 524.21 162.12 L 550.45 182.98 L 578.19 166.53 L 578.19 166.53 Z" fill="#6cb8ff" fill-rule="nonzero" node-id="292" stroke="none" target-height="73.77301" target-width="80.06897" target-x="507.854" target-y="160.131"></path><path d="M 807.05 323.94 C 793.29 313.41 776.26 308.63 758.89 310.34 C 756.25 310.53 754.34 312.96 754.53 315.59 C 754.85 318.33 757.28 320.25 760.02 319.92 C 773.98 318.60 787.93 322.30 799.36 330.38 L 807.05 323.94 Z M 790.02 338.22 C 781.52 332.96 771.64 330.53 761.49 331.44 C 758.85 331.63 756.94 334.05 757.16 336.92 C 757.35 339.56 759.78 341.47 762.41 341.28 C 769.21 340.64 775.99 341.95 782.02 344.94 L 790.02 338.22 Z M 793.37 353.63 L 800.85 347.36 C 806.74 354.08 810.59 362.35 812.00 371.31 C 812.42 373.92 810.63 376.44 807.90 376.76 C 806.53 376.92 805.10 376.63 804.08 375.82 C 803.19 375.12 802.47 373.93 802.21 372.69 C 801.10 365.50 798.04 358.94 793.37 353.63 Z M 773.80 351.83 C 770.62 350.86 767.25 350.47 763.87 350.71 C 762.60 350.80 761.41 351.40 760.57 352.36 C 759.73 353.33 759.31 354.58 759.39 355.86 C 759.48 357.13 760.08 358.32 761.04 359.16 C 761.79 359.81 762.71 360.21 763.68 360.32 L 773.80 351.83 Z M 778.67 365.97 L 786.16 359.69 C 789.61 363.50 791.93 368.20 792.79 373.33 C 793.22 375.94 791.43 378.47 788.82 378.89 C 787.36 379.18 785.93 378.88 784.91 378.08 C 784.02 377.37 783.43 376.29 783.16 375.05 C 782.58 371.63 781.01 368.48 778.67 365.97 Z M 809.80 339.85 L 817.28 333.57 C 825.81 343.46 831.32 355.63 833.22 368.81 C 833.64 371.42 831.73 373.84 829.12 374.26 C 828.45 374.40 827.76 374.38 827.11 374.22 C 826.45 374.06 825.83 373.75 825.31 373.33 C 824.41 372.62 823.69 371.43 823.43 370.19 C 821.94 358.88 817.16 348.36 809.80 339.85 Z" fill="#6cb8ff" fill-rule="evenodd" node-id="294" stroke="none" target-height="70.54898" target-width="79.30298" target-x="754.338" target-y="308.631"></path><path d="M 815.31 319.82 C 817.34 318.12 820.36 318.38 822.06 320.41 C 823.76 322.44 823.50 325.46 821.47 327.16 L 763.23 376.02 C 761.20 377.72 758.18 377.46 756.48 375.43 C 754.78 373.41 755.04 370.39 757.07 368.69 L 815.31 319.82 Z" fill="#74bcff" fill-rule="nonzero" node-id="296" stroke="none" target-height="59.605988" target-width="68.979004" target-x="754.781" target-y="318.118"></path></g></svg>